%TF.GenerationSoftware,KiCad,Pcbnew,9.0.4*%
%TF.CreationDate,2025-11-03T10:18:42-05:00*%
%TF.ProjectId,Perpetuality,50657270-6574-4756-916c-6974792e6b69,rev?*%
%TF.SameCoordinates,Original*%
%TF.FileFunction,Copper,L4,Inr*%
%TF.FilePolarity,Positive*%
%FSLAX46Y46*%
G04 Gerber Fmt 4.6, Leading zero omitted, Abs format (unit mm)*
G04 Created by KiCad (PCBNEW 9.0.4) date 2025-11-03 10:18:42*
%MOMM*%
%LPD*%
G01*
G04 APERTURE LIST*
%TA.AperFunction,ComponentPad*%
%ADD10C,0.508000*%
%TD*%
%TA.AperFunction,ViaPad*%
%ADD11C,0.600000*%
%TD*%
%TA.AperFunction,Conductor*%
%ADD12C,0.200000*%
%TD*%
G04 APERTURE END LIST*
D10*
%TO.N,*%
%TO.C,U7*%
X65318889Y-69938699D03*
X64531489Y-69938699D03*
X64531489Y-69151299D03*
%TO.N,N/C*%
X65318889Y-69151299D03*
%TD*%
D11*
%TO.N,A0*%
X58200000Y-65100000D03*
%TO.N,3V3*%
X56450000Y-89800000D03*
X73000000Y-72050000D03*
%TO.N,GND*%
X56587500Y-80120000D03*
X56587500Y-85145000D03*
X63937500Y-77545000D03*
X54250000Y-80050000D03*
X63837500Y-95120000D03*
X71500000Y-96195000D03*
X56587500Y-73945000D03*
X63950000Y-83220000D03*
X73475000Y-79395000D03*
X61037500Y-93620000D03*
X61500000Y-72900000D03*
X74800000Y-85500000D03*
X54775000Y-73845000D03*
X56487500Y-92120000D03*
X54775000Y-92045000D03*
X61137500Y-81620000D03*
X68475000Y-91370000D03*
X54250000Y-85545000D03*
X73575000Y-91370000D03*
X63875000Y-88700000D03*
X68575000Y-85395000D03*
X61137500Y-87220000D03*
X68475000Y-79395000D03*
X68512500Y-96195000D03*
%TO.N,1V8*%
X72000000Y-86300000D03*
X62412500Y-88812500D03*
X67600000Y-67575000D03*
%TO.N,/EMG2/EMG_OUT*%
X54800000Y-83550000D03*
X62300000Y-69500000D03*
%TO.N,FSYNC*%
X74900000Y-91500000D03*
X62150000Y-83850000D03*
%TO.N,SCL*%
X64200000Y-78700000D03*
X61700000Y-78700000D03*
X68150000Y-70200000D03*
%TO.N,EN*%
X73600000Y-73500000D03*
X59500000Y-89900000D03*
%TO.N,SDA*%
X67800000Y-71200000D03*
%TO.N,5V*%
X76300000Y-67200000D03*
%TO.N,/EMG1/EMG_OUT*%
X54300000Y-78500000D03*
X62300000Y-68794998D03*
%TO.N,/EMG3/EMG_OUT*%
X55400000Y-88200000D03*
X62400000Y-70200000D03*
%TO.N,/EMG4/EMG_OUT*%
X55220000Y-95020000D03*
X62500000Y-71000000D03*
%TO.N,REF*%
X67075000Y-84745000D03*
X66975000Y-79145000D03*
X66975000Y-90325000D03*
X80462500Y-96420000D03*
X66975000Y-96720000D03*
%TO.N,\u002ARESET*%
X67750000Y-68500000D03*
%TO.N,\u002AINT*%
X67794999Y-69294999D03*
%TO.N,A0*%
X66600000Y-72400000D03*
%TO.N,GNDD*%
X76163500Y-69520000D03*
X55300000Y-67815000D03*
X65500000Y-96400000D03*
X61800000Y-66300000D03*
X55300000Y-70355000D03*
X62400000Y-90375000D03*
X54725000Y-89800000D03*
X57000000Y-87800000D03*
X65175000Y-65145000D03*
X65175252Y-72724748D03*
X58162500Y-89800000D03*
X71600000Y-94375000D03*
X71900000Y-87500000D03*
%TD*%
D12*
%TO.N,/EMG4/EMG_OUT*%
X55220000Y-95020000D02*
X55600000Y-94640000D01*
X55600000Y-94640000D02*
X55600000Y-89200000D01*
X55600000Y-89200000D02*
X55900000Y-88900000D01*
X55900000Y-88900000D02*
X55900000Y-77600000D01*
X55900000Y-77600000D02*
X62500000Y-71000000D01*
%TO.N,/EMG2/EMG_OUT*%
X54950000Y-83550000D02*
X54950000Y-76300000D01*
X54800000Y-83550000D02*
X54950000Y-83550000D01*
X61750000Y-69500000D02*
X62300000Y-69500000D01*
X54950000Y-76300000D02*
X61750000Y-69500000D01*
%TO.N,/EMG1/EMG_OUT*%
X54300000Y-75300000D02*
X60805002Y-68794998D01*
X54300000Y-78500000D02*
X54300000Y-75300000D01*
X60805002Y-68794998D02*
X62300000Y-68794998D01*
%TO.N,/EMG3/EMG_OUT*%
X62300000Y-70200000D02*
X62400000Y-70200000D01*
X55400000Y-77100000D02*
X62300000Y-70200000D01*
X55400000Y-88200000D02*
X55400000Y-77100000D01*
%TO.N,REF*%
X66975000Y-84845000D02*
X67075000Y-84745000D01*
X67075000Y-84745000D02*
X67075000Y-79245000D01*
X66975000Y-96720000D02*
X66975000Y-90325000D01*
X66975000Y-90325000D02*
X66975000Y-84845000D01*
X67075000Y-79245000D02*
X66975000Y-79145000D01*
X80462500Y-96420000D02*
X80162500Y-96720000D01*
X80162500Y-96720000D02*
X66975000Y-96720000D01*
%TD*%
M02*
