%TF.GenerationSoftware,KiCad,Pcbnew,9.0.4*%
%TF.CreationDate,2025-10-05T21:59:59-04:00*%
%TF.ProjectId,Perpetuality,50657270-6574-4756-916c-6974792e6b69,rev?*%
%TF.SameCoordinates,Original*%
%TF.FileFunction,Legend,Top*%
%TF.FilePolarity,Positive*%
%FSLAX46Y46*%
G04 Gerber Fmt 4.6, Leading zero omitted, Abs format (unit mm)*
G04 Created by KiCad (PCBNEW 9.0.4) date 2025-10-05 21:59:59*
%MOMM*%
%LPD*%
G01*
G04 APERTURE LIST*
%ADD10C,0.300000*%
%ADD11C,0.150000*%
%ADD12C,0.106680*%
%ADD13C,0.080000*%
%ADD14C,0.120000*%
%ADD15C,0.200000*%
%ADD16C,0.127000*%
G04 APERTURE END LIST*
D10*
G36*
X80154876Y-81828661D02*
G01*
X80187506Y-81843318D01*
X80216482Y-81868257D01*
X80246000Y-81916101D01*
X80254309Y-81969098D01*
X80245181Y-82002555D01*
X80216904Y-82039575D01*
X80160677Y-82082337D01*
X80063891Y-82132039D01*
X79937593Y-82181249D01*
X79785362Y-82225279D01*
X79809542Y-82473216D01*
X79823816Y-82625442D01*
X79838119Y-82721244D01*
X79963623Y-82778662D01*
X80175174Y-82885192D01*
X80216636Y-82919995D01*
X80240357Y-82960929D01*
X80248447Y-83010214D01*
X80238976Y-83063422D01*
X80210070Y-83111697D01*
X80181956Y-83136864D01*
X80149842Y-83151677D01*
X80112342Y-83156760D01*
X80073894Y-83148459D01*
X79972419Y-83108464D01*
X79758343Y-83007192D01*
X79726810Y-83017577D01*
X79698992Y-83019465D01*
X79672050Y-83009216D01*
X79646577Y-82979697D01*
X79622239Y-82920088D01*
X79369630Y-82768639D01*
X79100444Y-82596222D01*
X78877383Y-82441659D01*
X78766048Y-82351807D01*
X78765674Y-82351400D01*
X79205408Y-82351400D01*
X79580198Y-82571676D01*
X79562796Y-82428244D01*
X79550889Y-82283714D01*
X79205408Y-82351400D01*
X78765674Y-82351400D01*
X78722129Y-82303998D01*
X78712648Y-82280600D01*
X78720809Y-82229893D01*
X78744403Y-82189180D01*
X78785200Y-82155907D01*
X78848661Y-82130024D01*
X79176740Y-82065452D01*
X79850484Y-81912770D01*
X79985397Y-81860563D01*
X80068892Y-81831107D01*
X80117288Y-81823652D01*
X80154876Y-81828661D01*
G37*
G36*
X80076622Y-81294072D02*
G01*
X80155421Y-81301403D01*
X80208702Y-81320358D01*
X80243596Y-81348314D01*
X80264437Y-81385618D01*
X80271894Y-81435489D01*
X80261879Y-81492201D01*
X80232785Y-81536972D01*
X80188756Y-81566664D01*
X80132126Y-81576905D01*
X78710450Y-81576905D01*
X78672637Y-81571994D01*
X78640562Y-81557777D01*
X78612814Y-81533858D01*
X78586836Y-81488773D01*
X78577826Y-81432375D01*
X78587256Y-81376513D01*
X78614371Y-81332998D01*
X78655920Y-81304089D01*
X78710450Y-81294072D01*
X80076622Y-81294072D01*
G37*
G36*
X79320263Y-79724659D02*
G01*
X79712468Y-79835073D01*
X80050610Y-79940906D01*
X80141694Y-79980061D01*
X80240387Y-80041290D01*
X80278246Y-80078218D01*
X80300030Y-80121201D01*
X80307065Y-80172448D01*
X80298848Y-80215983D01*
X80274847Y-80257060D01*
X80231402Y-80297280D01*
X80162038Y-80336972D01*
X80058121Y-80375322D01*
X79943184Y-80401737D01*
X79706686Y-80440901D01*
X79767044Y-80467554D01*
X80160977Y-80623351D01*
X80200219Y-80642899D01*
X80229579Y-80669421D01*
X80267992Y-80702787D01*
X80291559Y-80744610D01*
X80301203Y-80797465D01*
X80294858Y-80825799D01*
X80269621Y-80858712D01*
X80215199Y-80898948D01*
X80118124Y-80948019D01*
X79986038Y-80990173D01*
X79822156Y-81023782D01*
X79433378Y-81088450D01*
X79289122Y-81102830D01*
X79237640Y-81092223D01*
X79195516Y-81060332D01*
X79167606Y-81013917D01*
X79158147Y-80958391D01*
X79165374Y-80907140D01*
X79185379Y-80869162D01*
X79218288Y-80841064D01*
X79267598Y-80822103D01*
X79408831Y-80799572D01*
X79551072Y-80784185D01*
X79812015Y-80743152D01*
X79296632Y-80569037D01*
X79235306Y-80541357D01*
X79195396Y-80506417D01*
X79172094Y-80463902D01*
X79164009Y-80411226D01*
X79172649Y-80360801D01*
X79197829Y-80320260D01*
X79242052Y-80287070D01*
X79312020Y-80261566D01*
X79582488Y-80207253D01*
X79870359Y-80156053D01*
X79246441Y-79995219D01*
X79207881Y-79978807D01*
X79181207Y-79953325D01*
X79164380Y-79917336D01*
X79158147Y-79867083D01*
X79167645Y-79812140D01*
X79196157Y-79764135D01*
X79223890Y-79739087D01*
X79254917Y-79724493D01*
X79290496Y-79719530D01*
X79320263Y-79724659D01*
G37*
G36*
X80207596Y-78587821D02*
G01*
X80247897Y-78618972D01*
X80274706Y-78663717D01*
X80283618Y-78714776D01*
X80276884Y-78744501D01*
X80250584Y-78791594D01*
X80192485Y-78864344D01*
X80233463Y-78956540D01*
X80260537Y-79030399D01*
X80278452Y-79100001D01*
X80283618Y-79152307D01*
X80274080Y-79275785D01*
X80247641Y-79375902D01*
X80206406Y-79457087D01*
X80150811Y-79522701D01*
X80081544Y-79573665D01*
X79994921Y-79612138D01*
X79887146Y-79637104D01*
X79753489Y-79646166D01*
X79656331Y-79638750D01*
X79566497Y-79617003D01*
X79482637Y-79581106D01*
X79403675Y-79530477D01*
X79328872Y-79463808D01*
X79251019Y-79367238D01*
X79196446Y-79263534D01*
X79163532Y-79151001D01*
X79152285Y-79027285D01*
X79153405Y-79014004D01*
X79398482Y-79014004D01*
X79405244Y-79081112D01*
X79425257Y-79143318D01*
X79458970Y-79201947D01*
X79507933Y-79257911D01*
X79565875Y-79304366D01*
X79626726Y-79336629D01*
X79691384Y-79355893D01*
X79761091Y-79362417D01*
X79852028Y-79355936D01*
X79919217Y-79338742D01*
X79968087Y-79313232D01*
X80006069Y-79275734D01*
X80029171Y-79227690D01*
X80037421Y-79165679D01*
X80032095Y-79103445D01*
X80016355Y-79045237D01*
X79990548Y-78990463D01*
X79954256Y-78938167D01*
X79724945Y-78962523D01*
X79588533Y-78968941D01*
X79513062Y-78964362D01*
X79417991Y-78950440D01*
X79403153Y-78986893D01*
X79398482Y-79014004D01*
X79153405Y-79014004D01*
X79157674Y-78963393D01*
X79175193Y-78888941D01*
X79207331Y-78801879D01*
X79247605Y-78725069D01*
X79286207Y-78678911D01*
X79323515Y-78654735D01*
X79361204Y-78647182D01*
X79395681Y-78653089D01*
X79425409Y-78670721D01*
X79527900Y-78686658D01*
X79672064Y-78692245D01*
X79853120Y-78683890D01*
X79952333Y-78664584D01*
X80058395Y-78617415D01*
X80158230Y-78577481D01*
X80207596Y-78587821D01*
G37*
G36*
X79357907Y-77414000D02*
G01*
X80088529Y-77767541D01*
X80345466Y-77888606D01*
X80532196Y-77967393D01*
X80720690Y-78034987D01*
X80764418Y-78058157D01*
X80793581Y-78087092D01*
X80810958Y-78122393D01*
X80817044Y-78166146D01*
X80807572Y-78221027D01*
X80779217Y-78268636D01*
X80751561Y-78293296D01*
X80720303Y-78307752D01*
X80684146Y-78312691D01*
X80615692Y-78299802D01*
X80450664Y-78240547D01*
X80120860Y-78095437D01*
X79873627Y-78226480D01*
X79467633Y-78453101D01*
X79388865Y-78503292D01*
X79342027Y-78524634D01*
X79303044Y-78530953D01*
X79251761Y-78520211D01*
X79205957Y-78486898D01*
X79174341Y-78439124D01*
X79164009Y-78385415D01*
X79169812Y-78342841D01*
X79186382Y-78308325D01*
X79214109Y-78279902D01*
X79347953Y-78188045D01*
X79537487Y-78076101D01*
X79795804Y-77940740D01*
X79501613Y-77807475D01*
X79353715Y-77733433D01*
X79232152Y-77665051D01*
X79190021Y-77630892D01*
X79166200Y-77591283D01*
X79158147Y-77544151D01*
X79167789Y-77490051D01*
X79197073Y-77441660D01*
X79225456Y-77416299D01*
X79256832Y-77401580D01*
X79292419Y-77396598D01*
X79322389Y-77400624D01*
X79357907Y-77414000D01*
G37*
G36*
X79468824Y-76550571D02*
G01*
X79462992Y-76599143D01*
X79447370Y-76633489D01*
X79422863Y-76657409D01*
X79387766Y-76672479D01*
X79380896Y-76756468D01*
X79388363Y-76893233D01*
X79405278Y-76963921D01*
X79425748Y-76994895D01*
X79448674Y-77003489D01*
X79470455Y-76994145D01*
X79504053Y-76953989D01*
X79556385Y-76854928D01*
X79647301Y-76669683D01*
X79701648Y-76580246D01*
X79761413Y-76511060D01*
X79820946Y-76465809D01*
X79881233Y-76440120D01*
X79943998Y-76431686D01*
X80027095Y-76442047D01*
X80097540Y-76471953D01*
X80158376Y-76521970D01*
X80210986Y-76595634D01*
X80250063Y-76686502D01*
X80274823Y-76793681D01*
X80283618Y-76920416D01*
X80272896Y-77052753D01*
X80242035Y-77169452D01*
X80206347Y-77242874D01*
X80166864Y-77288981D01*
X80123548Y-77314634D01*
X80074424Y-77323142D01*
X80029944Y-77315490D01*
X79999861Y-77294470D01*
X79980468Y-77258595D01*
X79972941Y-77201234D01*
X79979018Y-77149576D01*
X80002250Y-77064946D01*
X80025448Y-76980186D01*
X80031559Y-76927651D01*
X80023333Y-76817829D01*
X80004014Y-76757412D01*
X79978744Y-76728004D01*
X79947387Y-76718640D01*
X79918534Y-76729018D01*
X79881322Y-76769498D01*
X79831433Y-76863080D01*
X79741910Y-77054410D01*
X79696885Y-77133640D01*
X79640281Y-77199687D01*
X79580958Y-77243809D01*
X79517922Y-77269469D01*
X79449315Y-77278079D01*
X79371417Y-77269177D01*
X79306921Y-77243859D01*
X79252793Y-77202354D01*
X79207447Y-77142457D01*
X79170969Y-77059817D01*
X79149757Y-76972557D01*
X79134666Y-76846405D01*
X79128838Y-76670464D01*
X79136544Y-76575242D01*
X79155216Y-76518789D01*
X79184470Y-76482127D01*
X79226546Y-76459519D01*
X79286099Y-76451195D01*
X79378511Y-76459958D01*
X79431740Y-76481201D01*
X79459563Y-76510864D01*
X79468824Y-76550571D01*
G37*
G36*
X79487783Y-74481803D02*
G01*
X79561092Y-74495841D01*
X79607512Y-74523949D01*
X79634813Y-74565230D01*
X79644678Y-74624228D01*
X79635747Y-74682637D01*
X79611926Y-74720778D01*
X79572953Y-74744366D01*
X79512696Y-74753279D01*
X79410205Y-74758408D01*
X79432231Y-74847742D01*
X79466665Y-74923660D01*
X79513201Y-74988270D01*
X79572539Y-75042983D01*
X79646327Y-75088411D01*
X80160428Y-75087404D01*
X80214011Y-75097521D01*
X80256965Y-75127337D01*
X80285488Y-75171973D01*
X80295341Y-75228729D01*
X80290444Y-75269215D01*
X80276700Y-75301351D01*
X80254309Y-75327097D01*
X80213182Y-75351368D01*
X80159970Y-75359887D01*
X79488149Y-75359887D01*
X79393261Y-75357872D01*
X79298373Y-75355765D01*
X79245018Y-75346962D01*
X79202477Y-75321510D01*
X79174163Y-75281203D01*
X79164009Y-75223599D01*
X79171666Y-75171429D01*
X79192813Y-75133424D01*
X79227787Y-75105921D01*
X79280787Y-75088411D01*
X79221506Y-74994289D01*
X79179851Y-74896566D01*
X79154865Y-74794149D01*
X79146423Y-74685685D01*
X79153890Y-74623484D01*
X79174681Y-74575002D01*
X79208355Y-74536928D01*
X79257089Y-74507783D01*
X79325298Y-74488196D01*
X79419090Y-74480796D01*
X79487783Y-74481803D01*
G37*
G36*
X80073556Y-73349389D02*
G01*
X80120933Y-73377404D01*
X80166684Y-73428733D01*
X80211078Y-73511396D01*
X80244766Y-73608641D01*
X80265049Y-73709782D01*
X80271894Y-73815753D01*
X80263827Y-73938241D01*
X80240910Y-74044231D01*
X80204460Y-74136250D01*
X80154932Y-74216372D01*
X80099022Y-74278317D01*
X80035868Y-74325784D01*
X79964523Y-74359989D01*
X79883439Y-74381171D01*
X79790583Y-74388564D01*
X79661769Y-74379468D01*
X79547026Y-74353259D01*
X79444161Y-74310867D01*
X79351404Y-74252276D01*
X79278983Y-74186583D01*
X79223965Y-74114049D01*
X79184699Y-74033773D01*
X79160620Y-73944237D01*
X79152293Y-73843505D01*
X79398482Y-73843505D01*
X79405628Y-73904533D01*
X79426483Y-73958250D01*
X79461496Y-74006446D01*
X79507167Y-74046185D01*
X79568986Y-74082547D01*
X79650540Y-74114981D01*
X79551988Y-73884446D01*
X79489054Y-73754087D01*
X79437133Y-73664170D01*
X79416643Y-73711492D01*
X79403322Y-73770407D01*
X79398482Y-73843505D01*
X79152293Y-73843505D01*
X79152285Y-73843414D01*
X79159323Y-73725488D01*
X79178876Y-73627893D01*
X79209163Y-73547300D01*
X79253831Y-73477444D01*
X79306610Y-73430394D01*
X79368664Y-73402345D01*
X79442995Y-73392602D01*
X79494755Y-73399742D01*
X79544170Y-73421474D01*
X79592720Y-73459817D01*
X79641198Y-73518632D01*
X79683057Y-73591380D01*
X79757061Y-73749166D01*
X79908461Y-74094465D01*
X79959816Y-74040065D01*
X79996388Y-73975580D01*
X80018044Y-73902529D01*
X80025697Y-73815753D01*
X80019002Y-73725655D01*
X80000056Y-73648862D01*
X79969918Y-73583112D01*
X79930546Y-73500671D01*
X79920184Y-73446824D01*
X79927312Y-73398033D01*
X79946117Y-73366590D01*
X79976391Y-73347456D01*
X80022583Y-73340304D01*
X80073556Y-73349389D01*
G37*
G36*
X80207596Y-72147137D02*
G01*
X80247897Y-72178288D01*
X80274706Y-72223033D01*
X80283618Y-72274092D01*
X80276884Y-72303817D01*
X80250584Y-72350910D01*
X80192485Y-72423661D01*
X80233463Y-72515856D01*
X80260537Y-72589715D01*
X80278452Y-72659317D01*
X80283618Y-72711623D01*
X80274080Y-72835101D01*
X80247641Y-72935218D01*
X80206406Y-73016403D01*
X80150811Y-73082017D01*
X80081544Y-73132981D01*
X79994921Y-73171454D01*
X79887146Y-73196420D01*
X79753489Y-73205482D01*
X79656331Y-73198066D01*
X79566497Y-73176320D01*
X79482637Y-73140422D01*
X79403675Y-73089794D01*
X79328872Y-73023124D01*
X79251019Y-72926554D01*
X79196446Y-72822850D01*
X79163532Y-72710317D01*
X79152285Y-72586601D01*
X79153405Y-72573320D01*
X79398482Y-72573320D01*
X79405244Y-72640428D01*
X79425257Y-72702634D01*
X79458970Y-72761263D01*
X79507933Y-72817227D01*
X79565875Y-72863683D01*
X79626726Y-72895945D01*
X79691384Y-72915209D01*
X79761091Y-72921733D01*
X79852028Y-72915252D01*
X79919217Y-72898058D01*
X79968087Y-72872548D01*
X80006069Y-72835050D01*
X80029171Y-72787006D01*
X80037421Y-72724995D01*
X80032095Y-72662761D01*
X80016355Y-72604553D01*
X79990548Y-72549779D01*
X79954256Y-72497483D01*
X79724945Y-72521839D01*
X79588533Y-72528258D01*
X79513062Y-72523678D01*
X79417991Y-72509756D01*
X79403153Y-72546209D01*
X79398482Y-72573320D01*
X79153405Y-72573320D01*
X79157674Y-72522709D01*
X79175193Y-72448257D01*
X79207331Y-72361195D01*
X79247605Y-72284385D01*
X79286207Y-72238227D01*
X79323515Y-72214051D01*
X79361204Y-72206498D01*
X79395681Y-72212405D01*
X79425409Y-72230037D01*
X79527900Y-72245974D01*
X79672064Y-72251561D01*
X79853120Y-72243206D01*
X79952333Y-72223900D01*
X80058395Y-72176731D01*
X80158230Y-72136797D01*
X80207596Y-72147137D01*
G37*
G36*
X78893936Y-70947484D02*
G01*
X79172801Y-70965714D01*
X79451665Y-70983871D01*
X79620315Y-70988703D01*
X79956993Y-70981208D01*
X80111335Y-70965164D01*
X80141377Y-70962050D01*
X80193494Y-70972400D01*
X80235075Y-71003083D01*
X80262721Y-71047451D01*
X80271894Y-71098338D01*
X80264249Y-71144915D01*
X80242239Y-71181678D01*
X80204208Y-71211086D01*
X80239173Y-71282605D01*
X80259071Y-71355525D01*
X80268648Y-71431151D01*
X80271894Y-71510314D01*
X80262257Y-71622882D01*
X80234434Y-71722446D01*
X80189030Y-71811404D01*
X80125257Y-71891516D01*
X80045647Y-71958962D01*
X79956915Y-72006800D01*
X79857219Y-72036070D01*
X79743963Y-72046214D01*
X79607303Y-72035618D01*
X79489547Y-72005453D01*
X79387460Y-71957106D01*
X79298556Y-71890509D01*
X79237667Y-71824651D01*
X79190749Y-71752172D01*
X79156919Y-71672139D01*
X79136062Y-71583199D01*
X79128838Y-71483661D01*
X79129077Y-71479540D01*
X79386758Y-71479540D01*
X79392994Y-71554909D01*
X79410350Y-71616263D01*
X79437622Y-71666316D01*
X79474777Y-71707052D01*
X79537886Y-71746849D01*
X79623523Y-71773096D01*
X79738559Y-71782889D01*
X79809190Y-71773752D01*
X79871900Y-71746836D01*
X79928886Y-71700915D01*
X79973383Y-71642471D01*
X79999358Y-71579587D01*
X80008112Y-71510314D01*
X80002767Y-71436425D01*
X79989610Y-71390422D01*
X79970993Y-71358858D01*
X79923756Y-71296083D01*
X79891883Y-71262286D01*
X79515352Y-71262286D01*
X79457845Y-71302039D01*
X79418632Y-71350396D01*
X79395075Y-71408442D01*
X79386758Y-71479540D01*
X79129077Y-71479540D01*
X79133155Y-71409108D01*
X79145232Y-71346366D01*
X79166127Y-71289166D01*
X79194417Y-71241861D01*
X78871363Y-71225388D01*
X78710724Y-71210079D01*
X78655496Y-71194183D01*
X78619319Y-71167504D01*
X78597487Y-71129723D01*
X78589549Y-71076905D01*
X78599688Y-71021623D01*
X78628934Y-70979544D01*
X78672381Y-70951989D01*
X78725287Y-70942633D01*
X78893936Y-70947484D01*
G37*
G36*
X81919214Y-82422108D02*
G01*
X81917749Y-82472849D01*
X81916192Y-82523499D01*
X81924344Y-82620860D01*
X82465280Y-82602359D01*
X82514923Y-82601352D01*
X82573816Y-82600344D01*
X82671364Y-82608510D01*
X82736049Y-82629341D01*
X82777244Y-82659336D01*
X82801112Y-82698193D01*
X82809480Y-82748905D01*
X82800677Y-82801692D01*
X82774675Y-82846266D01*
X82747549Y-82871629D01*
X82717224Y-82886338D01*
X82682443Y-82891329D01*
X82571801Y-82888306D01*
X82461067Y-82885192D01*
X81930205Y-82903694D01*
X81913261Y-83095760D01*
X81898592Y-83154782D01*
X81872266Y-83193046D01*
X81834270Y-83216001D01*
X81780454Y-83224354D01*
X81727200Y-83214552D01*
X81683001Y-83185428D01*
X81653233Y-83141493D01*
X81642976Y-83085044D01*
X81654699Y-82910838D01*
X81547080Y-82915967D01*
X81446605Y-82920088D01*
X81394574Y-82909578D01*
X81352266Y-82878140D01*
X81324229Y-82832092D01*
X81314713Y-82776657D01*
X81323500Y-82725637D01*
X81348804Y-82686118D01*
X81393076Y-82655211D01*
X81463440Y-82633529D01*
X81570436Y-82624982D01*
X81654699Y-82626997D01*
X81642976Y-82523499D01*
X81647800Y-82415025D01*
X81658363Y-82362665D01*
X81684781Y-82317277D01*
X81724787Y-82290452D01*
X81783110Y-82280691D01*
X81836876Y-82290812D01*
X81880380Y-82320717D01*
X81909258Y-82365389D01*
X81919214Y-82422108D01*
G37*
G36*
X81807015Y-81851953D02*
G01*
X81741798Y-81773234D01*
X81696923Y-81691577D01*
X81669754Y-81603593D01*
X81660561Y-81508670D01*
X81667758Y-81421121D01*
X81687478Y-81352340D01*
X81717970Y-81298443D01*
X81759022Y-81256612D01*
X81811525Y-81225746D01*
X81885058Y-81201801D01*
X81985710Y-81186911D01*
X82239142Y-81175645D01*
X82440184Y-81155129D01*
X82550330Y-81138674D01*
X82639212Y-81120324D01*
X82677131Y-81115195D01*
X82713428Y-81120105D01*
X82744616Y-81134433D01*
X82772019Y-81158792D01*
X82800072Y-81205916D01*
X82809480Y-81260733D01*
X82802803Y-81308827D01*
X82784109Y-81345719D01*
X82753182Y-81374201D01*
X82706989Y-81395006D01*
X82615150Y-81416956D01*
X82473249Y-81440068D01*
X82334905Y-81454376D01*
X82235387Y-81458478D01*
X82157992Y-81456005D01*
X82080598Y-81453441D01*
X81992487Y-81455456D01*
X81959320Y-81466541D01*
X81941940Y-81483957D01*
X81936067Y-81508762D01*
X81947007Y-81580170D01*
X81980497Y-81648031D01*
X82040389Y-81714658D01*
X82105642Y-81763681D01*
X82238776Y-81843802D01*
X82495002Y-81849953D01*
X82627471Y-81863785D01*
X82684641Y-81879614D01*
X82732105Y-81912388D01*
X82759122Y-81953790D01*
X82768447Y-82006651D01*
X82758912Y-82060715D01*
X82730070Y-82108683D01*
X82702066Y-82133696D01*
X82670908Y-82148255D01*
X82635365Y-82153196D01*
X82581051Y-82141931D01*
X82533156Y-82136947D01*
X82304630Y-82129658D01*
X82064878Y-82131771D01*
X81619712Y-82127551D01*
X81585915Y-82125536D01*
X81424165Y-82119399D01*
X81330467Y-82129200D01*
X81236769Y-82138908D01*
X81183433Y-82128317D01*
X81141057Y-82096960D01*
X81113162Y-82050926D01*
X81103688Y-81995477D01*
X81110500Y-81948811D01*
X81129904Y-81911830D01*
X81162628Y-81882117D01*
X81212223Y-81859189D01*
X81281824Y-81845454D01*
X81400534Y-81839680D01*
X81608354Y-81845817D01*
X81807015Y-81851953D01*
G37*
G36*
X82593556Y-79961532D02*
G01*
X82640933Y-79989547D01*
X82686684Y-80040875D01*
X82731078Y-80123538D01*
X82764766Y-80220783D01*
X82785049Y-80321925D01*
X82791894Y-80427896D01*
X82783827Y-80550383D01*
X82760910Y-80656374D01*
X82724460Y-80748393D01*
X82674932Y-80828515D01*
X82619022Y-80890460D01*
X82555868Y-80937926D01*
X82484523Y-80972132D01*
X82403439Y-80993313D01*
X82310583Y-81000706D01*
X82181769Y-80991610D01*
X82067026Y-80965401D01*
X81964161Y-80923010D01*
X81871404Y-80864419D01*
X81798983Y-80798726D01*
X81743965Y-80726192D01*
X81704699Y-80645915D01*
X81680620Y-80556379D01*
X81672293Y-80455648D01*
X81918482Y-80455648D01*
X81925628Y-80516675D01*
X81946483Y-80570392D01*
X81981496Y-80618588D01*
X82027167Y-80658327D01*
X82088986Y-80694689D01*
X82170540Y-80727124D01*
X82071988Y-80496589D01*
X82009054Y-80366230D01*
X81957133Y-80276312D01*
X81936643Y-80323634D01*
X81923322Y-80382550D01*
X81918482Y-80455648D01*
X81672293Y-80455648D01*
X81672285Y-80455556D01*
X81679323Y-80337630D01*
X81698876Y-80240035D01*
X81729163Y-80159442D01*
X81773831Y-80089587D01*
X81826610Y-80042536D01*
X81888664Y-80014487D01*
X81962995Y-80004745D01*
X82014755Y-80011885D01*
X82064170Y-80033617D01*
X82112720Y-80071959D01*
X82161198Y-80130774D01*
X82203057Y-80203522D01*
X82277061Y-80361309D01*
X82428461Y-80706607D01*
X82479816Y-80652207D01*
X82516388Y-80587722D01*
X82538044Y-80514671D01*
X82545697Y-80427896D01*
X82539002Y-80337798D01*
X82520056Y-80261004D01*
X82489918Y-80195254D01*
X82450546Y-80112813D01*
X82440184Y-80058967D01*
X82447312Y-80010176D01*
X82466117Y-79978733D01*
X82496391Y-79959599D01*
X82542583Y-79952446D01*
X82593556Y-79961532D01*
G37*
G36*
X81413936Y-77816082D02*
G01*
X81692801Y-77834311D01*
X81971665Y-77852468D01*
X82140315Y-77857301D01*
X82476993Y-77849806D01*
X82631335Y-77833762D01*
X82661377Y-77830648D01*
X82713494Y-77840997D01*
X82755075Y-77871680D01*
X82782721Y-77916048D01*
X82791894Y-77966935D01*
X82784249Y-78013513D01*
X82762239Y-78050276D01*
X82724208Y-78079684D01*
X82759173Y-78151202D01*
X82779071Y-78224123D01*
X82788648Y-78299749D01*
X82791894Y-78378912D01*
X82782257Y-78491480D01*
X82754434Y-78591043D01*
X82709030Y-78680002D01*
X82645257Y-78760114D01*
X82565647Y-78827559D01*
X82476915Y-78875397D01*
X82377219Y-78904667D01*
X82263963Y-78914811D01*
X82127303Y-78904215D01*
X82009547Y-78874050D01*
X81907460Y-78825703D01*
X81818556Y-78759106D01*
X81757667Y-78693248D01*
X81710749Y-78620769D01*
X81676919Y-78540736D01*
X81656062Y-78451797D01*
X81648838Y-78352259D01*
X81649077Y-78348137D01*
X81906758Y-78348137D01*
X81912994Y-78423507D01*
X81930350Y-78484860D01*
X81957622Y-78534914D01*
X81994777Y-78575649D01*
X82057886Y-78615446D01*
X82143523Y-78641693D01*
X82258559Y-78651487D01*
X82329190Y-78642350D01*
X82391900Y-78615434D01*
X82448886Y-78569513D01*
X82493383Y-78511069D01*
X82519358Y-78448184D01*
X82528112Y-78378912D01*
X82522767Y-78305022D01*
X82509610Y-78259019D01*
X82490993Y-78227455D01*
X82443756Y-78164680D01*
X82411883Y-78130883D01*
X82035352Y-78130883D01*
X81977845Y-78170637D01*
X81938632Y-78218994D01*
X81915075Y-78277040D01*
X81906758Y-78348137D01*
X81649077Y-78348137D01*
X81653155Y-78277705D01*
X81665232Y-78214964D01*
X81686127Y-78157764D01*
X81714417Y-78110458D01*
X81391363Y-78093985D01*
X81230724Y-78078676D01*
X81175496Y-78062780D01*
X81139319Y-78036102D01*
X81117487Y-77998320D01*
X81109549Y-77945503D01*
X81119688Y-77890220D01*
X81148934Y-77848142D01*
X81192381Y-77820586D01*
X81245287Y-77811230D01*
X81413936Y-77816082D01*
G37*
G36*
X82727596Y-76616782D02*
G01*
X82767897Y-76647932D01*
X82794706Y-76692677D01*
X82803618Y-76743736D01*
X82796884Y-76773461D01*
X82770584Y-76820554D01*
X82712485Y-76893305D01*
X82753463Y-76985500D01*
X82780537Y-77059359D01*
X82798452Y-77128961D01*
X82803618Y-77181267D01*
X82794080Y-77304745D01*
X82767641Y-77404862D01*
X82726406Y-77486047D01*
X82670811Y-77551661D01*
X82601544Y-77602625D01*
X82514921Y-77641098D01*
X82407146Y-77666064D01*
X82273489Y-77675126D01*
X82176331Y-77667710D01*
X82086497Y-77645964D01*
X82002637Y-77610066D01*
X81923675Y-77559438D01*
X81848872Y-77492768D01*
X81771019Y-77396198D01*
X81716446Y-77292494D01*
X81683532Y-77179961D01*
X81672285Y-77056245D01*
X81673405Y-77042964D01*
X81918482Y-77042964D01*
X81925244Y-77110072D01*
X81945257Y-77172278D01*
X81978970Y-77230908D01*
X82027933Y-77286871D01*
X82085875Y-77333327D01*
X82146726Y-77365589D01*
X82211384Y-77384853D01*
X82281091Y-77391377D01*
X82372028Y-77384896D01*
X82439217Y-77367702D01*
X82488087Y-77342192D01*
X82526069Y-77304694D01*
X82549171Y-77256650D01*
X82557421Y-77194639D01*
X82552095Y-77132405D01*
X82536355Y-77074197D01*
X82510548Y-77019423D01*
X82474256Y-76967127D01*
X82244945Y-76991483D01*
X82108533Y-76997902D01*
X82033062Y-76993322D01*
X81937991Y-76979400D01*
X81923153Y-77015853D01*
X81918482Y-77042964D01*
X81673405Y-77042964D01*
X81677674Y-76992353D01*
X81695193Y-76917902D01*
X81727331Y-76830840D01*
X81767605Y-76754029D01*
X81806207Y-76707871D01*
X81843515Y-76683695D01*
X81881204Y-76676142D01*
X81915681Y-76682049D01*
X81945409Y-76699681D01*
X82047900Y-76715618D01*
X82192064Y-76721205D01*
X82373120Y-76712850D01*
X82472333Y-76693545D01*
X82578395Y-76646375D01*
X82678230Y-76606441D01*
X82727596Y-76616782D01*
G37*
G36*
X81919214Y-75738158D02*
G01*
X81917749Y-75788900D01*
X81916192Y-75839549D01*
X81924344Y-75936911D01*
X82465280Y-75918409D01*
X82514923Y-75917402D01*
X82573816Y-75916394D01*
X82671364Y-75924560D01*
X82736049Y-75945391D01*
X82777244Y-75975386D01*
X82801112Y-76014243D01*
X82809480Y-76064955D01*
X82800677Y-76117743D01*
X82774675Y-76162316D01*
X82747549Y-76187679D01*
X82717224Y-76202389D01*
X82682443Y-76207379D01*
X82571801Y-76204357D01*
X82461067Y-76201243D01*
X81930205Y-76219744D01*
X81913261Y-76411810D01*
X81898592Y-76470832D01*
X81872266Y-76509096D01*
X81834270Y-76532051D01*
X81780454Y-76540404D01*
X81727200Y-76530602D01*
X81683001Y-76501478D01*
X81653233Y-76457543D01*
X81642976Y-76401094D01*
X81654699Y-76226888D01*
X81547080Y-76232017D01*
X81446605Y-76236139D01*
X81394574Y-76225628D01*
X81352266Y-76194190D01*
X81324229Y-76148143D01*
X81314713Y-76092707D01*
X81323500Y-76041688D01*
X81348804Y-76002168D01*
X81393076Y-75971262D01*
X81463440Y-75949579D01*
X81570436Y-75941032D01*
X81654699Y-75943047D01*
X81642976Y-75839549D01*
X81647800Y-75731075D01*
X81658363Y-75678715D01*
X81684781Y-75633328D01*
X81724787Y-75606503D01*
X81783110Y-75596741D01*
X81836876Y-75606862D01*
X81880380Y-75636767D01*
X81909258Y-75681440D01*
X81919214Y-75738158D01*
G37*
G36*
X82727596Y-74461094D02*
G01*
X82767897Y-74492245D01*
X82794706Y-74536990D01*
X82803618Y-74588049D01*
X82796884Y-74617774D01*
X82770584Y-74664867D01*
X82712485Y-74737617D01*
X82753463Y-74829812D01*
X82780537Y-74903672D01*
X82798452Y-74973274D01*
X82803618Y-75025580D01*
X82794080Y-75149058D01*
X82767641Y-75249175D01*
X82726406Y-75330360D01*
X82670811Y-75395974D01*
X82601544Y-75446938D01*
X82514921Y-75485411D01*
X82407146Y-75510377D01*
X82273489Y-75519439D01*
X82176331Y-75512023D01*
X82086497Y-75490276D01*
X82002637Y-75454379D01*
X81923675Y-75403750D01*
X81848872Y-75337081D01*
X81771019Y-75240511D01*
X81716446Y-75136806D01*
X81683532Y-75024274D01*
X81672285Y-74900558D01*
X81673405Y-74887277D01*
X81918482Y-74887277D01*
X81925244Y-74954385D01*
X81945257Y-75016591D01*
X81978970Y-75075220D01*
X82027933Y-75131184D01*
X82085875Y-75177639D01*
X82146726Y-75209902D01*
X82211384Y-75229166D01*
X82281091Y-75235689D01*
X82372028Y-75229209D01*
X82439217Y-75212015D01*
X82488087Y-75186505D01*
X82526069Y-75149006D01*
X82549171Y-75100963D01*
X82557421Y-75038952D01*
X82552095Y-74976718D01*
X82536355Y-74918510D01*
X82510548Y-74863736D01*
X82474256Y-74811440D01*
X82244945Y-74835796D01*
X82108533Y-74842214D01*
X82033062Y-74837635D01*
X81937991Y-74823713D01*
X81923153Y-74860166D01*
X81918482Y-74887277D01*
X81673405Y-74887277D01*
X81677674Y-74836666D01*
X81695193Y-74762214D01*
X81727331Y-74675152D01*
X81767605Y-74598341D01*
X81806207Y-74552184D01*
X81843515Y-74528008D01*
X81881204Y-74520455D01*
X81915681Y-74526362D01*
X81945409Y-74543994D01*
X82047900Y-74559931D01*
X82192064Y-74565518D01*
X82373120Y-74557163D01*
X82472333Y-74537857D01*
X82578395Y-74490688D01*
X82678230Y-74450754D01*
X82727596Y-74461094D01*
G37*
G36*
X81988824Y-73584486D02*
G01*
X81982992Y-73633058D01*
X81967370Y-73667404D01*
X81942863Y-73691324D01*
X81907766Y-73706393D01*
X81900896Y-73790382D01*
X81908363Y-73927148D01*
X81925278Y-73997836D01*
X81945748Y-74028810D01*
X81968674Y-74037404D01*
X81990455Y-74028060D01*
X82024053Y-73987904D01*
X82076385Y-73888843D01*
X82167301Y-73703598D01*
X82221648Y-73614161D01*
X82281413Y-73544975D01*
X82340946Y-73499724D01*
X82401233Y-73474035D01*
X82463998Y-73465601D01*
X82547095Y-73475962D01*
X82617540Y-73505868D01*
X82678376Y-73555885D01*
X82730986Y-73629549D01*
X82770063Y-73720417D01*
X82794823Y-73827595D01*
X82803618Y-73954330D01*
X82792896Y-74086667D01*
X82762035Y-74203367D01*
X82726347Y-74276789D01*
X82686864Y-74322896D01*
X82643548Y-74348549D01*
X82594424Y-74357056D01*
X82549944Y-74349405D01*
X82519861Y-74328385D01*
X82500468Y-74292510D01*
X82492941Y-74235149D01*
X82499018Y-74183491D01*
X82522250Y-74098861D01*
X82545448Y-74014101D01*
X82551559Y-73961566D01*
X82543333Y-73851744D01*
X82524014Y-73791327D01*
X82498744Y-73761919D01*
X82467387Y-73752555D01*
X82438534Y-73762933D01*
X82401322Y-73803413D01*
X82351433Y-73896994D01*
X82261910Y-74088325D01*
X82216885Y-74167554D01*
X82160281Y-74233602D01*
X82100958Y-74277724D01*
X82037922Y-74303384D01*
X81969315Y-74311994D01*
X81891417Y-74303092D01*
X81826921Y-74277774D01*
X81772793Y-74236269D01*
X81727447Y-74176371D01*
X81690969Y-74093732D01*
X81669757Y-74006472D01*
X81654666Y-73880320D01*
X81648838Y-73704378D01*
X81656544Y-73609157D01*
X81675216Y-73552704D01*
X81704470Y-73516042D01*
X81746546Y-73493433D01*
X81806099Y-73485109D01*
X81898511Y-73493873D01*
X81951740Y-73515116D01*
X81979563Y-73544779D01*
X81988824Y-73584486D01*
G37*
G36*
X81807015Y-72980076D02*
G01*
X81741798Y-72901356D01*
X81696923Y-72819700D01*
X81669754Y-72731715D01*
X81660561Y-72636793D01*
X81667758Y-72549244D01*
X81687478Y-72480463D01*
X81717970Y-72426566D01*
X81759022Y-72384734D01*
X81811525Y-72353869D01*
X81885058Y-72329924D01*
X81985710Y-72315034D01*
X82239142Y-72303768D01*
X82440184Y-72283251D01*
X82550330Y-72266797D01*
X82639212Y-72248447D01*
X82677131Y-72243318D01*
X82713428Y-72248228D01*
X82744616Y-72262556D01*
X82772019Y-72286915D01*
X82800072Y-72334039D01*
X82809480Y-72388856D01*
X82802803Y-72436950D01*
X82784109Y-72473842D01*
X82753182Y-72502323D01*
X82706989Y-72523128D01*
X82615150Y-72545078D01*
X82473249Y-72568191D01*
X82334905Y-72582499D01*
X82235387Y-72586601D01*
X82157992Y-72584128D01*
X82080598Y-72581564D01*
X81992487Y-72583579D01*
X81959320Y-72594664D01*
X81941940Y-72612080D01*
X81936067Y-72636885D01*
X81947007Y-72708293D01*
X81980497Y-72776153D01*
X82040389Y-72842781D01*
X82105642Y-72891804D01*
X82238776Y-72971925D01*
X82495002Y-72978076D01*
X82627471Y-72991908D01*
X82684641Y-73007737D01*
X82732105Y-73040511D01*
X82759122Y-73081913D01*
X82768447Y-73134774D01*
X82758912Y-73188838D01*
X82730070Y-73236806D01*
X82702066Y-73261819D01*
X82670908Y-73276378D01*
X82635365Y-73281319D01*
X82581051Y-73270054D01*
X82533156Y-73265070D01*
X82304630Y-73257780D01*
X82064878Y-73259894D01*
X81619712Y-73255674D01*
X81585915Y-73253659D01*
X81424165Y-73247522D01*
X81330467Y-73257322D01*
X81236769Y-73267031D01*
X81183433Y-73256440D01*
X81141057Y-73225082D01*
X81113162Y-73179049D01*
X81103688Y-73123599D01*
X81110500Y-73076934D01*
X81129904Y-73039953D01*
X81162628Y-73010240D01*
X81212223Y-72987312D01*
X81281824Y-72973577D01*
X81400534Y-72967803D01*
X81608354Y-72973940D01*
X81807015Y-72980076D01*
G37*
G36*
X82593556Y-71089655D02*
G01*
X82640933Y-71117669D01*
X82686684Y-71168998D01*
X82731078Y-71251661D01*
X82764766Y-71348906D01*
X82785049Y-71450048D01*
X82791894Y-71556018D01*
X82783827Y-71678506D01*
X82760910Y-71784496D01*
X82724460Y-71876515D01*
X82674932Y-71956638D01*
X82619022Y-72018583D01*
X82555868Y-72066049D01*
X82484523Y-72100255D01*
X82403439Y-72121436D01*
X82310583Y-72128829D01*
X82181769Y-72119733D01*
X82067026Y-72093524D01*
X81964161Y-72051132D01*
X81871404Y-71992541D01*
X81798983Y-71926849D01*
X81743965Y-71854314D01*
X81704699Y-71774038D01*
X81680620Y-71684502D01*
X81672293Y-71583770D01*
X81918482Y-71583770D01*
X81925628Y-71644798D01*
X81946483Y-71698515D01*
X81981496Y-71746711D01*
X82027167Y-71786450D01*
X82088986Y-71822812D01*
X82170540Y-71855246D01*
X82071988Y-71624712D01*
X82009054Y-71494352D01*
X81957133Y-71404435D01*
X81936643Y-71451757D01*
X81923322Y-71510672D01*
X81918482Y-71583770D01*
X81672293Y-71583770D01*
X81672285Y-71583679D01*
X81679323Y-71465753D01*
X81698876Y-71368158D01*
X81729163Y-71287565D01*
X81773831Y-71217709D01*
X81826610Y-71170659D01*
X81888664Y-71142610D01*
X81962995Y-71132868D01*
X82014755Y-71140007D01*
X82064170Y-71161740D01*
X82112720Y-71200082D01*
X82161198Y-71258897D01*
X82203057Y-71331645D01*
X82277061Y-71489432D01*
X82428461Y-71834730D01*
X82479816Y-71780330D01*
X82516388Y-71715845D01*
X82538044Y-71642794D01*
X82545697Y-71556018D01*
X82539002Y-71465921D01*
X82520056Y-71389127D01*
X82489918Y-71323377D01*
X82450546Y-71240936D01*
X82440184Y-71187090D01*
X82447312Y-71138299D01*
X82466117Y-71106855D01*
X82496391Y-71087721D01*
X82542583Y-71080569D01*
X82593556Y-71089655D01*
G37*
G36*
X82593556Y-69915823D02*
G01*
X82640933Y-69943838D01*
X82686684Y-69995167D01*
X82731078Y-70077830D01*
X82764766Y-70175075D01*
X82785049Y-70276216D01*
X82791894Y-70382187D01*
X82783827Y-70504675D01*
X82760910Y-70610665D01*
X82724460Y-70702684D01*
X82674932Y-70782807D01*
X82619022Y-70844751D01*
X82555868Y-70892218D01*
X82484523Y-70926423D01*
X82403439Y-70947605D01*
X82310583Y-70954998D01*
X82181769Y-70945902D01*
X82067026Y-70919693D01*
X81964161Y-70877301D01*
X81871404Y-70818710D01*
X81798983Y-70753018D01*
X81743965Y-70680483D01*
X81704699Y-70600207D01*
X81680620Y-70510671D01*
X81672293Y-70409939D01*
X81918482Y-70409939D01*
X81925628Y-70470967D01*
X81946483Y-70524684D01*
X81981496Y-70572880D01*
X82027167Y-70612619D01*
X82088986Y-70648981D01*
X82170540Y-70681415D01*
X82071988Y-70450881D01*
X82009054Y-70320521D01*
X81957133Y-70230604D01*
X81936643Y-70277926D01*
X81923322Y-70336841D01*
X81918482Y-70409939D01*
X81672293Y-70409939D01*
X81672285Y-70409848D01*
X81679323Y-70291922D01*
X81698876Y-70194327D01*
X81729163Y-70113734D01*
X81773831Y-70043878D01*
X81826610Y-69996828D01*
X81888664Y-69968779D01*
X81962995Y-69959036D01*
X82014755Y-69966176D01*
X82064170Y-69987908D01*
X82112720Y-70026251D01*
X82161198Y-70085066D01*
X82203057Y-70157814D01*
X82277061Y-70315601D01*
X82428461Y-70660899D01*
X82479816Y-70606499D01*
X82516388Y-70542014D01*
X82538044Y-70468963D01*
X82545697Y-70382187D01*
X82539002Y-70292090D01*
X82520056Y-70215296D01*
X82489918Y-70149546D01*
X82450546Y-70067105D01*
X82440184Y-70013258D01*
X82447312Y-69964467D01*
X82466117Y-69933024D01*
X82496391Y-69913890D01*
X82542583Y-69906738D01*
X82593556Y-69915823D01*
G37*
G36*
X81919214Y-69001452D02*
G01*
X81917749Y-69052193D01*
X81916192Y-69102843D01*
X81924344Y-69200204D01*
X82465280Y-69181703D01*
X82514923Y-69180696D01*
X82573816Y-69179688D01*
X82671364Y-69187854D01*
X82736049Y-69208685D01*
X82777244Y-69238680D01*
X82801112Y-69277537D01*
X82809480Y-69328249D01*
X82800677Y-69381036D01*
X82774675Y-69425610D01*
X82747549Y-69450973D01*
X82717224Y-69465682D01*
X82682443Y-69470673D01*
X82571801Y-69467650D01*
X82461067Y-69464536D01*
X81930205Y-69483038D01*
X81913261Y-69675104D01*
X81898592Y-69734126D01*
X81872266Y-69772390D01*
X81834270Y-69795345D01*
X81780454Y-69803698D01*
X81727200Y-69793896D01*
X81683001Y-69764772D01*
X81653233Y-69720837D01*
X81642976Y-69664388D01*
X81654699Y-69490182D01*
X81547080Y-69495311D01*
X81446605Y-69499433D01*
X81394574Y-69488922D01*
X81352266Y-69457484D01*
X81324229Y-69411436D01*
X81314713Y-69356001D01*
X81323500Y-69304981D01*
X81348804Y-69265462D01*
X81393076Y-69234555D01*
X81463440Y-69212873D01*
X81570436Y-69204326D01*
X81654699Y-69206341D01*
X81642976Y-69102843D01*
X81647800Y-68994369D01*
X81658363Y-68942009D01*
X81684781Y-68896621D01*
X81724787Y-68869797D01*
X81783110Y-68860035D01*
X81836876Y-68870156D01*
X81880380Y-68900061D01*
X81909258Y-68944733D01*
X81919214Y-69001452D01*
G37*
G36*
X82440184Y-68592131D02*
G01*
X82430972Y-68645186D01*
X82404281Y-68687020D01*
X82364036Y-68714928D01*
X82313972Y-68724389D01*
X82194446Y-68726953D01*
X82074828Y-68729518D01*
X81650028Y-68726953D01*
X81225046Y-68724389D01*
X81175009Y-68714830D01*
X81134279Y-68686470D01*
X81107104Y-68644351D01*
X81097826Y-68592131D01*
X81107100Y-68539990D01*
X81134279Y-68497884D01*
X81175009Y-68469524D01*
X81225046Y-68459965D01*
X82313972Y-68459965D01*
X82364029Y-68469446D01*
X82404281Y-68497426D01*
X82430973Y-68539171D01*
X82440184Y-68592131D01*
G37*
G36*
X82815341Y-68595245D02*
G01*
X82808725Y-68633362D01*
X82787911Y-68671129D01*
X82749396Y-68710009D01*
X82687831Y-68747347D01*
X82636189Y-68758186D01*
X82587188Y-68747784D01*
X82546613Y-68716237D01*
X82519460Y-68671147D01*
X82510526Y-68620891D01*
X82517169Y-68582764D01*
X82537999Y-68545330D01*
X82576472Y-68507135D01*
X82637908Y-68469736D01*
X82688671Y-68458958D01*
X82736962Y-68469172D01*
X82778247Y-68500449D01*
X82806170Y-68545154D01*
X82815341Y-68595245D01*
G37*
D11*
X66238095Y-86204819D02*
X66238095Y-87014342D01*
X66238095Y-87014342D02*
X66285714Y-87109580D01*
X66285714Y-87109580D02*
X66333333Y-87157200D01*
X66333333Y-87157200D02*
X66428571Y-87204819D01*
X66428571Y-87204819D02*
X66619047Y-87204819D01*
X66619047Y-87204819D02*
X66714285Y-87157200D01*
X66714285Y-87157200D02*
X66761904Y-87109580D01*
X66761904Y-87109580D02*
X66809523Y-87014342D01*
X66809523Y-87014342D02*
X66809523Y-86204819D01*
X67190476Y-86204819D02*
X67809523Y-86204819D01*
X67809523Y-86204819D02*
X67476190Y-86585771D01*
X67476190Y-86585771D02*
X67619047Y-86585771D01*
X67619047Y-86585771D02*
X67714285Y-86633390D01*
X67714285Y-86633390D02*
X67761904Y-86681009D01*
X67761904Y-86681009D02*
X67809523Y-86776247D01*
X67809523Y-86776247D02*
X67809523Y-87014342D01*
X67809523Y-87014342D02*
X67761904Y-87109580D01*
X67761904Y-87109580D02*
X67714285Y-87157200D01*
X67714285Y-87157200D02*
X67619047Y-87204819D01*
X67619047Y-87204819D02*
X67333333Y-87204819D01*
X67333333Y-87204819D02*
X67238095Y-87157200D01*
X67238095Y-87157200D02*
X67190476Y-87109580D01*
X67333333Y-92459580D02*
X67285714Y-92507200D01*
X67285714Y-92507200D02*
X67142857Y-92554819D01*
X67142857Y-92554819D02*
X67047619Y-92554819D01*
X67047619Y-92554819D02*
X66904762Y-92507200D01*
X66904762Y-92507200D02*
X66809524Y-92411961D01*
X66809524Y-92411961D02*
X66761905Y-92316723D01*
X66761905Y-92316723D02*
X66714286Y-92126247D01*
X66714286Y-92126247D02*
X66714286Y-91983390D01*
X66714286Y-91983390D02*
X66761905Y-91792914D01*
X66761905Y-91792914D02*
X66809524Y-91697676D01*
X66809524Y-91697676D02*
X66904762Y-91602438D01*
X66904762Y-91602438D02*
X67047619Y-91554819D01*
X67047619Y-91554819D02*
X67142857Y-91554819D01*
X67142857Y-91554819D02*
X67285714Y-91602438D01*
X67285714Y-91602438D02*
X67333333Y-91650057D01*
X68238095Y-91554819D02*
X67761905Y-91554819D01*
X67761905Y-91554819D02*
X67714286Y-92031009D01*
X67714286Y-92031009D02*
X67761905Y-91983390D01*
X67761905Y-91983390D02*
X67857143Y-91935771D01*
X67857143Y-91935771D02*
X68095238Y-91935771D01*
X68095238Y-91935771D02*
X68190476Y-91983390D01*
X68190476Y-91983390D02*
X68238095Y-92031009D01*
X68238095Y-92031009D02*
X68285714Y-92126247D01*
X68285714Y-92126247D02*
X68285714Y-92364342D01*
X68285714Y-92364342D02*
X68238095Y-92459580D01*
X68238095Y-92459580D02*
X68190476Y-92507200D01*
X68190476Y-92507200D02*
X68095238Y-92554819D01*
X68095238Y-92554819D02*
X67857143Y-92554819D01*
X67857143Y-92554819D02*
X67761905Y-92507200D01*
X67761905Y-92507200D02*
X67714286Y-92459580D01*
X53166666Y-95844819D02*
X53166666Y-96559104D01*
X53166666Y-96559104D02*
X53119047Y-96701961D01*
X53119047Y-96701961D02*
X53023809Y-96797200D01*
X53023809Y-96797200D02*
X52880952Y-96844819D01*
X52880952Y-96844819D02*
X52785714Y-96844819D01*
X54071428Y-96178152D02*
X54071428Y-96844819D01*
X53833333Y-95797200D02*
X53595238Y-96511485D01*
X53595238Y-96511485D02*
X54214285Y-96511485D01*
X53166666Y-87844819D02*
X53166666Y-88559104D01*
X53166666Y-88559104D02*
X53119047Y-88701961D01*
X53119047Y-88701961D02*
X53023809Y-88797200D01*
X53023809Y-88797200D02*
X52880952Y-88844819D01*
X52880952Y-88844819D02*
X52785714Y-88844819D01*
X53547619Y-87844819D02*
X54166666Y-87844819D01*
X54166666Y-87844819D02*
X53833333Y-88225771D01*
X53833333Y-88225771D02*
X53976190Y-88225771D01*
X53976190Y-88225771D02*
X54071428Y-88273390D01*
X54071428Y-88273390D02*
X54119047Y-88321009D01*
X54119047Y-88321009D02*
X54166666Y-88416247D01*
X54166666Y-88416247D02*
X54166666Y-88654342D01*
X54166666Y-88654342D02*
X54119047Y-88749580D01*
X54119047Y-88749580D02*
X54071428Y-88797200D01*
X54071428Y-88797200D02*
X53976190Y-88844819D01*
X53976190Y-88844819D02*
X53690476Y-88844819D01*
X53690476Y-88844819D02*
X53595238Y-88797200D01*
X53595238Y-88797200D02*
X53547619Y-88749580D01*
X53166666Y-91844819D02*
X53166666Y-92559104D01*
X53166666Y-92559104D02*
X53119047Y-92701961D01*
X53119047Y-92701961D02*
X53023809Y-92797200D01*
X53023809Y-92797200D02*
X52880952Y-92844819D01*
X52880952Y-92844819D02*
X52785714Y-92844819D01*
X53595238Y-91940057D02*
X53642857Y-91892438D01*
X53642857Y-91892438D02*
X53738095Y-91844819D01*
X53738095Y-91844819D02*
X53976190Y-91844819D01*
X53976190Y-91844819D02*
X54071428Y-91892438D01*
X54071428Y-91892438D02*
X54119047Y-91940057D01*
X54119047Y-91940057D02*
X54166666Y-92035295D01*
X54166666Y-92035295D02*
X54166666Y-92130533D01*
X54166666Y-92130533D02*
X54119047Y-92273390D01*
X54119047Y-92273390D02*
X53547619Y-92844819D01*
X53547619Y-92844819D02*
X54166666Y-92844819D01*
X55166666Y-83064819D02*
X55166666Y-83779104D01*
X55166666Y-83779104D02*
X55119047Y-83921961D01*
X55119047Y-83921961D02*
X55023809Y-84017200D01*
X55023809Y-84017200D02*
X54880952Y-84064819D01*
X54880952Y-84064819D02*
X54785714Y-84064819D01*
X56166666Y-84064819D02*
X55595238Y-84064819D01*
X55880952Y-84064819D02*
X55880952Y-83064819D01*
X55880952Y-83064819D02*
X55785714Y-83207676D01*
X55785714Y-83207676D02*
X55690476Y-83302914D01*
X55690476Y-83302914D02*
X55595238Y-83350533D01*
X58738095Y-86504819D02*
X58738095Y-87314342D01*
X58738095Y-87314342D02*
X58785714Y-87409580D01*
X58785714Y-87409580D02*
X58833333Y-87457200D01*
X58833333Y-87457200D02*
X58928571Y-87504819D01*
X58928571Y-87504819D02*
X59119047Y-87504819D01*
X59119047Y-87504819D02*
X59214285Y-87457200D01*
X59214285Y-87457200D02*
X59261904Y-87409580D01*
X59261904Y-87409580D02*
X59309523Y-87314342D01*
X59309523Y-87314342D02*
X59309523Y-86504819D01*
X59738095Y-86600057D02*
X59785714Y-86552438D01*
X59785714Y-86552438D02*
X59880952Y-86504819D01*
X59880952Y-86504819D02*
X60119047Y-86504819D01*
X60119047Y-86504819D02*
X60214285Y-86552438D01*
X60214285Y-86552438D02*
X60261904Y-86600057D01*
X60261904Y-86600057D02*
X60309523Y-86695295D01*
X60309523Y-86695295D02*
X60309523Y-86790533D01*
X60309523Y-86790533D02*
X60261904Y-86933390D01*
X60261904Y-86933390D02*
X59690476Y-87504819D01*
X59690476Y-87504819D02*
X60309523Y-87504819D01*
X78738095Y-93954819D02*
X78738095Y-94764342D01*
X78738095Y-94764342D02*
X78785714Y-94859580D01*
X78785714Y-94859580D02*
X78833333Y-94907200D01*
X78833333Y-94907200D02*
X78928571Y-94954819D01*
X78928571Y-94954819D02*
X79119047Y-94954819D01*
X79119047Y-94954819D02*
X79214285Y-94907200D01*
X79214285Y-94907200D02*
X79261904Y-94859580D01*
X79261904Y-94859580D02*
X79309523Y-94764342D01*
X79309523Y-94764342D02*
X79309523Y-93954819D01*
X80214285Y-93954819D02*
X80023809Y-93954819D01*
X80023809Y-93954819D02*
X79928571Y-94002438D01*
X79928571Y-94002438D02*
X79880952Y-94050057D01*
X79880952Y-94050057D02*
X79785714Y-94192914D01*
X79785714Y-94192914D02*
X79738095Y-94383390D01*
X79738095Y-94383390D02*
X79738095Y-94764342D01*
X79738095Y-94764342D02*
X79785714Y-94859580D01*
X79785714Y-94859580D02*
X79833333Y-94907200D01*
X79833333Y-94907200D02*
X79928571Y-94954819D01*
X79928571Y-94954819D02*
X80119047Y-94954819D01*
X80119047Y-94954819D02*
X80214285Y-94907200D01*
X80214285Y-94907200D02*
X80261904Y-94859580D01*
X80261904Y-94859580D02*
X80309523Y-94764342D01*
X80309523Y-94764342D02*
X80309523Y-94526247D01*
X80309523Y-94526247D02*
X80261904Y-94431009D01*
X80261904Y-94431009D02*
X80214285Y-94383390D01*
X80214285Y-94383390D02*
X80119047Y-94335771D01*
X80119047Y-94335771D02*
X79928571Y-94335771D01*
X79928571Y-94335771D02*
X79833333Y-94383390D01*
X79833333Y-94383390D02*
X79785714Y-94431009D01*
X79785714Y-94431009D02*
X79738095Y-94526247D01*
X80238095Y-91262419D02*
X80238095Y-92071942D01*
X80238095Y-92071942D02*
X80285714Y-92167180D01*
X80285714Y-92167180D02*
X80333333Y-92214800D01*
X80333333Y-92214800D02*
X80428571Y-92262419D01*
X80428571Y-92262419D02*
X80619047Y-92262419D01*
X80619047Y-92262419D02*
X80714285Y-92214800D01*
X80714285Y-92214800D02*
X80761904Y-92167180D01*
X80761904Y-92167180D02*
X80809523Y-92071942D01*
X80809523Y-92071942D02*
X80809523Y-91262419D01*
X81714285Y-91262419D02*
X81523809Y-91262419D01*
X81523809Y-91262419D02*
X81428571Y-91310038D01*
X81428571Y-91310038D02*
X81380952Y-91357657D01*
X81380952Y-91357657D02*
X81285714Y-91500514D01*
X81285714Y-91500514D02*
X81238095Y-91690990D01*
X81238095Y-91690990D02*
X81238095Y-92071942D01*
X81238095Y-92071942D02*
X81285714Y-92167180D01*
X81285714Y-92167180D02*
X81333333Y-92214800D01*
X81333333Y-92214800D02*
X81428571Y-92262419D01*
X81428571Y-92262419D02*
X81619047Y-92262419D01*
X81619047Y-92262419D02*
X81714285Y-92214800D01*
X81714285Y-92214800D02*
X81761904Y-92167180D01*
X81761904Y-92167180D02*
X81809523Y-92071942D01*
X81809523Y-92071942D02*
X81809523Y-91833847D01*
X81809523Y-91833847D02*
X81761904Y-91738609D01*
X81761904Y-91738609D02*
X81714285Y-91690990D01*
X81714285Y-91690990D02*
X81619047Y-91643371D01*
X81619047Y-91643371D02*
X81428571Y-91643371D01*
X81428571Y-91643371D02*
X81333333Y-91690990D01*
X81333333Y-91690990D02*
X81285714Y-91738609D01*
X81285714Y-91738609D02*
X81238095Y-91833847D01*
X75738095Y-91454819D02*
X75738095Y-92264342D01*
X75738095Y-92264342D02*
X75785714Y-92359580D01*
X75785714Y-92359580D02*
X75833333Y-92407200D01*
X75833333Y-92407200D02*
X75928571Y-92454819D01*
X75928571Y-92454819D02*
X76119047Y-92454819D01*
X76119047Y-92454819D02*
X76214285Y-92407200D01*
X76214285Y-92407200D02*
X76261904Y-92359580D01*
X76261904Y-92359580D02*
X76309523Y-92264342D01*
X76309523Y-92264342D02*
X76309523Y-91454819D01*
X77261904Y-91454819D02*
X76785714Y-91454819D01*
X76785714Y-91454819D02*
X76738095Y-91931009D01*
X76738095Y-91931009D02*
X76785714Y-91883390D01*
X76785714Y-91883390D02*
X76880952Y-91835771D01*
X76880952Y-91835771D02*
X77119047Y-91835771D01*
X77119047Y-91835771D02*
X77214285Y-91883390D01*
X77214285Y-91883390D02*
X77261904Y-91931009D01*
X77261904Y-91931009D02*
X77309523Y-92026247D01*
X77309523Y-92026247D02*
X77309523Y-92264342D01*
X77309523Y-92264342D02*
X77261904Y-92359580D01*
X77261904Y-92359580D02*
X77214285Y-92407200D01*
X77214285Y-92407200D02*
X77119047Y-92454819D01*
X77119047Y-92454819D02*
X76880952Y-92454819D01*
X76880952Y-92454819D02*
X76785714Y-92407200D01*
X76785714Y-92407200D02*
X76738095Y-92359580D01*
X61238095Y-97954819D02*
X61238095Y-98764342D01*
X61238095Y-98764342D02*
X61285714Y-98859580D01*
X61285714Y-98859580D02*
X61333333Y-98907200D01*
X61333333Y-98907200D02*
X61428571Y-98954819D01*
X61428571Y-98954819D02*
X61619047Y-98954819D01*
X61619047Y-98954819D02*
X61714285Y-98907200D01*
X61714285Y-98907200D02*
X61761904Y-98859580D01*
X61761904Y-98859580D02*
X61809523Y-98764342D01*
X61809523Y-98764342D02*
X61809523Y-97954819D01*
X62714285Y-98288152D02*
X62714285Y-98954819D01*
X62476190Y-97907200D02*
X62238095Y-98621485D01*
X62238095Y-98621485D02*
X62857142Y-98621485D01*
D12*
X66141950Y-76943891D02*
X66141950Y-77577198D01*
X66141950Y-77577198D02*
X66179204Y-77651704D01*
X66179204Y-77651704D02*
X66216457Y-77688958D01*
X66216457Y-77688958D02*
X66290964Y-77726211D01*
X66290964Y-77726211D02*
X66439977Y-77726211D01*
X66439977Y-77726211D02*
X66514484Y-77688958D01*
X66514484Y-77688958D02*
X66551737Y-77651704D01*
X66551737Y-77651704D02*
X66588990Y-77577198D01*
X66588990Y-77577198D02*
X66588990Y-76943891D01*
X67371310Y-77726211D02*
X66924270Y-77726211D01*
X67147790Y-77726211D02*
X67147790Y-76943891D01*
X67147790Y-76943891D02*
X67073283Y-77055651D01*
X67073283Y-77055651D02*
X66998777Y-77130158D01*
X66998777Y-77130158D02*
X66924270Y-77167411D01*
D13*
X63282549Y-81440566D02*
X63413977Y-81484375D01*
X63413977Y-81484375D02*
X63633025Y-81484375D01*
X63633025Y-81484375D02*
X63720644Y-81440566D01*
X63720644Y-81440566D02*
X63764453Y-81396756D01*
X63764453Y-81396756D02*
X63808263Y-81309137D01*
X63808263Y-81309137D02*
X63808263Y-81221518D01*
X63808263Y-81221518D02*
X63764453Y-81133899D01*
X63764453Y-81133899D02*
X63720644Y-81090089D01*
X63720644Y-81090089D02*
X63633025Y-81046280D01*
X63633025Y-81046280D02*
X63457787Y-81002470D01*
X63457787Y-81002470D02*
X63370168Y-80958661D01*
X63370168Y-80958661D02*
X63326358Y-80914851D01*
X63326358Y-80914851D02*
X63282549Y-80827232D01*
X63282549Y-80827232D02*
X63282549Y-80739613D01*
X63282549Y-80739613D02*
X63326358Y-80651994D01*
X63326358Y-80651994D02*
X63370168Y-80608185D01*
X63370168Y-80608185D02*
X63457787Y-80564375D01*
X63457787Y-80564375D02*
X63676834Y-80564375D01*
X63676834Y-80564375D02*
X63808263Y-80608185D01*
X64553024Y-81440566D02*
X64465405Y-81484375D01*
X64465405Y-81484375D02*
X64290167Y-81484375D01*
X64290167Y-81484375D02*
X64202548Y-81440566D01*
X64202548Y-81440566D02*
X64158739Y-81352946D01*
X64158739Y-81352946D02*
X64158739Y-81002470D01*
X64158739Y-81002470D02*
X64202548Y-80914851D01*
X64202548Y-80914851D02*
X64290167Y-80871042D01*
X64290167Y-80871042D02*
X64465405Y-80871042D01*
X64465405Y-80871042D02*
X64553024Y-80914851D01*
X64553024Y-80914851D02*
X64596834Y-81002470D01*
X64596834Y-81002470D02*
X64596834Y-81090089D01*
X64596834Y-81090089D02*
X64158739Y-81177708D01*
X65341595Y-81440566D02*
X65253976Y-81484375D01*
X65253976Y-81484375D02*
X65078738Y-81484375D01*
X65078738Y-81484375D02*
X64991119Y-81440566D01*
X64991119Y-81440566D02*
X64947310Y-81352946D01*
X64947310Y-81352946D02*
X64947310Y-81002470D01*
X64947310Y-81002470D02*
X64991119Y-80914851D01*
X64991119Y-80914851D02*
X65078738Y-80871042D01*
X65078738Y-80871042D02*
X65253976Y-80871042D01*
X65253976Y-80871042D02*
X65341595Y-80914851D01*
X65341595Y-80914851D02*
X65385405Y-81002470D01*
X65385405Y-81002470D02*
X65385405Y-81090089D01*
X65385405Y-81090089D02*
X64947310Y-81177708D01*
X66130166Y-81440566D02*
X66042547Y-81484375D01*
X66042547Y-81484375D02*
X65867309Y-81484375D01*
X65867309Y-81484375D02*
X65779690Y-81440566D01*
X65779690Y-81440566D02*
X65735881Y-81352946D01*
X65735881Y-81352946D02*
X65735881Y-81002470D01*
X65735881Y-81002470D02*
X65779690Y-80914851D01*
X65779690Y-80914851D02*
X65867309Y-80871042D01*
X65867309Y-80871042D02*
X66042547Y-80871042D01*
X66042547Y-80871042D02*
X66130166Y-80914851D01*
X66130166Y-80914851D02*
X66173976Y-81002470D01*
X66173976Y-81002470D02*
X66173976Y-81090089D01*
X66173976Y-81090089D02*
X65735881Y-81177708D01*
X66962547Y-81484375D02*
X66962547Y-80564375D01*
X66962547Y-81440566D02*
X66874928Y-81484375D01*
X66874928Y-81484375D02*
X66699690Y-81484375D01*
X66699690Y-81484375D02*
X66612071Y-81440566D01*
X66612071Y-81440566D02*
X66568261Y-81396756D01*
X66568261Y-81396756D02*
X66524452Y-81309137D01*
X66524452Y-81309137D02*
X66524452Y-81046280D01*
X66524452Y-81046280D02*
X66568261Y-80958661D01*
X66568261Y-80958661D02*
X66612071Y-80914851D01*
X66612071Y-80914851D02*
X66699690Y-80871042D01*
X66699690Y-80871042D02*
X66874928Y-80871042D01*
X66874928Y-80871042D02*
X66962547Y-80914851D01*
X68057785Y-81440566D02*
X68189213Y-81484375D01*
X68189213Y-81484375D02*
X68408261Y-81484375D01*
X68408261Y-81484375D02*
X68495880Y-81440566D01*
X68495880Y-81440566D02*
X68539689Y-81396756D01*
X68539689Y-81396756D02*
X68583499Y-81309137D01*
X68583499Y-81309137D02*
X68583499Y-81221518D01*
X68583499Y-81221518D02*
X68539689Y-81133899D01*
X68539689Y-81133899D02*
X68495880Y-81090089D01*
X68495880Y-81090089D02*
X68408261Y-81046280D01*
X68408261Y-81046280D02*
X68233023Y-81002470D01*
X68233023Y-81002470D02*
X68145404Y-80958661D01*
X68145404Y-80958661D02*
X68101594Y-80914851D01*
X68101594Y-80914851D02*
X68057785Y-80827232D01*
X68057785Y-80827232D02*
X68057785Y-80739613D01*
X68057785Y-80739613D02*
X68101594Y-80651994D01*
X68101594Y-80651994D02*
X68145404Y-80608185D01*
X68145404Y-80608185D02*
X68233023Y-80564375D01*
X68233023Y-80564375D02*
X68452070Y-80564375D01*
X68452070Y-80564375D02*
X68583499Y-80608185D01*
X68846356Y-80871042D02*
X69196832Y-80871042D01*
X68977784Y-80564375D02*
X68977784Y-81352946D01*
X68977784Y-81352946D02*
X69021594Y-81440566D01*
X69021594Y-81440566D02*
X69109213Y-81484375D01*
X69109213Y-81484375D02*
X69196832Y-81484375D01*
X69897784Y-80871042D02*
X69897784Y-81484375D01*
X69503498Y-80871042D02*
X69503498Y-81352946D01*
X69503498Y-81352946D02*
X69547308Y-81440566D01*
X69547308Y-81440566D02*
X69634927Y-81484375D01*
X69634927Y-81484375D02*
X69766355Y-81484375D01*
X69766355Y-81484375D02*
X69853974Y-81440566D01*
X69853974Y-81440566D02*
X69897784Y-81396756D01*
X70730165Y-81484375D02*
X70730165Y-80564375D01*
X70730165Y-81440566D02*
X70642546Y-81484375D01*
X70642546Y-81484375D02*
X70467308Y-81484375D01*
X70467308Y-81484375D02*
X70379689Y-81440566D01*
X70379689Y-81440566D02*
X70335879Y-81396756D01*
X70335879Y-81396756D02*
X70292070Y-81309137D01*
X70292070Y-81309137D02*
X70292070Y-81046280D01*
X70292070Y-81046280D02*
X70335879Y-80958661D01*
X70335879Y-80958661D02*
X70379689Y-80914851D01*
X70379689Y-80914851D02*
X70467308Y-80871042D01*
X70467308Y-80871042D02*
X70642546Y-80871042D01*
X70642546Y-80871042D02*
X70730165Y-80914851D01*
X71168260Y-81484375D02*
X71168260Y-80871042D01*
X71168260Y-80564375D02*
X71124451Y-80608185D01*
X71124451Y-80608185D02*
X71168260Y-80651994D01*
X71168260Y-80651994D02*
X71212070Y-80608185D01*
X71212070Y-80608185D02*
X71168260Y-80564375D01*
X71168260Y-80564375D02*
X71168260Y-80651994D01*
X71737784Y-81484375D02*
X71650165Y-81440566D01*
X71650165Y-81440566D02*
X71606355Y-81396756D01*
X71606355Y-81396756D02*
X71562546Y-81309137D01*
X71562546Y-81309137D02*
X71562546Y-81046280D01*
X71562546Y-81046280D02*
X71606355Y-80958661D01*
X71606355Y-80958661D02*
X71650165Y-80914851D01*
X71650165Y-80914851D02*
X71737784Y-80871042D01*
X71737784Y-80871042D02*
X71869212Y-80871042D01*
X71869212Y-80871042D02*
X71956831Y-80914851D01*
X71956831Y-80914851D02*
X72000641Y-80958661D01*
X72000641Y-80958661D02*
X72044450Y-81046280D01*
X72044450Y-81046280D02*
X72044450Y-81309137D01*
X72044450Y-81309137D02*
X72000641Y-81396756D01*
X72000641Y-81396756D02*
X71956831Y-81440566D01*
X71956831Y-81440566D02*
X71869212Y-81484375D01*
X71869212Y-81484375D02*
X71737784Y-81484375D01*
X66261595Y-82045523D02*
X66874928Y-82965523D01*
X66874928Y-82045523D02*
X66261595Y-82965523D01*
X67225404Y-82965523D02*
X67225404Y-82045523D01*
X67619690Y-82702666D02*
X68057785Y-82702666D01*
X67532071Y-82965523D02*
X67838737Y-82045523D01*
X67838737Y-82045523D02*
X68145404Y-82965523D01*
X68627308Y-82045523D02*
X68802546Y-82045523D01*
X68802546Y-82045523D02*
X68890165Y-82089333D01*
X68890165Y-82089333D02*
X68977784Y-82176952D01*
X68977784Y-82176952D02*
X69021594Y-82352190D01*
X69021594Y-82352190D02*
X69021594Y-82658856D01*
X69021594Y-82658856D02*
X68977784Y-82834094D01*
X68977784Y-82834094D02*
X68890165Y-82921714D01*
X68890165Y-82921714D02*
X68802546Y-82965523D01*
X68802546Y-82965523D02*
X68627308Y-82965523D01*
X68627308Y-82965523D02*
X68539689Y-82921714D01*
X68539689Y-82921714D02*
X68452070Y-82834094D01*
X68452070Y-82834094D02*
X68408261Y-82658856D01*
X68408261Y-82658856D02*
X68408261Y-82352190D01*
X68408261Y-82352190D02*
X68452070Y-82176952D01*
X68452070Y-82176952D02*
X68539689Y-82089333D01*
X68539689Y-82089333D02*
X68627308Y-82045523D01*
D11*
X71508333Y-92954819D02*
X71175000Y-92478628D01*
X70936905Y-92954819D02*
X70936905Y-91954819D01*
X70936905Y-91954819D02*
X71317857Y-91954819D01*
X71317857Y-91954819D02*
X71413095Y-92002438D01*
X71413095Y-92002438D02*
X71460714Y-92050057D01*
X71460714Y-92050057D02*
X71508333Y-92145295D01*
X71508333Y-92145295D02*
X71508333Y-92288152D01*
X71508333Y-92288152D02*
X71460714Y-92383390D01*
X71460714Y-92383390D02*
X71413095Y-92431009D01*
X71413095Y-92431009D02*
X71317857Y-92478628D01*
X71317857Y-92478628D02*
X70936905Y-92478628D01*
X71841667Y-91954819D02*
X72508333Y-91954819D01*
X72508333Y-91954819D02*
X72079762Y-92954819D01*
X70333333Y-95524819D02*
X70000000Y-95048628D01*
X69761905Y-95524819D02*
X69761905Y-94524819D01*
X69761905Y-94524819D02*
X70142857Y-94524819D01*
X70142857Y-94524819D02*
X70238095Y-94572438D01*
X70238095Y-94572438D02*
X70285714Y-94620057D01*
X70285714Y-94620057D02*
X70333333Y-94715295D01*
X70333333Y-94715295D02*
X70333333Y-94858152D01*
X70333333Y-94858152D02*
X70285714Y-94953390D01*
X70285714Y-94953390D02*
X70238095Y-95001009D01*
X70238095Y-95001009D02*
X70142857Y-95048628D01*
X70142857Y-95048628D02*
X69761905Y-95048628D01*
X71190476Y-94524819D02*
X71000000Y-94524819D01*
X71000000Y-94524819D02*
X70904762Y-94572438D01*
X70904762Y-94572438D02*
X70857143Y-94620057D01*
X70857143Y-94620057D02*
X70761905Y-94762914D01*
X70761905Y-94762914D02*
X70714286Y-94953390D01*
X70714286Y-94953390D02*
X70714286Y-95334342D01*
X70714286Y-95334342D02*
X70761905Y-95429580D01*
X70761905Y-95429580D02*
X70809524Y-95477200D01*
X70809524Y-95477200D02*
X70904762Y-95524819D01*
X70904762Y-95524819D02*
X71095238Y-95524819D01*
X71095238Y-95524819D02*
X71190476Y-95477200D01*
X71190476Y-95477200D02*
X71238095Y-95429580D01*
X71238095Y-95429580D02*
X71285714Y-95334342D01*
X71285714Y-95334342D02*
X71285714Y-95096247D01*
X71285714Y-95096247D02*
X71238095Y-95001009D01*
X71238095Y-95001009D02*
X71190476Y-94953390D01*
X71190476Y-94953390D02*
X71095238Y-94905771D01*
X71095238Y-94905771D02*
X70904762Y-94905771D01*
X70904762Y-94905771D02*
X70809524Y-94953390D01*
X70809524Y-94953390D02*
X70761905Y-95001009D01*
X70761905Y-95001009D02*
X70714286Y-95096247D01*
X72008333Y-98954819D02*
X71675000Y-98478628D01*
X71436905Y-98954819D02*
X71436905Y-97954819D01*
X71436905Y-97954819D02*
X71817857Y-97954819D01*
X71817857Y-97954819D02*
X71913095Y-98002438D01*
X71913095Y-98002438D02*
X71960714Y-98050057D01*
X71960714Y-98050057D02*
X72008333Y-98145295D01*
X72008333Y-98145295D02*
X72008333Y-98288152D01*
X72008333Y-98288152D02*
X71960714Y-98383390D01*
X71960714Y-98383390D02*
X71913095Y-98431009D01*
X71913095Y-98431009D02*
X71817857Y-98478628D01*
X71817857Y-98478628D02*
X71436905Y-98478628D01*
X72913095Y-97954819D02*
X72436905Y-97954819D01*
X72436905Y-97954819D02*
X72389286Y-98431009D01*
X72389286Y-98431009D02*
X72436905Y-98383390D01*
X72436905Y-98383390D02*
X72532143Y-98335771D01*
X72532143Y-98335771D02*
X72770238Y-98335771D01*
X72770238Y-98335771D02*
X72865476Y-98383390D01*
X72865476Y-98383390D02*
X72913095Y-98431009D01*
X72913095Y-98431009D02*
X72960714Y-98526247D01*
X72960714Y-98526247D02*
X72960714Y-98764342D01*
X72960714Y-98764342D02*
X72913095Y-98859580D01*
X72913095Y-98859580D02*
X72865476Y-98907200D01*
X72865476Y-98907200D02*
X72770238Y-98954819D01*
X72770238Y-98954819D02*
X72532143Y-98954819D01*
X72532143Y-98954819D02*
X72436905Y-98907200D01*
X72436905Y-98907200D02*
X72389286Y-98859580D01*
X56658333Y-98954819D02*
X56325000Y-98478628D01*
X56086905Y-98954819D02*
X56086905Y-97954819D01*
X56086905Y-97954819D02*
X56467857Y-97954819D01*
X56467857Y-97954819D02*
X56563095Y-98002438D01*
X56563095Y-98002438D02*
X56610714Y-98050057D01*
X56610714Y-98050057D02*
X56658333Y-98145295D01*
X56658333Y-98145295D02*
X56658333Y-98288152D01*
X56658333Y-98288152D02*
X56610714Y-98383390D01*
X56610714Y-98383390D02*
X56563095Y-98431009D01*
X56563095Y-98431009D02*
X56467857Y-98478628D01*
X56467857Y-98478628D02*
X56086905Y-98478628D01*
X57515476Y-98288152D02*
X57515476Y-98954819D01*
X57277381Y-97907200D02*
X57039286Y-98621485D01*
X57039286Y-98621485D02*
X57658333Y-98621485D01*
X59833333Y-93454819D02*
X59500000Y-92978628D01*
X59261905Y-93454819D02*
X59261905Y-92454819D01*
X59261905Y-92454819D02*
X59642857Y-92454819D01*
X59642857Y-92454819D02*
X59738095Y-92502438D01*
X59738095Y-92502438D02*
X59785714Y-92550057D01*
X59785714Y-92550057D02*
X59833333Y-92645295D01*
X59833333Y-92645295D02*
X59833333Y-92788152D01*
X59833333Y-92788152D02*
X59785714Y-92883390D01*
X59785714Y-92883390D02*
X59738095Y-92931009D01*
X59738095Y-92931009D02*
X59642857Y-92978628D01*
X59642857Y-92978628D02*
X59261905Y-92978628D01*
X60166667Y-92454819D02*
X60785714Y-92454819D01*
X60785714Y-92454819D02*
X60452381Y-92835771D01*
X60452381Y-92835771D02*
X60595238Y-92835771D01*
X60595238Y-92835771D02*
X60690476Y-92883390D01*
X60690476Y-92883390D02*
X60738095Y-92931009D01*
X60738095Y-92931009D02*
X60785714Y-93026247D01*
X60785714Y-93026247D02*
X60785714Y-93264342D01*
X60785714Y-93264342D02*
X60738095Y-93359580D01*
X60738095Y-93359580D02*
X60690476Y-93407200D01*
X60690476Y-93407200D02*
X60595238Y-93454819D01*
X60595238Y-93454819D02*
X60309524Y-93454819D01*
X60309524Y-93454819D02*
X60214286Y-93407200D01*
X60214286Y-93407200D02*
X60166667Y-93359580D01*
X56833333Y-92524819D02*
X56500000Y-92048628D01*
X56261905Y-92524819D02*
X56261905Y-91524819D01*
X56261905Y-91524819D02*
X56642857Y-91524819D01*
X56642857Y-91524819D02*
X56738095Y-91572438D01*
X56738095Y-91572438D02*
X56785714Y-91620057D01*
X56785714Y-91620057D02*
X56833333Y-91715295D01*
X56833333Y-91715295D02*
X56833333Y-91858152D01*
X56833333Y-91858152D02*
X56785714Y-91953390D01*
X56785714Y-91953390D02*
X56738095Y-92001009D01*
X56738095Y-92001009D02*
X56642857Y-92048628D01*
X56642857Y-92048628D02*
X56261905Y-92048628D01*
X57214286Y-91620057D02*
X57261905Y-91572438D01*
X57261905Y-91572438D02*
X57357143Y-91524819D01*
X57357143Y-91524819D02*
X57595238Y-91524819D01*
X57595238Y-91524819D02*
X57690476Y-91572438D01*
X57690476Y-91572438D02*
X57738095Y-91620057D01*
X57738095Y-91620057D02*
X57785714Y-91715295D01*
X57785714Y-91715295D02*
X57785714Y-91810533D01*
X57785714Y-91810533D02*
X57738095Y-91953390D01*
X57738095Y-91953390D02*
X57166667Y-92524819D01*
X57166667Y-92524819D02*
X57785714Y-92524819D01*
X56833333Y-95524819D02*
X56500000Y-95048628D01*
X56261905Y-95524819D02*
X56261905Y-94524819D01*
X56261905Y-94524819D02*
X56642857Y-94524819D01*
X56642857Y-94524819D02*
X56738095Y-94572438D01*
X56738095Y-94572438D02*
X56785714Y-94620057D01*
X56785714Y-94620057D02*
X56833333Y-94715295D01*
X56833333Y-94715295D02*
X56833333Y-94858152D01*
X56833333Y-94858152D02*
X56785714Y-94953390D01*
X56785714Y-94953390D02*
X56738095Y-95001009D01*
X56738095Y-95001009D02*
X56642857Y-95048628D01*
X56642857Y-95048628D02*
X56261905Y-95048628D01*
X57785714Y-95524819D02*
X57214286Y-95524819D01*
X57500000Y-95524819D02*
X57500000Y-94524819D01*
X57500000Y-94524819D02*
X57404762Y-94667676D01*
X57404762Y-94667676D02*
X57309524Y-94762914D01*
X57309524Y-94762914D02*
X57214286Y-94810533D01*
X74082142Y-96929580D02*
X74034523Y-96977200D01*
X74034523Y-96977200D02*
X73891666Y-97024819D01*
X73891666Y-97024819D02*
X73796428Y-97024819D01*
X73796428Y-97024819D02*
X73653571Y-96977200D01*
X73653571Y-96977200D02*
X73558333Y-96881961D01*
X73558333Y-96881961D02*
X73510714Y-96786723D01*
X73510714Y-96786723D02*
X73463095Y-96596247D01*
X73463095Y-96596247D02*
X73463095Y-96453390D01*
X73463095Y-96453390D02*
X73510714Y-96262914D01*
X73510714Y-96262914D02*
X73558333Y-96167676D01*
X73558333Y-96167676D02*
X73653571Y-96072438D01*
X73653571Y-96072438D02*
X73796428Y-96024819D01*
X73796428Y-96024819D02*
X73891666Y-96024819D01*
X73891666Y-96024819D02*
X74034523Y-96072438D01*
X74034523Y-96072438D02*
X74082142Y-96120057D01*
X75034523Y-97024819D02*
X74463095Y-97024819D01*
X74748809Y-97024819D02*
X74748809Y-96024819D01*
X74748809Y-96024819D02*
X74653571Y-96167676D01*
X74653571Y-96167676D02*
X74558333Y-96262914D01*
X74558333Y-96262914D02*
X74463095Y-96310533D01*
X75653571Y-96024819D02*
X75748809Y-96024819D01*
X75748809Y-96024819D02*
X75844047Y-96072438D01*
X75844047Y-96072438D02*
X75891666Y-96120057D01*
X75891666Y-96120057D02*
X75939285Y-96215295D01*
X75939285Y-96215295D02*
X75986904Y-96405771D01*
X75986904Y-96405771D02*
X75986904Y-96643866D01*
X75986904Y-96643866D02*
X75939285Y-96834342D01*
X75939285Y-96834342D02*
X75891666Y-96929580D01*
X75891666Y-96929580D02*
X75844047Y-96977200D01*
X75844047Y-96977200D02*
X75748809Y-97024819D01*
X75748809Y-97024819D02*
X75653571Y-97024819D01*
X75653571Y-97024819D02*
X75558333Y-96977200D01*
X75558333Y-96977200D02*
X75510714Y-96929580D01*
X75510714Y-96929580D02*
X75463095Y-96834342D01*
X75463095Y-96834342D02*
X75415476Y-96643866D01*
X75415476Y-96643866D02*
X75415476Y-96405771D01*
X75415476Y-96405771D02*
X75463095Y-96215295D01*
X75463095Y-96215295D02*
X75510714Y-96120057D01*
X75510714Y-96120057D02*
X75558333Y-96072438D01*
X75558333Y-96072438D02*
X75653571Y-96024819D01*
X77833333Y-96929580D02*
X77785714Y-96977200D01*
X77785714Y-96977200D02*
X77642857Y-97024819D01*
X77642857Y-97024819D02*
X77547619Y-97024819D01*
X77547619Y-97024819D02*
X77404762Y-96977200D01*
X77404762Y-96977200D02*
X77309524Y-96881961D01*
X77309524Y-96881961D02*
X77261905Y-96786723D01*
X77261905Y-96786723D02*
X77214286Y-96596247D01*
X77214286Y-96596247D02*
X77214286Y-96453390D01*
X77214286Y-96453390D02*
X77261905Y-96262914D01*
X77261905Y-96262914D02*
X77309524Y-96167676D01*
X77309524Y-96167676D02*
X77404762Y-96072438D01*
X77404762Y-96072438D02*
X77547619Y-96024819D01*
X77547619Y-96024819D02*
X77642857Y-96024819D01*
X77642857Y-96024819D02*
X77785714Y-96072438D01*
X77785714Y-96072438D02*
X77833333Y-96120057D01*
X78309524Y-97024819D02*
X78500000Y-97024819D01*
X78500000Y-97024819D02*
X78595238Y-96977200D01*
X78595238Y-96977200D02*
X78642857Y-96929580D01*
X78642857Y-96929580D02*
X78738095Y-96786723D01*
X78738095Y-96786723D02*
X78785714Y-96596247D01*
X78785714Y-96596247D02*
X78785714Y-96215295D01*
X78785714Y-96215295D02*
X78738095Y-96120057D01*
X78738095Y-96120057D02*
X78690476Y-96072438D01*
X78690476Y-96072438D02*
X78595238Y-96024819D01*
X78595238Y-96024819D02*
X78404762Y-96024819D01*
X78404762Y-96024819D02*
X78309524Y-96072438D01*
X78309524Y-96072438D02*
X78261905Y-96120057D01*
X78261905Y-96120057D02*
X78214286Y-96215295D01*
X78214286Y-96215295D02*
X78214286Y-96453390D01*
X78214286Y-96453390D02*
X78261905Y-96548628D01*
X78261905Y-96548628D02*
X78309524Y-96596247D01*
X78309524Y-96596247D02*
X78404762Y-96643866D01*
X78404762Y-96643866D02*
X78595238Y-96643866D01*
X78595238Y-96643866D02*
X78690476Y-96596247D01*
X78690476Y-96596247D02*
X78738095Y-96548628D01*
X78738095Y-96548628D02*
X78785714Y-96453390D01*
X73289580Y-94166666D02*
X73337200Y-94214285D01*
X73337200Y-94214285D02*
X73384819Y-94357142D01*
X73384819Y-94357142D02*
X73384819Y-94452380D01*
X73384819Y-94452380D02*
X73337200Y-94595237D01*
X73337200Y-94595237D02*
X73241961Y-94690475D01*
X73241961Y-94690475D02*
X73146723Y-94738094D01*
X73146723Y-94738094D02*
X72956247Y-94785713D01*
X72956247Y-94785713D02*
X72813390Y-94785713D01*
X72813390Y-94785713D02*
X72622914Y-94738094D01*
X72622914Y-94738094D02*
X72527676Y-94690475D01*
X72527676Y-94690475D02*
X72432438Y-94595237D01*
X72432438Y-94595237D02*
X72384819Y-94452380D01*
X72384819Y-94452380D02*
X72384819Y-94357142D01*
X72384819Y-94357142D02*
X72432438Y-94214285D01*
X72432438Y-94214285D02*
X72480057Y-94166666D01*
X72813390Y-93595237D02*
X72765771Y-93690475D01*
X72765771Y-93690475D02*
X72718152Y-93738094D01*
X72718152Y-93738094D02*
X72622914Y-93785713D01*
X72622914Y-93785713D02*
X72575295Y-93785713D01*
X72575295Y-93785713D02*
X72480057Y-93738094D01*
X72480057Y-93738094D02*
X72432438Y-93690475D01*
X72432438Y-93690475D02*
X72384819Y-93595237D01*
X72384819Y-93595237D02*
X72384819Y-93404761D01*
X72384819Y-93404761D02*
X72432438Y-93309523D01*
X72432438Y-93309523D02*
X72480057Y-93261904D01*
X72480057Y-93261904D02*
X72575295Y-93214285D01*
X72575295Y-93214285D02*
X72622914Y-93214285D01*
X72622914Y-93214285D02*
X72718152Y-93261904D01*
X72718152Y-93261904D02*
X72765771Y-93309523D01*
X72765771Y-93309523D02*
X72813390Y-93404761D01*
X72813390Y-93404761D02*
X72813390Y-93595237D01*
X72813390Y-93595237D02*
X72861009Y-93690475D01*
X72861009Y-93690475D02*
X72908628Y-93738094D01*
X72908628Y-93738094D02*
X73003866Y-93785713D01*
X73003866Y-93785713D02*
X73194342Y-93785713D01*
X73194342Y-93785713D02*
X73289580Y-93738094D01*
X73289580Y-93738094D02*
X73337200Y-93690475D01*
X73337200Y-93690475D02*
X73384819Y-93595237D01*
X73384819Y-93595237D02*
X73384819Y-93404761D01*
X73384819Y-93404761D02*
X73337200Y-93309523D01*
X73337200Y-93309523D02*
X73289580Y-93261904D01*
X73289580Y-93261904D02*
X73194342Y-93214285D01*
X73194342Y-93214285D02*
X73003866Y-93214285D01*
X73003866Y-93214285D02*
X72908628Y-93261904D01*
X72908628Y-93261904D02*
X72861009Y-93309523D01*
X72861009Y-93309523D02*
X72813390Y-93404761D01*
X74008333Y-89429580D02*
X73960714Y-89477200D01*
X73960714Y-89477200D02*
X73817857Y-89524819D01*
X73817857Y-89524819D02*
X73722619Y-89524819D01*
X73722619Y-89524819D02*
X73579762Y-89477200D01*
X73579762Y-89477200D02*
X73484524Y-89381961D01*
X73484524Y-89381961D02*
X73436905Y-89286723D01*
X73436905Y-89286723D02*
X73389286Y-89096247D01*
X73389286Y-89096247D02*
X73389286Y-88953390D01*
X73389286Y-88953390D02*
X73436905Y-88762914D01*
X73436905Y-88762914D02*
X73484524Y-88667676D01*
X73484524Y-88667676D02*
X73579762Y-88572438D01*
X73579762Y-88572438D02*
X73722619Y-88524819D01*
X73722619Y-88524819D02*
X73817857Y-88524819D01*
X73817857Y-88524819D02*
X73960714Y-88572438D01*
X73960714Y-88572438D02*
X74008333Y-88620057D01*
X74341667Y-88524819D02*
X75008333Y-88524819D01*
X75008333Y-88524819D02*
X74579762Y-89524819D01*
X68333333Y-95429580D02*
X68285714Y-95477200D01*
X68285714Y-95477200D02*
X68142857Y-95524819D01*
X68142857Y-95524819D02*
X68047619Y-95524819D01*
X68047619Y-95524819D02*
X67904762Y-95477200D01*
X67904762Y-95477200D02*
X67809524Y-95381961D01*
X67809524Y-95381961D02*
X67761905Y-95286723D01*
X67761905Y-95286723D02*
X67714286Y-95096247D01*
X67714286Y-95096247D02*
X67714286Y-94953390D01*
X67714286Y-94953390D02*
X67761905Y-94762914D01*
X67761905Y-94762914D02*
X67809524Y-94667676D01*
X67809524Y-94667676D02*
X67904762Y-94572438D01*
X67904762Y-94572438D02*
X68047619Y-94524819D01*
X68047619Y-94524819D02*
X68142857Y-94524819D01*
X68142857Y-94524819D02*
X68285714Y-94572438D01*
X68285714Y-94572438D02*
X68333333Y-94620057D01*
X69190476Y-94524819D02*
X69000000Y-94524819D01*
X69000000Y-94524819D02*
X68904762Y-94572438D01*
X68904762Y-94572438D02*
X68857143Y-94620057D01*
X68857143Y-94620057D02*
X68761905Y-94762914D01*
X68761905Y-94762914D02*
X68714286Y-94953390D01*
X68714286Y-94953390D02*
X68714286Y-95334342D01*
X68714286Y-95334342D02*
X68761905Y-95429580D01*
X68761905Y-95429580D02*
X68809524Y-95477200D01*
X68809524Y-95477200D02*
X68904762Y-95524819D01*
X68904762Y-95524819D02*
X69095238Y-95524819D01*
X69095238Y-95524819D02*
X69190476Y-95477200D01*
X69190476Y-95477200D02*
X69238095Y-95429580D01*
X69238095Y-95429580D02*
X69285714Y-95334342D01*
X69285714Y-95334342D02*
X69285714Y-95096247D01*
X69285714Y-95096247D02*
X69238095Y-95001009D01*
X69238095Y-95001009D02*
X69190476Y-94953390D01*
X69190476Y-94953390D02*
X69095238Y-94905771D01*
X69095238Y-94905771D02*
X68904762Y-94905771D01*
X68904762Y-94905771D02*
X68809524Y-94953390D01*
X68809524Y-94953390D02*
X68761905Y-95001009D01*
X68761905Y-95001009D02*
X68714286Y-95096247D01*
X56333333Y-85359580D02*
X56285714Y-85407200D01*
X56285714Y-85407200D02*
X56142857Y-85454819D01*
X56142857Y-85454819D02*
X56047619Y-85454819D01*
X56047619Y-85454819D02*
X55904762Y-85407200D01*
X55904762Y-85407200D02*
X55809524Y-85311961D01*
X55809524Y-85311961D02*
X55761905Y-85216723D01*
X55761905Y-85216723D02*
X55714286Y-85026247D01*
X55714286Y-85026247D02*
X55714286Y-84883390D01*
X55714286Y-84883390D02*
X55761905Y-84692914D01*
X55761905Y-84692914D02*
X55809524Y-84597676D01*
X55809524Y-84597676D02*
X55904762Y-84502438D01*
X55904762Y-84502438D02*
X56047619Y-84454819D01*
X56047619Y-84454819D02*
X56142857Y-84454819D01*
X56142857Y-84454819D02*
X56285714Y-84502438D01*
X56285714Y-84502438D02*
X56333333Y-84550057D01*
X57190476Y-84788152D02*
X57190476Y-85454819D01*
X56952381Y-84407200D02*
X56714286Y-85121485D01*
X56714286Y-85121485D02*
X57333333Y-85121485D01*
X62833333Y-89929580D02*
X62785714Y-89977200D01*
X62785714Y-89977200D02*
X62642857Y-90024819D01*
X62642857Y-90024819D02*
X62547619Y-90024819D01*
X62547619Y-90024819D02*
X62404762Y-89977200D01*
X62404762Y-89977200D02*
X62309524Y-89881961D01*
X62309524Y-89881961D02*
X62261905Y-89786723D01*
X62261905Y-89786723D02*
X62214286Y-89596247D01*
X62214286Y-89596247D02*
X62214286Y-89453390D01*
X62214286Y-89453390D02*
X62261905Y-89262914D01*
X62261905Y-89262914D02*
X62309524Y-89167676D01*
X62309524Y-89167676D02*
X62404762Y-89072438D01*
X62404762Y-89072438D02*
X62547619Y-89024819D01*
X62547619Y-89024819D02*
X62642857Y-89024819D01*
X62642857Y-89024819D02*
X62785714Y-89072438D01*
X62785714Y-89072438D02*
X62833333Y-89120057D01*
X63166667Y-89024819D02*
X63785714Y-89024819D01*
X63785714Y-89024819D02*
X63452381Y-89405771D01*
X63452381Y-89405771D02*
X63595238Y-89405771D01*
X63595238Y-89405771D02*
X63690476Y-89453390D01*
X63690476Y-89453390D02*
X63738095Y-89501009D01*
X63738095Y-89501009D02*
X63785714Y-89596247D01*
X63785714Y-89596247D02*
X63785714Y-89834342D01*
X63785714Y-89834342D02*
X63738095Y-89929580D01*
X63738095Y-89929580D02*
X63690476Y-89977200D01*
X63690476Y-89977200D02*
X63595238Y-90024819D01*
X63595238Y-90024819D02*
X63309524Y-90024819D01*
X63309524Y-90024819D02*
X63214286Y-89977200D01*
X63214286Y-89977200D02*
X63166667Y-89929580D01*
X63058333Y-87429580D02*
X63010714Y-87477200D01*
X63010714Y-87477200D02*
X62867857Y-87524819D01*
X62867857Y-87524819D02*
X62772619Y-87524819D01*
X62772619Y-87524819D02*
X62629762Y-87477200D01*
X62629762Y-87477200D02*
X62534524Y-87381961D01*
X62534524Y-87381961D02*
X62486905Y-87286723D01*
X62486905Y-87286723D02*
X62439286Y-87096247D01*
X62439286Y-87096247D02*
X62439286Y-86953390D01*
X62439286Y-86953390D02*
X62486905Y-86762914D01*
X62486905Y-86762914D02*
X62534524Y-86667676D01*
X62534524Y-86667676D02*
X62629762Y-86572438D01*
X62629762Y-86572438D02*
X62772619Y-86524819D01*
X62772619Y-86524819D02*
X62867857Y-86524819D01*
X62867857Y-86524819D02*
X63010714Y-86572438D01*
X63010714Y-86572438D02*
X63058333Y-86620057D01*
X63439286Y-86620057D02*
X63486905Y-86572438D01*
X63486905Y-86572438D02*
X63582143Y-86524819D01*
X63582143Y-86524819D02*
X63820238Y-86524819D01*
X63820238Y-86524819D02*
X63915476Y-86572438D01*
X63915476Y-86572438D02*
X63963095Y-86620057D01*
X63963095Y-86620057D02*
X64010714Y-86715295D01*
X64010714Y-86715295D02*
X64010714Y-86810533D01*
X64010714Y-86810533D02*
X63963095Y-86953390D01*
X63963095Y-86953390D02*
X63391667Y-87524819D01*
X63391667Y-87524819D02*
X64010714Y-87524819D01*
X57789580Y-89166666D02*
X57837200Y-89214285D01*
X57837200Y-89214285D02*
X57884819Y-89357142D01*
X57884819Y-89357142D02*
X57884819Y-89452380D01*
X57884819Y-89452380D02*
X57837200Y-89595237D01*
X57837200Y-89595237D02*
X57741961Y-89690475D01*
X57741961Y-89690475D02*
X57646723Y-89738094D01*
X57646723Y-89738094D02*
X57456247Y-89785713D01*
X57456247Y-89785713D02*
X57313390Y-89785713D01*
X57313390Y-89785713D02*
X57122914Y-89738094D01*
X57122914Y-89738094D02*
X57027676Y-89690475D01*
X57027676Y-89690475D02*
X56932438Y-89595237D01*
X56932438Y-89595237D02*
X56884819Y-89452380D01*
X56884819Y-89452380D02*
X56884819Y-89357142D01*
X56884819Y-89357142D02*
X56932438Y-89214285D01*
X56932438Y-89214285D02*
X56980057Y-89166666D01*
X57884819Y-88214285D02*
X57884819Y-88785713D01*
X57884819Y-88499999D02*
X56884819Y-88499999D01*
X56884819Y-88499999D02*
X57027676Y-88595237D01*
X57027676Y-88595237D02*
X57122914Y-88690475D01*
X57122914Y-88690475D02*
X57170533Y-88785713D01*
D14*
%TO.C,U3*%
X65400000Y-88400000D02*
X65160000Y-88070000D01*
X65640000Y-88070000D01*
X65400000Y-88400000D01*
G36*
X65400000Y-88400000D02*
G01*
X65160000Y-88070000D01*
X65640000Y-88070000D01*
X65400000Y-88400000D01*
G37*
X68600000Y-91600000D02*
X68600000Y-91350000D01*
X68600000Y-91600000D02*
X68350000Y-91600000D01*
X68600000Y-88400000D02*
X68600000Y-88650000D01*
X68600000Y-88400000D02*
X68350000Y-88400000D01*
X65400000Y-91600000D02*
X65650000Y-91600000D01*
X65400000Y-91600000D02*
X65400000Y-91350000D01*
%TO.C,C5*%
X67859420Y-94010000D02*
X68140580Y-94010000D01*
X67859420Y-92990000D02*
X68140580Y-92990000D01*
%TO.C,J4*%
X52390000Y-97390000D02*
X53500000Y-97390000D01*
X52390000Y-98500000D02*
X52390000Y-97390000D01*
X52390000Y-99500000D02*
X52390000Y-99610000D01*
X52390000Y-99500000D02*
X54610000Y-99500000D01*
X52390000Y-99610000D02*
X54610000Y-99610000D01*
X54610000Y-99500000D02*
X54610000Y-99610000D01*
%TO.C,J3*%
X52390000Y-89390000D02*
X53500000Y-89390000D01*
X52390000Y-90500000D02*
X52390000Y-89390000D01*
X52390000Y-91500000D02*
X52390000Y-91610000D01*
X52390000Y-91500000D02*
X54610000Y-91500000D01*
X52390000Y-91610000D02*
X54610000Y-91610000D01*
X54610000Y-91500000D02*
X54610000Y-91610000D01*
%TO.C,J2*%
X52390000Y-93390000D02*
X53500000Y-93390000D01*
X52390000Y-94500000D02*
X52390000Y-93390000D01*
X52390000Y-95500000D02*
X52390000Y-95610000D01*
X52390000Y-95500000D02*
X54610000Y-95500000D01*
X52390000Y-95610000D02*
X54610000Y-95610000D01*
X54610000Y-95500000D02*
X54610000Y-95610000D01*
%TO.C,J1*%
X56610000Y-82610000D02*
X55500000Y-82610000D01*
X56610000Y-81500000D02*
X56610000Y-82610000D01*
X56610000Y-80500000D02*
X56610000Y-74390000D01*
X56610000Y-80500000D02*
X54390000Y-80500000D01*
X56610000Y-74390000D02*
X54390000Y-74390000D01*
X54390000Y-80500000D02*
X54390000Y-74390000D01*
%TO.C,U2*%
X58700000Y-87900000D02*
X60300000Y-87900000D01*
X58700000Y-91100000D02*
X60300000Y-91100000D01*
X58250000Y-88050000D02*
X58010000Y-87720000D01*
X58490000Y-87720000D01*
X58250000Y-88050000D01*
G36*
X58250000Y-88050000D02*
G01*
X58010000Y-87720000D01*
X58490000Y-87720000D01*
X58250000Y-88050000D01*
G37*
D15*
%TO.C,U6*%
X76850000Y-92950001D02*
X80400001Y-92950001D01*
X78599999Y-96049999D02*
X80400001Y-96049999D01*
D14*
%TO.C,U5*%
X73790000Y-93340000D02*
X75200000Y-93340000D01*
X73800000Y-95660000D02*
X75200000Y-95660000D01*
X73420000Y-93390000D02*
X73180000Y-93060000D01*
X73660000Y-93060000D01*
X73420000Y-93390000D01*
G36*
X73420000Y-93390000D02*
G01*
X73180000Y-93060000D01*
X73660000Y-93060000D01*
X73420000Y-93390000D01*
G37*
%TO.C,U4*%
X62000000Y-94390000D02*
X60500000Y-94390000D01*
X62000000Y-94390000D02*
X63500000Y-94390000D01*
X62000000Y-97610000D02*
X60500000Y-97610000D01*
X62000000Y-97610000D02*
X63500000Y-97610000D01*
X59787500Y-94515000D02*
X59547500Y-94185000D01*
X60027500Y-94185000D01*
X59787500Y-94515000D01*
G36*
X59787500Y-94515000D02*
G01*
X59547500Y-94185000D01*
X60027500Y-94185000D01*
X59787500Y-94515000D01*
G37*
D16*
%TO.C,U1*%
X58863500Y-65903500D02*
X58863500Y-67303500D01*
X58863500Y-86803500D02*
X58863500Y-85303500D01*
X76463500Y-65903500D02*
X76463500Y-67303500D01*
X76463500Y-86803500D02*
X76463500Y-85303500D01*
D14*
%TO.C,R7*%
X73937742Y-91477500D02*
X74412258Y-91477500D01*
X73937742Y-92522500D02*
X74412258Y-92522500D01*
%TO.C,R6*%
X70262742Y-95977500D02*
X70737258Y-95977500D01*
X70262742Y-97022500D02*
X70737258Y-97022500D01*
%TO.C,R5*%
X69912258Y-99022500D02*
X69437742Y-99022500D01*
X69912258Y-97977500D02*
X69437742Y-97977500D01*
%TO.C,R4*%
X59087742Y-97977500D02*
X59562258Y-97977500D01*
X59087742Y-99022500D02*
X59562258Y-99022500D01*
%TO.C,R3*%
X62737258Y-93522500D02*
X62262742Y-93522500D01*
X62737258Y-92477500D02*
X62262742Y-92477500D01*
%TO.C,R2*%
X56762742Y-92977500D02*
X57237258Y-92977500D01*
X56762742Y-94022500D02*
X57237258Y-94022500D01*
%TO.C,R1*%
X56762742Y-95977500D02*
X57237258Y-95977500D01*
X56762742Y-97022500D02*
X57237258Y-97022500D01*
%TO.C,C10*%
X74584420Y-97490000D02*
X74865580Y-97490000D01*
X74584420Y-98510000D02*
X74865580Y-98510000D01*
%TO.C,C9*%
X77859420Y-97490000D02*
X78140580Y-97490000D01*
X77859420Y-98510000D02*
X78140580Y-98510000D01*
%TO.C,C8*%
X72010000Y-93859420D02*
X72010000Y-94140580D01*
X70990000Y-93859420D02*
X70990000Y-94140580D01*
%TO.C,C7*%
X74034420Y-89990000D02*
X74315580Y-89990000D01*
X74034420Y-91010000D02*
X74315580Y-91010000D01*
%TO.C,C6*%
X66859420Y-95990000D02*
X67140580Y-95990000D01*
X66859420Y-97010000D02*
X67140580Y-97010000D01*
%TO.C,C4*%
X56640580Y-87010000D02*
X56359420Y-87010000D01*
X56640580Y-85990000D02*
X56359420Y-85990000D01*
%TO.C,C3*%
X62859420Y-90490000D02*
X63140580Y-90490000D01*
X62859420Y-91510000D02*
X63140580Y-91510000D01*
%TO.C,C2*%
X63084420Y-87990000D02*
X63365580Y-87990000D01*
X63084420Y-89010000D02*
X63365580Y-89010000D01*
%TO.C,C1*%
X56510000Y-88859420D02*
X56510000Y-89140580D01*
X55490000Y-88859420D02*
X55490000Y-89140580D01*
%TD*%
M02*
