M48
; DRILL file {KiCad 9.0.4} date 2025-10-05T22:00:00-0400
; FORMAT={-:-/ absolute / metric / decimal}
; #@! TF.CreationDate,2025-10-05T22:00:00-04:00
; #@! TF.GenerationSoftware,Kicad,Pcbnew,9.0.4
; #@! TF.FileFunction,Plated,1,2,PTH
FMAT,2
METRIC
; #@! TA.AperFunction,Plated,PTH,ViaDrill
T1C0.300
; #@! TA.AperFunction,Plated,PTH,ComponentDrill
T2C0.800
%
G90
G05
T1
X51.75Y-86.5
X56.723Y-91.611
X59.163Y-68.683
X59.163Y-71.224
X59.163Y-73.763
X59.163Y-76.303
X59.25Y-84.0
X61.0Y-86.0
X63.5Y-86.5
X64.5Y-99.0
X65.5Y-86.0
X66.394Y-67.913
X66.394Y-70.453
X67.75Y-87.5
X68.933Y-67.913
X68.933Y-70.453
X70.75Y-75.25
X70.75Y-89.25
X71.75Y-97.75
X73.0Y-96.5
X75.25Y-96.5
X76.163Y-73.763
X76.163Y-76.303
X79.0Y-94.5
X79.5Y-95.5
X80.0Y-96.5
X81.5Y-97.0
T2
X53.5Y-90.5
X53.5Y-94.5
X53.5Y-98.5
X55.5Y-75.5
X55.5Y-77.5
X55.5Y-79.5
X55.5Y-81.5
M30
