M48
; DRILL file {KiCad 9.0.4} date 2025-11-03T10:18:44-0500
; FORMAT={-:-/ absolute / metric / decimal}
; #@! TF.CreationDate,2025-11-03T10:18:44-05:00
; #@! TF.GenerationSoftware,Kicad,Pcbnew,9.0.4
; #@! TF.FileFunction,Plated,1,6,PTH
FMAT,2
METRIC
; #@! TA.AperFunction,Plated,PTH,ComponentDrill
T1C0.254
; #@! TA.AperFunction,Plated,PTH,ViaDrill
T2C0.300
%
G90
G05
T1
X64.531Y-69.151
X64.531Y-69.939
X65.319Y-69.151
X65.319Y-69.939
T2
X54.25Y-80.05
X54.25Y-85.545
X54.3Y-78.5
X54.725Y-89.8
X54.775Y-73.845
X54.775Y-92.045
X54.8Y-83.55
X55.22Y-95.02
X55.3Y-67.815
X55.3Y-70.355
X55.4Y-88.2
X56.45Y-89.8
X56.487Y-92.12
X56.587Y-73.945
X56.587Y-80.12
X56.587Y-85.145
X57.0Y-87.8
X58.162Y-89.8
X58.2Y-65.1
X59.5Y-89.9
X61.037Y-93.62
X61.137Y-81.62
X61.137Y-87.22
X61.5Y-72.9
X61.7Y-78.7
X61.8Y-66.3
X62.15Y-83.85
X62.3Y-68.795
X62.3Y-69.5
X62.4Y-70.2
X62.4Y-90.375
X62.412Y-88.812
X62.5Y-71.0
X63.837Y-95.12
X63.875Y-88.7
X63.938Y-77.545
X63.95Y-83.22
X64.2Y-78.7
X65.175Y-65.145
X65.175Y-72.725
X65.5Y-96.4
X66.6Y-72.4
X66.975Y-79.145
X66.975Y-90.325
X66.975Y-96.72
X67.075Y-84.745
X67.6Y-67.575
X67.75Y-68.5
X67.795Y-69.295
X67.8Y-71.2
X68.15Y-70.2
X68.475Y-79.395
X68.475Y-91.37
X68.513Y-96.195
X68.575Y-85.395
X71.5Y-96.195
X71.6Y-94.375
X71.9Y-87.5
X72.0Y-86.3
X73.0Y-72.05
X73.475Y-79.395
X73.575Y-91.37
X73.6Y-73.5
X74.8Y-85.5
X74.9Y-91.5
X76.163Y-69.52
X76.3Y-67.2
X80.462Y-96.42
M30
