%TF.GenerationSoftware,KiCad,Pcbnew,9.0.4*%
%TF.CreationDate,2025-11-03T10:18:42-05:00*%
%TF.ProjectId,Perpetuality,50657270-6574-4756-916c-6974792e6b69,rev?*%
%TF.SameCoordinates,Original*%
%TF.FileFunction,Paste,Bot*%
%TF.FilePolarity,Positive*%
%FSLAX46Y46*%
G04 Gerber Fmt 4.6, Leading zero omitted, Abs format (unit mm)*
G04 Created by KiCad (PCBNEW 9.0.4) date 2025-11-03 10:18:42*
%MOMM*%
%LPD*%
G01*
G04 APERTURE LIST*
G04 Aperture macros list*
%AMRoundRect*
0 Rectangle with rounded corners*
0 $1 Rounding radius*
0 $2 $3 $4 $5 $6 $7 $8 $9 X,Y pos of 4 corners*
0 Add a 4 corners polygon primitive as box body*
4,1,4,$2,$3,$4,$5,$6,$7,$8,$9,$2,$3,0*
0 Add four circle primitives for the rounded corners*
1,1,$1+$1,$2,$3*
1,1,$1+$1,$4,$5*
1,1,$1+$1,$6,$7*
1,1,$1+$1,$8,$9*
0 Add four rect primitives between the rounded corners*
20,1,$1+$1,$2,$3,$4,$5,0*
20,1,$1+$1,$4,$5,$6,$7,0*
20,1,$1+$1,$6,$7,$8,$9,0*
20,1,$1+$1,$8,$9,$2,$3,0*%
G04 Aperture macros list end*
%ADD10C,0.000000*%
%ADD11RoundRect,0.200000X-0.200000X-0.275000X0.200000X-0.275000X0.200000X0.275000X-0.200000X0.275000X0*%
%ADD12RoundRect,0.200000X0.200000X0.275000X-0.200000X0.275000X-0.200000X-0.275000X0.200000X-0.275000X0*%
%ADD13RoundRect,0.100000X0.225000X0.100000X-0.225000X0.100000X-0.225000X-0.100000X0.225000X-0.100000X0*%
%ADD14RoundRect,0.200000X0.275000X-0.200000X0.275000X0.200000X-0.275000X0.200000X-0.275000X-0.200000X0*%
%ADD15RoundRect,0.225000X0.225000X0.250000X-0.225000X0.250000X-0.225000X-0.250000X0.225000X-0.250000X0*%
%ADD16RoundRect,0.125000X0.687500X0.125000X-0.687500X0.125000X-0.687500X-0.125000X0.687500X-0.125000X0*%
%ADD17RoundRect,0.225000X-0.225000X-0.250000X0.225000X-0.250000X0.225000X0.250000X-0.225000X0.250000X0*%
%ADD18RoundRect,0.225000X-0.250000X0.225000X-0.250000X-0.225000X0.250000X-0.225000X0.250000X0.225000X0*%
%ADD19RoundRect,0.150000X-0.825000X-0.150000X0.825000X-0.150000X0.825000X0.150000X-0.825000X0.150000X0*%
%ADD20RoundRect,0.225000X0.250000X-0.225000X0.250000X0.225000X-0.250000X0.225000X-0.250000X-0.225000X0*%
G04 APERTURE END LIST*
D10*
%TO.C,U7*%
G36*
X63850190Y-68909999D02*
G01*
X63050189Y-68909999D01*
X63050189Y-68679999D01*
X63850190Y-68679999D01*
X63850190Y-68909999D01*
G37*
G36*
X63850190Y-69409998D02*
G01*
X63050189Y-69409998D01*
X63050189Y-69179998D01*
X63850190Y-69179998D01*
X63850190Y-69409998D01*
G37*
G36*
X63850190Y-69910000D02*
G01*
X63050189Y-69910000D01*
X63050189Y-69680000D01*
X63850190Y-69680000D01*
X63850190Y-69910000D01*
G37*
G36*
X63850190Y-70409999D02*
G01*
X63050189Y-70409999D01*
X63050189Y-70179999D01*
X63850190Y-70179999D01*
X63850190Y-70409999D01*
G37*
G36*
X64290001Y-68470000D02*
G01*
X64059999Y-68470000D01*
X64059999Y-67669999D01*
X64290001Y-67669999D01*
X64290001Y-68470000D01*
G37*
G36*
X64290001Y-71419999D02*
G01*
X64059999Y-71419999D01*
X64059999Y-70619998D01*
X64290001Y-70619998D01*
X64290001Y-71419999D01*
G37*
G36*
X64790127Y-68470000D02*
G01*
X64560125Y-68470000D01*
X64560125Y-67669999D01*
X64790127Y-67669999D01*
X64790127Y-68470000D01*
G37*
G36*
X64790127Y-71419999D02*
G01*
X64560125Y-71419999D01*
X64560125Y-70619998D01*
X64790127Y-70619998D01*
X64790127Y-71419999D01*
G37*
G36*
X65290253Y-68470000D02*
G01*
X65060251Y-68470000D01*
X65060251Y-67669999D01*
X65290253Y-67669999D01*
X65290253Y-68470000D01*
G37*
G36*
X65290253Y-71419999D02*
G01*
X65060251Y-71419999D01*
X65060251Y-70619998D01*
X65290253Y-70619998D01*
X65290253Y-71419999D01*
G37*
G36*
X65790379Y-68470000D02*
G01*
X65560377Y-68470000D01*
X65560377Y-67669999D01*
X65790379Y-67669999D01*
X65790379Y-68470000D01*
G37*
G36*
X65790379Y-71419999D02*
G01*
X65560377Y-71419999D01*
X65560377Y-70619998D01*
X65790379Y-70619998D01*
X65790379Y-71419999D01*
G37*
G36*
X66800189Y-68909999D02*
G01*
X66000188Y-68909999D01*
X66000188Y-68679999D01*
X66800189Y-68679999D01*
X66800189Y-68909999D01*
G37*
G36*
X66800189Y-69409998D02*
G01*
X66000188Y-69409998D01*
X66000188Y-69179998D01*
X66800189Y-69179998D01*
X66800189Y-69409998D01*
G37*
G36*
X66800189Y-69910000D02*
G01*
X66000188Y-69910000D01*
X66000188Y-69680000D01*
X66800189Y-69680000D01*
X66800189Y-69910000D01*
G37*
G36*
X66800189Y-70409999D02*
G01*
X66000188Y-70409999D01*
X66000188Y-70179999D01*
X66800189Y-70179999D01*
X66800189Y-70409999D01*
G37*
G36*
X64431489Y-70180120D02*
G01*
X64431489Y-70371769D01*
X64098419Y-70371769D01*
X64098419Y-70038699D01*
X64290068Y-70038699D01*
X64431489Y-70180120D01*
G37*
G36*
X64431489Y-68909878D02*
G01*
X64290068Y-69051299D01*
X64098419Y-69051299D01*
X64098419Y-68718229D01*
X64431489Y-68718229D01*
X64431489Y-68909878D01*
G37*
G36*
X65751959Y-69051299D02*
G01*
X65560310Y-69051299D01*
X65418889Y-68909878D01*
X65418889Y-68718229D01*
X65751959Y-68718229D01*
X65751959Y-69051299D01*
G37*
G36*
X65751959Y-70371769D02*
G01*
X65418889Y-70371769D01*
X65418889Y-70180120D01*
X65560310Y-70038699D01*
X65751959Y-70038699D01*
X65751959Y-70371769D01*
G37*
G36*
X64431489Y-69392720D02*
G01*
X64431489Y-69697278D01*
X64290068Y-69838699D01*
X64098419Y-69838699D01*
X64098419Y-69251299D01*
X64290068Y-69251299D01*
X64431489Y-69392720D01*
G37*
G36*
X65218889Y-70180120D02*
G01*
X65218889Y-70371769D01*
X64631489Y-70371769D01*
X64631489Y-70180120D01*
X64772910Y-70038699D01*
X65077468Y-70038699D01*
X65218889Y-70180120D01*
G37*
G36*
X65218889Y-68909878D02*
G01*
X65077468Y-69051299D01*
X64772910Y-69051299D01*
X64631489Y-68909878D01*
X64631489Y-68718229D01*
X65218889Y-68718229D01*
X65218889Y-68909878D01*
G37*
G36*
X65751959Y-69838699D02*
G01*
X65560310Y-69838699D01*
X65418889Y-69697278D01*
X65418889Y-69392720D01*
X65560310Y-69251299D01*
X65751959Y-69251299D01*
X65751959Y-69838699D01*
G37*
G36*
X65218889Y-69392720D02*
G01*
X65218889Y-69697278D01*
X65077468Y-69838699D01*
X64772910Y-69838699D01*
X64631489Y-69697278D01*
X64631489Y-69392720D01*
X64772910Y-69251299D01*
X65077468Y-69251299D01*
X65218889Y-69392720D01*
G37*
%TD*%
D11*
%TO.C,R17*%
X70250000Y-85120000D03*
X71900000Y-85120000D03*
%TD*%
%TO.C,R1*%
X70150000Y-79120000D03*
X71800000Y-79120000D03*
%TD*%
D12*
%TO.C,R26*%
X77787500Y-90420000D03*
X76137500Y-90420000D03*
%TD*%
D13*
%TO.C,U5*%
X58212500Y-81670000D03*
X58212500Y-82320000D03*
X58212500Y-82970000D03*
X56312500Y-82970000D03*
X56312500Y-81670000D03*
%TD*%
D14*
%TO.C,R27*%
X66975000Y-96720000D03*
X66975000Y-95070000D03*
%TD*%
D15*
%TO.C,C31*%
X70062500Y-96195000D03*
X68512500Y-96195000D03*
%TD*%
%TO.C,C33*%
X64037500Y-93620000D03*
X62487500Y-93620000D03*
%TD*%
%TO.C,C26*%
X64137500Y-87220000D03*
X62587500Y-87220000D03*
%TD*%
D16*
%TO.C,U4*%
X73100000Y-80670000D03*
X73100000Y-81320000D03*
X73100000Y-81970000D03*
X73100000Y-82620000D03*
X68875000Y-82620000D03*
X68875000Y-81970000D03*
X68875000Y-81320000D03*
X68875000Y-80670000D03*
%TD*%
D17*
%TO.C,C34*%
X56487500Y-92120000D03*
X58037500Y-92120000D03*
%TD*%
%TO.C,C13*%
X59587500Y-81620000D03*
X61137500Y-81620000D03*
%TD*%
D12*
%TO.C,R25*%
X77787500Y-93420000D03*
X76137500Y-93420000D03*
%TD*%
%TO.C,R23*%
X62612500Y-85245000D03*
X60962500Y-85245000D03*
%TD*%
D15*
%TO.C,C15*%
X56575000Y-66100000D03*
X55025000Y-66100000D03*
%TD*%
D18*
%TO.C,C24*%
X68475000Y-89820000D03*
X68475000Y-91370000D03*
%TD*%
D12*
%TO.C,R18*%
X77787500Y-87420000D03*
X76137500Y-87420000D03*
%TD*%
D17*
%TO.C,C27*%
X56587500Y-85145000D03*
X58137500Y-85145000D03*
%TD*%
D11*
%TO.C,R28*%
X63837500Y-95120000D03*
X65487500Y-95120000D03*
%TD*%
D17*
%TO.C,C12*%
X56587500Y-80120000D03*
X58137500Y-80120000D03*
%TD*%
D18*
%TO.C,C6*%
X73575000Y-83845000D03*
X73575000Y-85395000D03*
%TD*%
D12*
%TO.C,R2*%
X77562500Y-80900000D03*
X75912500Y-80900000D03*
%TD*%
D16*
%TO.C,U6*%
X73087500Y-74645000D03*
X73087500Y-75295000D03*
X73087500Y-75945000D03*
X73087500Y-76595000D03*
X68862500Y-76595000D03*
X68862500Y-75945000D03*
X68862500Y-75295000D03*
X68862500Y-74645000D03*
%TD*%
D12*
%TO.C,R3*%
X77787500Y-78000000D03*
X76137500Y-78000000D03*
%TD*%
D13*
%TO.C,U9*%
X58112500Y-75495000D03*
X58112500Y-76145000D03*
X58112500Y-76795000D03*
X56212500Y-76795000D03*
X56212500Y-75495000D03*
%TD*%
D17*
%TO.C,C21*%
X59487500Y-76045000D03*
X61037500Y-76045000D03*
%TD*%
D12*
%TO.C,R15*%
X65487500Y-74545000D03*
X63837500Y-74545000D03*
%TD*%
%TO.C,R7*%
X62587500Y-80120000D03*
X60937500Y-80120000D03*
%TD*%
D14*
%TO.C,R20*%
X66975000Y-90325000D03*
X66975000Y-88675000D03*
%TD*%
D12*
%TO.C,R11*%
X77687500Y-74945000D03*
X76037500Y-74945000D03*
%TD*%
D17*
%TO.C,C35*%
X59487500Y-93620000D03*
X61037500Y-93620000D03*
%TD*%
D18*
%TO.C,C17*%
X73475000Y-77845000D03*
X73475000Y-79395000D03*
%TD*%
D17*
%TO.C,C19*%
X56587500Y-73945000D03*
X58137500Y-73945000D03*
%TD*%
D12*
%TO.C,R19*%
X77787500Y-83945000D03*
X76137500Y-83945000D03*
%TD*%
D18*
%TO.C,C23*%
X73575000Y-89820000D03*
X73575000Y-91370000D03*
%TD*%
D17*
%TO.C,C9*%
X66525000Y-66500000D03*
X68075000Y-66500000D03*
%TD*%
D19*
%TO.C,U8*%
X55300000Y-71625000D03*
X55300000Y-70355000D03*
X55300000Y-69085000D03*
X55300000Y-67815000D03*
X60250000Y-67815000D03*
X60250000Y-69085000D03*
X60250000Y-70355000D03*
X60250000Y-71625000D03*
%TD*%
D20*
%TO.C,C29*%
X54875000Y-87095000D03*
X54875000Y-85545000D03*
%TD*%
%TO.C,C10*%
X65175000Y-66695000D03*
X65175000Y-65145000D03*
%TD*%
D15*
%TO.C,C8*%
X67025000Y-81620000D03*
X65475000Y-81620000D03*
%TD*%
D11*
%TO.C,R24*%
X70250000Y-91095000D03*
X71900000Y-91095000D03*
%TD*%
D16*
%TO.C,U10*%
X73175000Y-86620000D03*
X73175000Y-87270000D03*
X73175000Y-87920000D03*
X73175000Y-88570000D03*
X68950000Y-88570000D03*
X68950000Y-87920000D03*
X68950000Y-87270000D03*
X68950000Y-86620000D03*
%TD*%
D20*
%TO.C,C36*%
X54775000Y-93595000D03*
X54775000Y-92045000D03*
%TD*%
D12*
%TO.C,R30*%
X62462500Y-92120000D03*
X60812500Y-92120000D03*
%TD*%
D14*
%TO.C,R13*%
X66975000Y-79145000D03*
X66975000Y-77495000D03*
%TD*%
D15*
%TO.C,C16*%
X67037500Y-76045000D03*
X65487500Y-76045000D03*
%TD*%
D18*
%TO.C,C7*%
X68575000Y-83845000D03*
X68575000Y-85395000D03*
%TD*%
D17*
%TO.C,C28*%
X59587500Y-87220000D03*
X61137500Y-87220000D03*
%TD*%
D13*
%TO.C,U13*%
X58062500Y-93720000D03*
X58062500Y-94370000D03*
X58062500Y-95020000D03*
X56162500Y-95020000D03*
X56162500Y-93720000D03*
%TD*%
D15*
%TO.C,C20*%
X64037500Y-76045000D03*
X62487500Y-76045000D03*
%TD*%
%TO.C,C30*%
X73050000Y-96195000D03*
X71500000Y-96195000D03*
%TD*%
D11*
%TO.C,R21*%
X63875000Y-88700000D03*
X65525000Y-88700000D03*
%TD*%
D15*
%TO.C,C11*%
X64137500Y-81620000D03*
X62587500Y-81620000D03*
%TD*%
D12*
%TO.C,R6*%
X65587500Y-80120000D03*
X63937500Y-80120000D03*
%TD*%
%TO.C,R12*%
X77387500Y-71845000D03*
X75737500Y-71845000D03*
%TD*%
D20*
%TO.C,C22*%
X54775000Y-75395000D03*
X54775000Y-73845000D03*
%TD*%
D18*
%TO.C,C18*%
X68475000Y-77845000D03*
X68475000Y-79395000D03*
%TD*%
D11*
%TO.C,R5*%
X63950000Y-83220000D03*
X65600000Y-83220000D03*
%TD*%
%TO.C,R10*%
X70150000Y-73020000D03*
X71800000Y-73020000D03*
%TD*%
D16*
%TO.C,U12*%
X73087500Y-92620000D03*
X73087500Y-93270000D03*
X73087500Y-93920000D03*
X73087500Y-94570000D03*
X68862500Y-94570000D03*
X68862500Y-93920000D03*
X68862500Y-93270000D03*
X68862500Y-92620000D03*
%TD*%
D12*
%TO.C,R22*%
X65587500Y-85245000D03*
X63937500Y-85245000D03*
%TD*%
%TO.C,R29*%
X65487500Y-92120000D03*
X63837500Y-92120000D03*
%TD*%
D14*
%TO.C,R4*%
X67075000Y-84745000D03*
X67075000Y-83095000D03*
%TD*%
D15*
%TO.C,C25*%
X67137500Y-87220000D03*
X65587500Y-87220000D03*
%TD*%
%TO.C,C32*%
X67037500Y-93620000D03*
X65487500Y-93620000D03*
%TD*%
D20*
%TO.C,C14*%
X54775000Y-81595000D03*
X54775000Y-80045000D03*
%TD*%
D13*
%TO.C,U11*%
X58212500Y-87170000D03*
X58212500Y-87820000D03*
X58212500Y-88470000D03*
X56312500Y-88470000D03*
X56312500Y-87170000D03*
%TD*%
D12*
%TO.C,R16*%
X62487500Y-74545000D03*
X60837500Y-74545000D03*
%TD*%
D11*
%TO.C,R14*%
X63937500Y-77545000D03*
X65587500Y-77545000D03*
%TD*%
M02*
