%TF.GenerationSoftware,KiCad,Pcbnew,9.0.4*%
%TF.CreationDate,2025-11-03T10:18:42-05:00*%
%TF.ProjectId,Perpetuality,50657270-6574-4756-916c-6974792e6b69,rev?*%
%TF.SameCoordinates,Original*%
%TF.FileFunction,Copper,L1,Top*%
%TF.FilePolarity,Positive*%
%FSLAX46Y46*%
G04 Gerber Fmt 4.6, Leading zero omitted, Abs format (unit mm)*
G04 Created by KiCad (PCBNEW 9.0.4) date 2025-11-03 10:18:42*
%MOMM*%
%LPD*%
G01*
G04 APERTURE LIST*
G04 Aperture macros list*
%AMRoundRect*
0 Rectangle with rounded corners*
0 $1 Rounding radius*
0 $2 $3 $4 $5 $6 $7 $8 $9 X,Y pos of 4 corners*
0 Add a 4 corners polygon primitive as box body*
4,1,4,$2,$3,$4,$5,$6,$7,$8,$9,$2,$3,0*
0 Add four circle primitives for the rounded corners*
1,1,$1+$1,$2,$3*
1,1,$1+$1,$4,$5*
1,1,$1+$1,$6,$7*
1,1,$1+$1,$8,$9*
0 Add four rect primitives between the rounded corners*
20,1,$1+$1,$2,$3,$4,$5,0*
20,1,$1+$1,$4,$5,$6,$7,0*
20,1,$1+$1,$6,$7,$8,$9,0*
20,1,$1+$1,$8,$9,$2,$3,0*%
G04 Aperture macros list end*
%TA.AperFunction,SMDPad,CuDef*%
%ADD10R,2.000000X2.000000*%
%TD*%
%TA.AperFunction,SMDPad,CuDef*%
%ADD11RoundRect,0.050000X-0.225000X-0.050000X0.225000X-0.050000X0.225000X0.050000X-0.225000X0.050000X0*%
%TD*%
%TA.AperFunction,SMDPad,CuDef*%
%ADD12RoundRect,0.050000X0.050000X-0.225000X0.050000X0.225000X-0.050000X0.225000X-0.050000X-0.225000X0*%
%TD*%
%TA.AperFunction,SMDPad,CuDef*%
%ADD13RoundRect,0.200000X-0.200000X-0.275000X0.200000X-0.275000X0.200000X0.275000X-0.200000X0.275000X0*%
%TD*%
%TA.AperFunction,SMDPad,CuDef*%
%ADD14RoundRect,0.225000X-0.250000X0.225000X-0.250000X-0.225000X0.250000X-0.225000X0.250000X0.225000X0*%
%TD*%
%TA.AperFunction,SMDPad,CuDef*%
%ADD15RoundRect,0.150000X-0.512500X-0.150000X0.512500X-0.150000X0.512500X0.150000X-0.512500X0.150000X0*%
%TD*%
%TA.AperFunction,SMDPad,CuDef*%
%ADD16RoundRect,0.225000X0.225000X0.250000X-0.225000X0.250000X-0.225000X-0.250000X0.225000X-0.250000X0*%
%TD*%
%TA.AperFunction,SMDPad,CuDef*%
%ADD17R,3.000000X2.000000*%
%TD*%
%TA.AperFunction,SMDPad,CuDef*%
%ADD18RoundRect,0.750000X-0.000010X-0.000010X0.000010X-0.000010X0.000010X0.000010X-0.000010X0.000010X0*%
%TD*%
%TA.AperFunction,SMDPad,CuDef*%
%ADD19R,1.300000X2.300000*%
%TD*%
%TA.AperFunction,SMDPad,CuDef*%
%ADD20R,2.300000X1.300000*%
%TD*%
%TA.AperFunction,SMDPad,CuDef*%
%ADD21RoundRect,0.200000X0.200000X0.275000X-0.200000X0.275000X-0.200000X-0.275000X0.200000X-0.275000X0*%
%TD*%
%TA.AperFunction,ComponentPad*%
%ADD22C,0.508000*%
%TD*%
%TA.AperFunction,ViaPad*%
%ADD23C,0.600000*%
%TD*%
%TA.AperFunction,Conductor*%
%ADD24C,0.200000*%
%TD*%
G04 APERTURE END LIST*
D10*
%TO.P,J1,1,Pin_1*%
%TO.N,3V3*%
X80462500Y-71945000D03*
%TD*%
D11*
%TO.P,U3,1,NC*%
%TO.N,unconnected-(U3-NC-Pad1)*%
X69300000Y-88800000D03*
%TO.P,U3,2,NC*%
%TO.N,unconnected-(U3-NC-Pad2)*%
X69300000Y-89200000D03*
%TO.P,U3,3,NC*%
%TO.N,unconnected-(U3-NC-Pad3)*%
X69300000Y-89600000D03*
%TO.P,U3,4,NC*%
%TO.N,unconnected-(U3-NC-Pad4)*%
X69300000Y-90000000D03*
%TO.P,U3,5,NC*%
%TO.N,unconnected-(U3-NC-Pad5)*%
X69300000Y-90400000D03*
%TO.P,U3,6,NC*%
%TO.N,unconnected-(U3-NC-Pad6)*%
X69300000Y-90800000D03*
D12*
%TO.P,U3,7,AUX_CL*%
%TO.N,unconnected-(U3-AUX_CL-Pad7)*%
X69800000Y-91300000D03*
%TO.P,U3,8,VDDIO*%
%TO.N,1V8*%
X70200000Y-91300000D03*
%TO.P,U3,9,SDO/AD0*%
%TO.N,AD0*%
X70600000Y-91300000D03*
%TO.P,U3,10,REGOUT*%
%TO.N,Net-(U3-REGOUT)*%
X71000000Y-91300000D03*
%TO.P,U3,11,FSYNC*%
%TO.N,FSYNC*%
X71400000Y-91300000D03*
%TO.P,U3,12,INT1*%
%TO.N,INT1*%
X71800000Y-91300000D03*
D11*
%TO.P,U3,13,VDD*%
%TO.N,1V8*%
X72300000Y-90800000D03*
%TO.P,U3,14,NC*%
%TO.N,unconnected-(U3-NC-Pad14)*%
X72300000Y-90400000D03*
%TO.P,U3,15,NC*%
%TO.N,unconnected-(U3-NC-Pad15)*%
X72300000Y-90000000D03*
%TO.P,U3,16,NC*%
%TO.N,unconnected-(U3-NC-Pad16)*%
X72300000Y-89600000D03*
%TO.P,U3,17,NC*%
%TO.N,unconnected-(U3-NC-Pad17)*%
X72300000Y-89200000D03*
%TO.P,U3,18,GND*%
%TO.N,GNDD*%
X72300000Y-88800000D03*
D12*
%TO.P,U3,19,RESV*%
%TO.N,unconnected-(U3-RESV-Pad19)*%
X71800000Y-88300000D03*
%TO.P,U3,20,GND*%
%TO.N,GNDD*%
X71400000Y-88300000D03*
%TO.P,U3,21,AUX_DA*%
%TO.N,unconnected-(U3-AUX_DA-Pad21)*%
X71000000Y-88300000D03*
%TO.P,U3,22,~{CS}*%
%TO.N,1V8*%
X70600000Y-88300000D03*
%TO.P,U3,23,SCL/SCLK*%
%TO.N,SCL*%
X70200000Y-88300000D03*
%TO.P,U3,24,SDA/SDI*%
%TO.N,SDA*%
X69800000Y-88300000D03*
%TD*%
D13*
%TO.P,R8,1*%
%TO.N,SCL*%
X71075000Y-86000000D03*
%TO.P,R8,2*%
%TO.N,1V8*%
X72725000Y-86000000D03*
%TD*%
D14*
%TO.P,C3,1*%
%TO.N,1V8*%
X69500000Y-92625000D03*
%TO.P,C3,2*%
%TO.N,GNDD*%
X69500000Y-94175000D03*
%TD*%
D15*
%TO.P,U2,1,IN*%
%TO.N,3V3*%
X58162500Y-88850000D03*
%TO.P,U2,2,GND*%
%TO.N,GNDD*%
X58162500Y-89800000D03*
%TO.P,U2,3,EN*%
%TO.N,EN*%
X58162500Y-90750000D03*
%TO.P,U2,4,PG*%
%TO.N,unconnected-(U2-PG-Pad4)*%
X60437500Y-90750000D03*
%TO.P,U2,5,OUT*%
%TO.N,1V8*%
X60437500Y-88850000D03*
%TD*%
D16*
%TO.P,C4,1*%
%TO.N,1V8*%
X59775000Y-87000000D03*
%TO.P,C4,2*%
%TO.N,GNDD*%
X58225000Y-87000000D03*
%TD*%
D17*
%TO.P,U1,1,P0.02_A0_D0*%
%TO.N,A0*%
X59163500Y-66980000D03*
%TO.P,U1,2,P0.03_A1_D1*%
%TO.N,\u002ARESET*%
X59163500Y-69520000D03*
%TO.P,U1,3,P0.28_A2_D2*%
%TO.N,\u002AINT*%
X59163500Y-72060000D03*
%TO.P,U1,4,P0.29_A3_D3*%
%TO.N,unconnected-(U1-P0.29_A3_D3-Pad4)*%
X59163500Y-74600000D03*
%TO.P,U1,5,P0.04_A4_D4_SDA*%
%TO.N,SDA*%
X59163500Y-77140000D03*
%TO.P,U1,6,P0.05_A5_D5_SCL*%
%TO.N,SCL*%
X59163500Y-79680000D03*
%TO.P,U1,7,P1.11_D6_TX*%
%TO.N,FSYNC*%
X59163500Y-82220000D03*
%TO.P,U1,8,P1.12_D7_RX*%
%TO.N,INT1*%
X76163500Y-82220000D03*
%TO.P,U1,9,P1.13_D8_SCK*%
%TO.N,AD0*%
X76163500Y-79680000D03*
%TO.P,U1,10,P1.14_D9_MISO*%
%TO.N,unconnected-(U1-P1.14_D9_MISO-Pad10)*%
X76163500Y-77140000D03*
%TO.P,U1,11,P1.15_D10_MOSI*%
%TO.N,EN*%
X76163500Y-74600000D03*
%TO.P,U1,12,3V3*%
%TO.N,3V3*%
X76163500Y-72060000D03*
%TO.P,U1,13,GND*%
%TO.N,GNDD*%
X76163500Y-69520000D03*
%TO.P,U1,14,5V*%
%TO.N,5V*%
X76163500Y-66980000D03*
D18*
%TO.P,U1,15*%
%TO.N,N/C*%
X66393500Y-66210000D03*
%TO.P,U1,16*%
X68933500Y-66210000D03*
%TO.P,U1,17*%
X66393500Y-68750000D03*
%TO.P,U1,18*%
X68933500Y-68750000D03*
D19*
%TO.P,U1,19*%
X71463500Y-83850000D03*
%TO.P,U1,20*%
X73363500Y-83850000D03*
D20*
%TO.P,U1,21*%
X63163500Y-72400000D03*
%TO.P,U1,22*%
X63163500Y-74300000D03*
%TD*%
D14*
%TO.P,C5,1*%
%TO.N,Net-(U3-REGOUT)*%
X71600000Y-92825000D03*
%TO.P,C5,2*%
%TO.N,GNDD*%
X71600000Y-94375000D03*
%TD*%
D21*
%TO.P,R9,1*%
%TO.N,SDA*%
X69225000Y-86800000D03*
%TO.P,R9,2*%
%TO.N,1V8*%
X67575000Y-86800000D03*
%TD*%
D16*
%TO.P,C1,1*%
%TO.N,3V3*%
X56275000Y-89800000D03*
%TO.P,C1,2*%
%TO.N,GNDD*%
X54725000Y-89800000D03*
%TD*%
D14*
%TO.P,C2,1*%
%TO.N,1V8*%
X62400000Y-88825000D03*
%TO.P,C2,2*%
%TO.N,GNDD*%
X62400000Y-90375000D03*
%TD*%
D22*
%TO.P,U7,*%
%TO.N,*%
X65318889Y-69938699D03*
X64531489Y-69938699D03*
X64531489Y-69151299D03*
%TO.P,U7,GNDD*%
%TO.N,N/C*%
X65318889Y-69151299D03*
%TD*%
D23*
%TO.N,A0*%
X58200000Y-65100000D03*
%TO.N,3V3*%
X56450000Y-89800000D03*
X73000000Y-72050000D03*
%TO.N,GND*%
X56587500Y-80120000D03*
X56587500Y-85145000D03*
X63937500Y-77545000D03*
X54250000Y-80050000D03*
X63837500Y-95120000D03*
X71500000Y-96195000D03*
X56587500Y-73945000D03*
X63950000Y-83220000D03*
X73475000Y-79395000D03*
X61037500Y-93620000D03*
X61500000Y-72900000D03*
X74800000Y-85500000D03*
X54775000Y-73845000D03*
X56487500Y-92120000D03*
X54775000Y-92045000D03*
X61137500Y-81620000D03*
X68475000Y-91370000D03*
X54250000Y-85545000D03*
X73575000Y-91370000D03*
X63875000Y-88700000D03*
X68575000Y-85395000D03*
X61137500Y-87220000D03*
X68475000Y-79395000D03*
X68512500Y-96195000D03*
%TO.N,1V8*%
X72000000Y-86300000D03*
X62412500Y-88812500D03*
X67600000Y-67575000D03*
%TO.N,/EMG2/EMG_OUT*%
X54800000Y-83550000D03*
X62300000Y-69500000D03*
%TO.N,FSYNC*%
X74900000Y-91500000D03*
X62150000Y-83850000D03*
%TO.N,SCL*%
X64200000Y-78700000D03*
X61700000Y-78700000D03*
X68150000Y-70200000D03*
%TO.N,EN*%
X73600000Y-73500000D03*
X59500000Y-89900000D03*
%TO.N,SDA*%
X67800000Y-71200000D03*
%TO.N,5V*%
X76300000Y-67200000D03*
%TO.N,/EMG1/EMG_OUT*%
X54300000Y-78500000D03*
X62300000Y-68794998D03*
%TO.N,/EMG3/EMG_OUT*%
X55400000Y-88200000D03*
X62400000Y-70200000D03*
%TO.N,/EMG4/EMG_OUT*%
X55220000Y-95020000D03*
X62500000Y-71000000D03*
%TO.N,REF*%
X67075000Y-84745000D03*
X66975000Y-79145000D03*
X66975000Y-90325000D03*
X80462500Y-96420000D03*
X66975000Y-96720000D03*
%TO.N,\u002ARESET*%
X67750000Y-68500000D03*
%TO.N,\u002AINT*%
X67794999Y-69294999D03*
%TO.N,A0*%
X66600000Y-72400000D03*
%TO.N,GNDD*%
X76163500Y-69520000D03*
X55300000Y-67815000D03*
X65500000Y-96400000D03*
X61800000Y-66300000D03*
X55300000Y-70355000D03*
X62400000Y-90375000D03*
X54725000Y-89800000D03*
X57000000Y-87800000D03*
X65175000Y-65145000D03*
X65175252Y-72724748D03*
X58162500Y-89800000D03*
X71600000Y-94375000D03*
X71900000Y-87500000D03*
%TD*%
D24*
%TO.N,\u002ARESET*%
X67750000Y-68500000D02*
X66750000Y-67500000D01*
X66750000Y-67500000D02*
X61445500Y-67500000D01*
X61445500Y-67500000D02*
X59425500Y-69520000D01*
X59425500Y-69520000D02*
X59163500Y-69520000D01*
%TO.N,FSYNC*%
X71400000Y-91300000D02*
X71400000Y-91500000D01*
X71400000Y-91500000D02*
X72100000Y-92200000D01*
X74200000Y-92200000D02*
X74900000Y-91500000D01*
X72100000Y-92200000D02*
X74200000Y-92200000D01*
%TO.N,A0*%
X58200000Y-65100000D02*
X58200000Y-66016500D01*
X58200000Y-66016500D02*
X59163500Y-66980000D01*
%TO.N,\u002AINT*%
X67794999Y-69294999D02*
X65589998Y-71500000D01*
X65589998Y-71500000D02*
X59723500Y-71500000D01*
X59723500Y-71500000D02*
X59163500Y-72060000D01*
%TO.N,SCL*%
X68200000Y-70200000D02*
X68300000Y-70200000D01*
X68300000Y-70200000D02*
X68900000Y-70800000D01*
X68150000Y-70200000D02*
X68150000Y-70250000D01*
X68150000Y-70250000D02*
X68200000Y-70200000D01*
X68900000Y-70800000D02*
X68900000Y-74000000D01*
X68900000Y-74000000D02*
X64200000Y-78700000D01*
%TO.N,AD0*%
X70600000Y-91300000D02*
X70600000Y-94900000D01*
X78600000Y-80800000D02*
X77480000Y-79680000D01*
X78600000Y-89300000D02*
X78600000Y-80800000D01*
X70600000Y-94900000D02*
X70900000Y-95200000D01*
X70900000Y-95200000D02*
X72700000Y-95200000D01*
X72700000Y-95200000D02*
X78600000Y-89300000D01*
X77480000Y-79680000D02*
X76163500Y-79680000D01*
%TO.N,3V3*%
X56450000Y-89800000D02*
X56275000Y-89800000D01*
X57225000Y-88850000D02*
X58162500Y-88850000D01*
X73000000Y-72050000D02*
X74250000Y-72050000D01*
X79240000Y-72060000D02*
X76163500Y-72060000D01*
X56275000Y-89800000D02*
X57225000Y-88850000D01*
X74250000Y-72050000D02*
X74260000Y-72060000D01*
X80800000Y-70500000D02*
X79240000Y-72060000D01*
X74260000Y-72060000D02*
X76163500Y-72060000D01*
%TO.N,1V8*%
X62412500Y-88812500D02*
X62400000Y-88825000D01*
X70600000Y-88300000D02*
X70600000Y-88025000D01*
X73800000Y-89575000D02*
X73800000Y-87975000D01*
X72000000Y-86300000D02*
X72125000Y-86300000D01*
X72725000Y-86900000D02*
X72725000Y-86000000D01*
X66200000Y-92625000D02*
X62400000Y-88825000D01*
X62375000Y-88850000D02*
X62400000Y-88825000D01*
X71725000Y-86900000D02*
X72725000Y-86900000D01*
X60437500Y-88850000D02*
X62375000Y-88850000D01*
X72575000Y-90800000D02*
X73800000Y-89575000D01*
X70600000Y-88025000D02*
X71725000Y-86900000D01*
X73800000Y-87975000D02*
X72725000Y-86900000D01*
X69500000Y-92625000D02*
X66200000Y-92625000D01*
X72125000Y-86300000D02*
X72425000Y-86000000D01*
X64425000Y-86800000D02*
X62412500Y-88812500D01*
X72300000Y-90800000D02*
X72575000Y-90800000D01*
X70200000Y-91925000D02*
X70200000Y-91300000D01*
X59775000Y-87000000D02*
X59775000Y-88187500D01*
X59775000Y-88187500D02*
X60437500Y-88850000D01*
X72425000Y-86000000D02*
X72725000Y-86000000D01*
X67575000Y-86800000D02*
X64425000Y-86800000D01*
X69500000Y-92625000D02*
X70200000Y-91925000D01*
%TO.N,Net-(U3-REGOUT)*%
X71000000Y-91525000D02*
X71000000Y-91300000D01*
X71600000Y-92125000D02*
X71000000Y-91525000D01*
X71600000Y-92825000D02*
X71600000Y-92125000D01*
%TO.N,INT1*%
X76163500Y-89418698D02*
X73783298Y-91798900D01*
X76163500Y-82220000D02*
X76163500Y-89418698D01*
X73783298Y-91798900D02*
X72298900Y-91798900D01*
X72298900Y-91798900D02*
X71800000Y-91300000D01*
%TO.N,FSYNC*%
X62150000Y-83850000D02*
X60520000Y-82220000D01*
X60520000Y-82220000D02*
X59163500Y-82220000D01*
%TO.N,SCL*%
X61700000Y-78700000D02*
X60143500Y-78700000D01*
X71075000Y-86000000D02*
X71075000Y-85575000D01*
X71075000Y-85575000D02*
X64200000Y-78700000D01*
X70200000Y-88300000D02*
X70200000Y-86875000D01*
X70200000Y-86875000D02*
X71075000Y-86000000D01*
X60143500Y-78700000D02*
X59163500Y-79680000D01*
%TO.N,EN*%
X58162500Y-90750000D02*
X58650000Y-90750000D01*
X74700000Y-74600000D02*
X76163500Y-74600000D01*
X58650000Y-90750000D02*
X59500000Y-89900000D01*
X73600000Y-73500000D02*
X74700000Y-74600000D01*
%TO.N,SDA*%
X69225000Y-87725000D02*
X69225000Y-84725000D01*
X69225000Y-84725000D02*
X61640000Y-77140000D01*
X62760000Y-77140000D02*
X59163500Y-77140000D01*
X67800000Y-71200000D02*
X67800000Y-72100000D01*
X67800000Y-72100000D02*
X62760000Y-77140000D01*
X61640000Y-77140000D02*
X59163500Y-77140000D01*
X69800000Y-88300000D02*
X69225000Y-87725000D01*
%TO.N,GNDD*%
X71900000Y-87500000D02*
X72300000Y-87900000D01*
X71900000Y-87500000D02*
X71400000Y-88000000D01*
X57000000Y-87800000D02*
X57425000Y-87800000D01*
X71400000Y-88000000D02*
X71400000Y-88300000D01*
X57425000Y-87800000D02*
X58225000Y-87000000D01*
X65500000Y-96400000D02*
X67725000Y-94175000D01*
X72300000Y-87900000D02*
X72300000Y-88800000D01*
X67725000Y-94175000D02*
X69500000Y-94175000D01*
%TD*%
M02*
