%TF.GenerationSoftware,KiCad,Pcbnew,9.0.4*%
%TF.CreationDate,2025-11-03T10:18:42-05:00*%
%TF.ProjectId,Perpetuality,50657270-6574-4756-916c-6974792e6b69,rev?*%
%TF.SameCoordinates,Original*%
%TF.FileFunction,Legend,Bot*%
%TF.FilePolarity,Positive*%
%FSLAX46Y46*%
G04 Gerber Fmt 4.6, Leading zero omitted, Abs format (unit mm)*
G04 Created by KiCad (PCBNEW 9.0.4) date 2025-11-03 10:18:42*
%MOMM*%
%LPD*%
G01*
G04 APERTURE LIST*
%ADD10C,0.100000*%
%ADD11C,0.150000*%
%ADD12C,0.120000*%
%ADD13C,0.152400*%
%ADD14C,0.000000*%
G04 APERTURE END LIST*
D10*
X80295833Y-73669109D02*
X80295833Y-74026252D01*
X80295833Y-74026252D02*
X80272024Y-74097680D01*
X80272024Y-74097680D02*
X80224405Y-74145300D01*
X80224405Y-74145300D02*
X80152976Y-74169109D01*
X80152976Y-74169109D02*
X80105357Y-74169109D01*
X80795833Y-74169109D02*
X80510119Y-74169109D01*
X80652976Y-74169109D02*
X80652976Y-73669109D01*
X80652976Y-73669109D02*
X80605357Y-73740538D01*
X80605357Y-73740538D02*
X80557738Y-73788157D01*
X80557738Y-73788157D02*
X80510119Y-73811966D01*
D11*
X77605357Y-89444819D02*
X77938690Y-88968628D01*
X78176785Y-89444819D02*
X78176785Y-88444819D01*
X78176785Y-88444819D02*
X77795833Y-88444819D01*
X77795833Y-88444819D02*
X77700595Y-88492438D01*
X77700595Y-88492438D02*
X77652976Y-88540057D01*
X77652976Y-88540057D02*
X77605357Y-88635295D01*
X77605357Y-88635295D02*
X77605357Y-88778152D01*
X77605357Y-88778152D02*
X77652976Y-88873390D01*
X77652976Y-88873390D02*
X77700595Y-88921009D01*
X77700595Y-88921009D02*
X77795833Y-88968628D01*
X77795833Y-88968628D02*
X78176785Y-88968628D01*
X77224404Y-88540057D02*
X77176785Y-88492438D01*
X77176785Y-88492438D02*
X77081547Y-88444819D01*
X77081547Y-88444819D02*
X76843452Y-88444819D01*
X76843452Y-88444819D02*
X76748214Y-88492438D01*
X76748214Y-88492438D02*
X76700595Y-88540057D01*
X76700595Y-88540057D02*
X76652976Y-88635295D01*
X76652976Y-88635295D02*
X76652976Y-88730533D01*
X76652976Y-88730533D02*
X76700595Y-88873390D01*
X76700595Y-88873390D02*
X77272023Y-89444819D01*
X77272023Y-89444819D02*
X76652976Y-89444819D01*
X75795833Y-88444819D02*
X75986309Y-88444819D01*
X75986309Y-88444819D02*
X76081547Y-88492438D01*
X76081547Y-88492438D02*
X76129166Y-88540057D01*
X76129166Y-88540057D02*
X76224404Y-88682914D01*
X76224404Y-88682914D02*
X76272023Y-88873390D01*
X76272023Y-88873390D02*
X76272023Y-89254342D01*
X76272023Y-89254342D02*
X76224404Y-89349580D01*
X76224404Y-89349580D02*
X76176785Y-89397200D01*
X76176785Y-89397200D02*
X76081547Y-89444819D01*
X76081547Y-89444819D02*
X75891071Y-89444819D01*
X75891071Y-89444819D02*
X75795833Y-89397200D01*
X75795833Y-89397200D02*
X75748214Y-89349580D01*
X75748214Y-89349580D02*
X75700595Y-89254342D01*
X75700595Y-89254342D02*
X75700595Y-89016247D01*
X75700595Y-89016247D02*
X75748214Y-88921009D01*
X75748214Y-88921009D02*
X75795833Y-88873390D01*
X75795833Y-88873390D02*
X75891071Y-88825771D01*
X75891071Y-88825771D02*
X76081547Y-88825771D01*
X76081547Y-88825771D02*
X76176785Y-88873390D01*
X76176785Y-88873390D02*
X76224404Y-88921009D01*
X76224404Y-88921009D02*
X76272023Y-89016247D01*
X75942857Y-97059580D02*
X75990476Y-97107200D01*
X75990476Y-97107200D02*
X76133333Y-97154819D01*
X76133333Y-97154819D02*
X76228571Y-97154819D01*
X76228571Y-97154819D02*
X76371428Y-97107200D01*
X76371428Y-97107200D02*
X76466666Y-97011961D01*
X76466666Y-97011961D02*
X76514285Y-96916723D01*
X76514285Y-96916723D02*
X76561904Y-96726247D01*
X76561904Y-96726247D02*
X76561904Y-96583390D01*
X76561904Y-96583390D02*
X76514285Y-96392914D01*
X76514285Y-96392914D02*
X76466666Y-96297676D01*
X76466666Y-96297676D02*
X76371428Y-96202438D01*
X76371428Y-96202438D02*
X76228571Y-96154819D01*
X76228571Y-96154819D02*
X76133333Y-96154819D01*
X76133333Y-96154819D02*
X75990476Y-96202438D01*
X75990476Y-96202438D02*
X75942857Y-96250057D01*
X75609523Y-96154819D02*
X74990476Y-96154819D01*
X74990476Y-96154819D02*
X75323809Y-96535771D01*
X75323809Y-96535771D02*
X75180952Y-96535771D01*
X75180952Y-96535771D02*
X75085714Y-96583390D01*
X75085714Y-96583390D02*
X75038095Y-96631009D01*
X75038095Y-96631009D02*
X74990476Y-96726247D01*
X74990476Y-96726247D02*
X74990476Y-96964342D01*
X74990476Y-96964342D02*
X75038095Y-97059580D01*
X75038095Y-97059580D02*
X75085714Y-97107200D01*
X75085714Y-97107200D02*
X75180952Y-97154819D01*
X75180952Y-97154819D02*
X75466666Y-97154819D01*
X75466666Y-97154819D02*
X75561904Y-97107200D01*
X75561904Y-97107200D02*
X75609523Y-97059580D01*
X74038095Y-97154819D02*
X74609523Y-97154819D01*
X74323809Y-97154819D02*
X74323809Y-96154819D01*
X74323809Y-96154819D02*
X74419047Y-96297676D01*
X74419047Y-96297676D02*
X74514285Y-96392914D01*
X74514285Y-96392914D02*
X74609523Y-96440533D01*
X77605357Y-92444819D02*
X77938690Y-91968628D01*
X78176785Y-92444819D02*
X78176785Y-91444819D01*
X78176785Y-91444819D02*
X77795833Y-91444819D01*
X77795833Y-91444819D02*
X77700595Y-91492438D01*
X77700595Y-91492438D02*
X77652976Y-91540057D01*
X77652976Y-91540057D02*
X77605357Y-91635295D01*
X77605357Y-91635295D02*
X77605357Y-91778152D01*
X77605357Y-91778152D02*
X77652976Y-91873390D01*
X77652976Y-91873390D02*
X77700595Y-91921009D01*
X77700595Y-91921009D02*
X77795833Y-91968628D01*
X77795833Y-91968628D02*
X78176785Y-91968628D01*
X77224404Y-91540057D02*
X77176785Y-91492438D01*
X77176785Y-91492438D02*
X77081547Y-91444819D01*
X77081547Y-91444819D02*
X76843452Y-91444819D01*
X76843452Y-91444819D02*
X76748214Y-91492438D01*
X76748214Y-91492438D02*
X76700595Y-91540057D01*
X76700595Y-91540057D02*
X76652976Y-91635295D01*
X76652976Y-91635295D02*
X76652976Y-91730533D01*
X76652976Y-91730533D02*
X76700595Y-91873390D01*
X76700595Y-91873390D02*
X77272023Y-92444819D01*
X77272023Y-92444819D02*
X76652976Y-92444819D01*
X75748214Y-91444819D02*
X76224404Y-91444819D01*
X76224404Y-91444819D02*
X76272023Y-91921009D01*
X76272023Y-91921009D02*
X76224404Y-91873390D01*
X76224404Y-91873390D02*
X76129166Y-91825771D01*
X76129166Y-91825771D02*
X75891071Y-91825771D01*
X75891071Y-91825771D02*
X75795833Y-91873390D01*
X75795833Y-91873390D02*
X75748214Y-91921009D01*
X75748214Y-91921009D02*
X75700595Y-92016247D01*
X75700595Y-92016247D02*
X75700595Y-92254342D01*
X75700595Y-92254342D02*
X75748214Y-92349580D01*
X75748214Y-92349580D02*
X75795833Y-92397200D01*
X75795833Y-92397200D02*
X75891071Y-92444819D01*
X75891071Y-92444819D02*
X76129166Y-92444819D01*
X76129166Y-92444819D02*
X76224404Y-92397200D01*
X76224404Y-92397200D02*
X76272023Y-92349580D01*
X77605357Y-86444819D02*
X77938690Y-85968628D01*
X78176785Y-86444819D02*
X78176785Y-85444819D01*
X78176785Y-85444819D02*
X77795833Y-85444819D01*
X77795833Y-85444819D02*
X77700595Y-85492438D01*
X77700595Y-85492438D02*
X77652976Y-85540057D01*
X77652976Y-85540057D02*
X77605357Y-85635295D01*
X77605357Y-85635295D02*
X77605357Y-85778152D01*
X77605357Y-85778152D02*
X77652976Y-85873390D01*
X77652976Y-85873390D02*
X77700595Y-85921009D01*
X77700595Y-85921009D02*
X77795833Y-85968628D01*
X77795833Y-85968628D02*
X78176785Y-85968628D01*
X76652976Y-86444819D02*
X77224404Y-86444819D01*
X76938690Y-86444819D02*
X76938690Y-85444819D01*
X76938690Y-85444819D02*
X77033928Y-85587676D01*
X77033928Y-85587676D02*
X77129166Y-85682914D01*
X77129166Y-85682914D02*
X77224404Y-85730533D01*
X76081547Y-85873390D02*
X76176785Y-85825771D01*
X76176785Y-85825771D02*
X76224404Y-85778152D01*
X76224404Y-85778152D02*
X76272023Y-85682914D01*
X76272023Y-85682914D02*
X76272023Y-85635295D01*
X76272023Y-85635295D02*
X76224404Y-85540057D01*
X76224404Y-85540057D02*
X76176785Y-85492438D01*
X76176785Y-85492438D02*
X76081547Y-85444819D01*
X76081547Y-85444819D02*
X75891071Y-85444819D01*
X75891071Y-85444819D02*
X75795833Y-85492438D01*
X75795833Y-85492438D02*
X75748214Y-85540057D01*
X75748214Y-85540057D02*
X75700595Y-85635295D01*
X75700595Y-85635295D02*
X75700595Y-85682914D01*
X75700595Y-85682914D02*
X75748214Y-85778152D01*
X75748214Y-85778152D02*
X75795833Y-85825771D01*
X75795833Y-85825771D02*
X75891071Y-85873390D01*
X75891071Y-85873390D02*
X76081547Y-85873390D01*
X76081547Y-85873390D02*
X76176785Y-85921009D01*
X76176785Y-85921009D02*
X76224404Y-85968628D01*
X76224404Y-85968628D02*
X76272023Y-86063866D01*
X76272023Y-86063866D02*
X76272023Y-86254342D01*
X76272023Y-86254342D02*
X76224404Y-86349580D01*
X76224404Y-86349580D02*
X76176785Y-86397200D01*
X76176785Y-86397200D02*
X76081547Y-86444819D01*
X76081547Y-86444819D02*
X75891071Y-86444819D01*
X75891071Y-86444819D02*
X75795833Y-86397200D01*
X75795833Y-86397200D02*
X75748214Y-86349580D01*
X75748214Y-86349580D02*
X75700595Y-86254342D01*
X75700595Y-86254342D02*
X75700595Y-86063866D01*
X75700595Y-86063866D02*
X75748214Y-85968628D01*
X75748214Y-85968628D02*
X75795833Y-85921009D01*
X75795833Y-85921009D02*
X75891071Y-85873390D01*
X77066666Y-79954819D02*
X77399999Y-79478628D01*
X77638094Y-79954819D02*
X77638094Y-78954819D01*
X77638094Y-78954819D02*
X77257142Y-78954819D01*
X77257142Y-78954819D02*
X77161904Y-79002438D01*
X77161904Y-79002438D02*
X77114285Y-79050057D01*
X77114285Y-79050057D02*
X77066666Y-79145295D01*
X77066666Y-79145295D02*
X77066666Y-79288152D01*
X77066666Y-79288152D02*
X77114285Y-79383390D01*
X77114285Y-79383390D02*
X77161904Y-79431009D01*
X77161904Y-79431009D02*
X77257142Y-79478628D01*
X77257142Y-79478628D02*
X77638094Y-79478628D01*
X76685713Y-79050057D02*
X76638094Y-79002438D01*
X76638094Y-79002438D02*
X76542856Y-78954819D01*
X76542856Y-78954819D02*
X76304761Y-78954819D01*
X76304761Y-78954819D02*
X76209523Y-79002438D01*
X76209523Y-79002438D02*
X76161904Y-79050057D01*
X76161904Y-79050057D02*
X76114285Y-79145295D01*
X76114285Y-79145295D02*
X76114285Y-79240533D01*
X76114285Y-79240533D02*
X76161904Y-79383390D01*
X76161904Y-79383390D02*
X76733332Y-79954819D01*
X76733332Y-79954819D02*
X76114285Y-79954819D01*
X82280951Y-65731009D02*
X81947618Y-65731009D01*
X81804761Y-66254819D02*
X82280951Y-66254819D01*
X82280951Y-66254819D02*
X82280951Y-65254819D01*
X82280951Y-65254819D02*
X81804761Y-65254819D01*
X81376189Y-66254819D02*
X81376189Y-65254819D01*
X81376189Y-65254819D02*
X81042856Y-65969104D01*
X81042856Y-65969104D02*
X80709523Y-65254819D01*
X80709523Y-65254819D02*
X80709523Y-66254819D01*
X79709523Y-65302438D02*
X79804761Y-65254819D01*
X79804761Y-65254819D02*
X79947618Y-65254819D01*
X79947618Y-65254819D02*
X80090475Y-65302438D01*
X80090475Y-65302438D02*
X80185713Y-65397676D01*
X80185713Y-65397676D02*
X80233332Y-65492914D01*
X80233332Y-65492914D02*
X80280951Y-65683390D01*
X80280951Y-65683390D02*
X80280951Y-65826247D01*
X80280951Y-65826247D02*
X80233332Y-66016723D01*
X80233332Y-66016723D02*
X80185713Y-66111961D01*
X80185713Y-66111961D02*
X80090475Y-66207200D01*
X80090475Y-66207200D02*
X79947618Y-66254819D01*
X79947618Y-66254819D02*
X79852380Y-66254819D01*
X79852380Y-66254819D02*
X79709523Y-66207200D01*
X79709523Y-66207200D02*
X79661904Y-66159580D01*
X79661904Y-66159580D02*
X79661904Y-65826247D01*
X79661904Y-65826247D02*
X79852380Y-65826247D01*
X78709523Y-66254819D02*
X79280951Y-66254819D01*
X78995237Y-66254819D02*
X78995237Y-65254819D01*
X78995237Y-65254819D02*
X79090475Y-65397676D01*
X79090475Y-65397676D02*
X79185713Y-65492914D01*
X79185713Y-65492914D02*
X79280951Y-65540533D01*
X78280951Y-65873866D02*
X77519047Y-65873866D01*
X77899999Y-66254819D02*
X77899999Y-65492914D01*
X77166666Y-77054819D02*
X77499999Y-76578628D01*
X77738094Y-77054819D02*
X77738094Y-76054819D01*
X77738094Y-76054819D02*
X77357142Y-76054819D01*
X77357142Y-76054819D02*
X77261904Y-76102438D01*
X77261904Y-76102438D02*
X77214285Y-76150057D01*
X77214285Y-76150057D02*
X77166666Y-76245295D01*
X77166666Y-76245295D02*
X77166666Y-76388152D01*
X77166666Y-76388152D02*
X77214285Y-76483390D01*
X77214285Y-76483390D02*
X77261904Y-76531009D01*
X77261904Y-76531009D02*
X77357142Y-76578628D01*
X77357142Y-76578628D02*
X77738094Y-76578628D01*
X76833332Y-76054819D02*
X76214285Y-76054819D01*
X76214285Y-76054819D02*
X76547618Y-76435771D01*
X76547618Y-76435771D02*
X76404761Y-76435771D01*
X76404761Y-76435771D02*
X76309523Y-76483390D01*
X76309523Y-76483390D02*
X76261904Y-76531009D01*
X76261904Y-76531009D02*
X76214285Y-76626247D01*
X76214285Y-76626247D02*
X76214285Y-76864342D01*
X76214285Y-76864342D02*
X76261904Y-76959580D01*
X76261904Y-76959580D02*
X76309523Y-77007200D01*
X76309523Y-77007200D02*
X76404761Y-77054819D01*
X76404761Y-77054819D02*
X76690475Y-77054819D01*
X76690475Y-77054819D02*
X76785713Y-77007200D01*
X76785713Y-77007200D02*
X76833332Y-76959580D01*
X77505357Y-73969819D02*
X77838690Y-73493628D01*
X78076785Y-73969819D02*
X78076785Y-72969819D01*
X78076785Y-72969819D02*
X77695833Y-72969819D01*
X77695833Y-72969819D02*
X77600595Y-73017438D01*
X77600595Y-73017438D02*
X77552976Y-73065057D01*
X77552976Y-73065057D02*
X77505357Y-73160295D01*
X77505357Y-73160295D02*
X77505357Y-73303152D01*
X77505357Y-73303152D02*
X77552976Y-73398390D01*
X77552976Y-73398390D02*
X77600595Y-73446009D01*
X77600595Y-73446009D02*
X77695833Y-73493628D01*
X77695833Y-73493628D02*
X78076785Y-73493628D01*
X76552976Y-73969819D02*
X77124404Y-73969819D01*
X76838690Y-73969819D02*
X76838690Y-72969819D01*
X76838690Y-72969819D02*
X76933928Y-73112676D01*
X76933928Y-73112676D02*
X77029166Y-73207914D01*
X77029166Y-73207914D02*
X77124404Y-73255533D01*
X75600595Y-73969819D02*
X76172023Y-73969819D01*
X75886309Y-73969819D02*
X75886309Y-72969819D01*
X75886309Y-72969819D02*
X75981547Y-73112676D01*
X75981547Y-73112676D02*
X76076785Y-73207914D01*
X76076785Y-73207914D02*
X76172023Y-73255533D01*
X77605357Y-82969819D02*
X77938690Y-82493628D01*
X78176785Y-82969819D02*
X78176785Y-81969819D01*
X78176785Y-81969819D02*
X77795833Y-81969819D01*
X77795833Y-81969819D02*
X77700595Y-82017438D01*
X77700595Y-82017438D02*
X77652976Y-82065057D01*
X77652976Y-82065057D02*
X77605357Y-82160295D01*
X77605357Y-82160295D02*
X77605357Y-82303152D01*
X77605357Y-82303152D02*
X77652976Y-82398390D01*
X77652976Y-82398390D02*
X77700595Y-82446009D01*
X77700595Y-82446009D02*
X77795833Y-82493628D01*
X77795833Y-82493628D02*
X78176785Y-82493628D01*
X76652976Y-82969819D02*
X77224404Y-82969819D01*
X76938690Y-82969819D02*
X76938690Y-81969819D01*
X76938690Y-81969819D02*
X77033928Y-82112676D01*
X77033928Y-82112676D02*
X77129166Y-82207914D01*
X77129166Y-82207914D02*
X77224404Y-82255533D01*
X76176785Y-82969819D02*
X75986309Y-82969819D01*
X75986309Y-82969819D02*
X75891071Y-82922200D01*
X75891071Y-82922200D02*
X75843452Y-82874580D01*
X75843452Y-82874580D02*
X75748214Y-82731723D01*
X75748214Y-82731723D02*
X75700595Y-82541247D01*
X75700595Y-82541247D02*
X75700595Y-82160295D01*
X75700595Y-82160295D02*
X75748214Y-82065057D01*
X75748214Y-82065057D02*
X75795833Y-82017438D01*
X75795833Y-82017438D02*
X75891071Y-81969819D01*
X75891071Y-81969819D02*
X76081547Y-81969819D01*
X76081547Y-81969819D02*
X76176785Y-82017438D01*
X76176785Y-82017438D02*
X76224404Y-82065057D01*
X76224404Y-82065057D02*
X76272023Y-82160295D01*
X76272023Y-82160295D02*
X76272023Y-82398390D01*
X76272023Y-82398390D02*
X76224404Y-82493628D01*
X76224404Y-82493628D02*
X76176785Y-82541247D01*
X76176785Y-82541247D02*
X76081547Y-82588866D01*
X76081547Y-82588866D02*
X75891071Y-82588866D01*
X75891071Y-82588866D02*
X75795833Y-82541247D01*
X75795833Y-82541247D02*
X75748214Y-82493628D01*
X75748214Y-82493628D02*
X75700595Y-82398390D01*
X82280951Y-68031009D02*
X81947618Y-68031009D01*
X81804761Y-68554819D02*
X82280951Y-68554819D01*
X82280951Y-68554819D02*
X82280951Y-67554819D01*
X82280951Y-67554819D02*
X81804761Y-67554819D01*
X81376189Y-68554819D02*
X81376189Y-67554819D01*
X81376189Y-67554819D02*
X81042856Y-68269104D01*
X81042856Y-68269104D02*
X80709523Y-67554819D01*
X80709523Y-67554819D02*
X80709523Y-68554819D01*
X79709523Y-67602438D02*
X79804761Y-67554819D01*
X79804761Y-67554819D02*
X79947618Y-67554819D01*
X79947618Y-67554819D02*
X80090475Y-67602438D01*
X80090475Y-67602438D02*
X80185713Y-67697676D01*
X80185713Y-67697676D02*
X80233332Y-67792914D01*
X80233332Y-67792914D02*
X80280951Y-67983390D01*
X80280951Y-67983390D02*
X80280951Y-68126247D01*
X80280951Y-68126247D02*
X80233332Y-68316723D01*
X80233332Y-68316723D02*
X80185713Y-68411961D01*
X80185713Y-68411961D02*
X80090475Y-68507200D01*
X80090475Y-68507200D02*
X79947618Y-68554819D01*
X79947618Y-68554819D02*
X79852380Y-68554819D01*
X79852380Y-68554819D02*
X79709523Y-68507200D01*
X79709523Y-68507200D02*
X79661904Y-68459580D01*
X79661904Y-68459580D02*
X79661904Y-68126247D01*
X79661904Y-68126247D02*
X79852380Y-68126247D01*
X78804761Y-67888152D02*
X78804761Y-68554819D01*
X79042856Y-67507200D02*
X79280951Y-68221485D01*
X79280951Y-68221485D02*
X78661904Y-68221485D01*
X78280951Y-68173866D02*
X77519047Y-68173866D01*
X77899999Y-68554819D02*
X77899999Y-67792914D01*
X81176189Y-66959580D02*
X81128570Y-67007200D01*
X81128570Y-67007200D02*
X81176189Y-67054819D01*
X81176189Y-67054819D02*
X81223808Y-67007200D01*
X81223808Y-67007200D02*
X81176189Y-66959580D01*
X81176189Y-66959580D02*
X81176189Y-67054819D01*
X80699999Y-66959580D02*
X80652380Y-67007200D01*
X80652380Y-67007200D02*
X80699999Y-67054819D01*
X80699999Y-67054819D02*
X80747618Y-67007200D01*
X80747618Y-67007200D02*
X80699999Y-66959580D01*
X80699999Y-66959580D02*
X80699999Y-67054819D01*
X80223809Y-66959580D02*
X80176190Y-67007200D01*
X80176190Y-67007200D02*
X80223809Y-67054819D01*
X80223809Y-67054819D02*
X80271428Y-67007200D01*
X80271428Y-67007200D02*
X80223809Y-66959580D01*
X80223809Y-66959580D02*
X80223809Y-67054819D01*
X80971428Y-70054819D02*
X81304761Y-69578628D01*
X81542856Y-70054819D02*
X81542856Y-69054819D01*
X81542856Y-69054819D02*
X81161904Y-69054819D01*
X81161904Y-69054819D02*
X81066666Y-69102438D01*
X81066666Y-69102438D02*
X81019047Y-69150057D01*
X81019047Y-69150057D02*
X80971428Y-69245295D01*
X80971428Y-69245295D02*
X80971428Y-69388152D01*
X80971428Y-69388152D02*
X81019047Y-69483390D01*
X81019047Y-69483390D02*
X81066666Y-69531009D01*
X81066666Y-69531009D02*
X81161904Y-69578628D01*
X81161904Y-69578628D02*
X81542856Y-69578628D01*
X80542856Y-69531009D02*
X80209523Y-69531009D01*
X80066666Y-70054819D02*
X80542856Y-70054819D01*
X80542856Y-70054819D02*
X80542856Y-69054819D01*
X80542856Y-69054819D02*
X80066666Y-69054819D01*
X79304761Y-69531009D02*
X79638094Y-69531009D01*
X79638094Y-70054819D02*
X79638094Y-69054819D01*
X79638094Y-69054819D02*
X79161904Y-69054819D01*
X76442857Y-95559580D02*
X76490476Y-95607200D01*
X76490476Y-95607200D02*
X76633333Y-95654819D01*
X76633333Y-95654819D02*
X76728571Y-95654819D01*
X76728571Y-95654819D02*
X76871428Y-95607200D01*
X76871428Y-95607200D02*
X76966666Y-95511961D01*
X76966666Y-95511961D02*
X77014285Y-95416723D01*
X77014285Y-95416723D02*
X77061904Y-95226247D01*
X77061904Y-95226247D02*
X77061904Y-95083390D01*
X77061904Y-95083390D02*
X77014285Y-94892914D01*
X77014285Y-94892914D02*
X76966666Y-94797676D01*
X76966666Y-94797676D02*
X76871428Y-94702438D01*
X76871428Y-94702438D02*
X76728571Y-94654819D01*
X76728571Y-94654819D02*
X76633333Y-94654819D01*
X76633333Y-94654819D02*
X76490476Y-94702438D01*
X76490476Y-94702438D02*
X76442857Y-94750057D01*
X76109523Y-94654819D02*
X75490476Y-94654819D01*
X75490476Y-94654819D02*
X75823809Y-95035771D01*
X75823809Y-95035771D02*
X75680952Y-95035771D01*
X75680952Y-95035771D02*
X75585714Y-95083390D01*
X75585714Y-95083390D02*
X75538095Y-95131009D01*
X75538095Y-95131009D02*
X75490476Y-95226247D01*
X75490476Y-95226247D02*
X75490476Y-95464342D01*
X75490476Y-95464342D02*
X75538095Y-95559580D01*
X75538095Y-95559580D02*
X75585714Y-95607200D01*
X75585714Y-95607200D02*
X75680952Y-95654819D01*
X75680952Y-95654819D02*
X75966666Y-95654819D01*
X75966666Y-95654819D02*
X76061904Y-95607200D01*
X76061904Y-95607200D02*
X76109523Y-95559580D01*
X74871428Y-94654819D02*
X74776190Y-94654819D01*
X74776190Y-94654819D02*
X74680952Y-94702438D01*
X74680952Y-94702438D02*
X74633333Y-94750057D01*
X74633333Y-94750057D02*
X74585714Y-94845295D01*
X74585714Y-94845295D02*
X74538095Y-95035771D01*
X74538095Y-95035771D02*
X74538095Y-95273866D01*
X74538095Y-95273866D02*
X74585714Y-95464342D01*
X74585714Y-95464342D02*
X74633333Y-95559580D01*
X74633333Y-95559580D02*
X74680952Y-95607200D01*
X74680952Y-95607200D02*
X74776190Y-95654819D01*
X74776190Y-95654819D02*
X74871428Y-95654819D01*
X74871428Y-95654819D02*
X74966666Y-95607200D01*
X74966666Y-95607200D02*
X75014285Y-95559580D01*
X75014285Y-95559580D02*
X75061904Y-95464342D01*
X75061904Y-95464342D02*
X75109523Y-95273866D01*
X75109523Y-95273866D02*
X75109523Y-95035771D01*
X75109523Y-95035771D02*
X75061904Y-94845295D01*
X75061904Y-94845295D02*
X75014285Y-94750057D01*
X75014285Y-94750057D02*
X74966666Y-94702438D01*
X74966666Y-94702438D02*
X74871428Y-94654819D01*
X77442857Y-70854819D02*
X77776190Y-70378628D01*
X78014285Y-70854819D02*
X78014285Y-69854819D01*
X78014285Y-69854819D02*
X77633333Y-69854819D01*
X77633333Y-69854819D02*
X77538095Y-69902438D01*
X77538095Y-69902438D02*
X77490476Y-69950057D01*
X77490476Y-69950057D02*
X77442857Y-70045295D01*
X77442857Y-70045295D02*
X77442857Y-70188152D01*
X77442857Y-70188152D02*
X77490476Y-70283390D01*
X77490476Y-70283390D02*
X77538095Y-70331009D01*
X77538095Y-70331009D02*
X77633333Y-70378628D01*
X77633333Y-70378628D02*
X78014285Y-70378628D01*
X76490476Y-70854819D02*
X77061904Y-70854819D01*
X76776190Y-70854819D02*
X76776190Y-69854819D01*
X76776190Y-69854819D02*
X76871428Y-69997676D01*
X76871428Y-69997676D02*
X76966666Y-70092914D01*
X76966666Y-70092914D02*
X77061904Y-70140533D01*
X76109523Y-69950057D02*
X76061904Y-69902438D01*
X76061904Y-69902438D02*
X75966666Y-69854819D01*
X75966666Y-69854819D02*
X75728571Y-69854819D01*
X75728571Y-69854819D02*
X75633333Y-69902438D01*
X75633333Y-69902438D02*
X75585714Y-69950057D01*
X75585714Y-69950057D02*
X75538095Y-70045295D01*
X75538095Y-70045295D02*
X75538095Y-70140533D01*
X75538095Y-70140533D02*
X75585714Y-70283390D01*
X75585714Y-70283390D02*
X76157142Y-70854819D01*
X76157142Y-70854819D02*
X75538095Y-70854819D01*
X82280951Y-64331009D02*
X81947618Y-64331009D01*
X81804761Y-64854819D02*
X82280951Y-64854819D01*
X82280951Y-64854819D02*
X82280951Y-63854819D01*
X82280951Y-63854819D02*
X81804761Y-63854819D01*
X81376189Y-64854819D02*
X81376189Y-63854819D01*
X81376189Y-63854819D02*
X81042856Y-64569104D01*
X81042856Y-64569104D02*
X80709523Y-63854819D01*
X80709523Y-63854819D02*
X80709523Y-64854819D01*
X79709523Y-63902438D02*
X79804761Y-63854819D01*
X79804761Y-63854819D02*
X79947618Y-63854819D01*
X79947618Y-63854819D02*
X80090475Y-63902438D01*
X80090475Y-63902438D02*
X80185713Y-63997676D01*
X80185713Y-63997676D02*
X80233332Y-64092914D01*
X80233332Y-64092914D02*
X80280951Y-64283390D01*
X80280951Y-64283390D02*
X80280951Y-64426247D01*
X80280951Y-64426247D02*
X80233332Y-64616723D01*
X80233332Y-64616723D02*
X80185713Y-64711961D01*
X80185713Y-64711961D02*
X80090475Y-64807200D01*
X80090475Y-64807200D02*
X79947618Y-64854819D01*
X79947618Y-64854819D02*
X79852380Y-64854819D01*
X79852380Y-64854819D02*
X79709523Y-64807200D01*
X79709523Y-64807200D02*
X79661904Y-64759580D01*
X79661904Y-64759580D02*
X79661904Y-64426247D01*
X79661904Y-64426247D02*
X79852380Y-64426247D01*
X78709523Y-64854819D02*
X79280951Y-64854819D01*
X78995237Y-64854819D02*
X78995237Y-63854819D01*
X78995237Y-63854819D02*
X79090475Y-63997676D01*
X79090475Y-63997676D02*
X79185713Y-64092914D01*
X79185713Y-64092914D02*
X79280951Y-64140533D01*
X78280951Y-64473866D02*
X77519047Y-64473866D01*
D12*
%TO.C,R17*%
X70837742Y-84597500D02*
X71312258Y-84597500D01*
X70837742Y-85642500D02*
X71312258Y-85642500D01*
%TO.C,R1*%
X70737742Y-78597500D02*
X71212258Y-78597500D01*
X70737742Y-79642500D02*
X71212258Y-79642500D01*
%TO.C,R26*%
X77199758Y-89897500D02*
X76725242Y-89897500D01*
X77199758Y-90942500D02*
X76725242Y-90942500D01*
%TO.C,U5*%
X57962500Y-83480000D02*
X56562500Y-83480000D01*
X57972500Y-81160000D02*
X56562500Y-81160000D01*
X58342500Y-81210000D02*
X58102500Y-80880000D01*
X58582500Y-80880000D01*
X58342500Y-81210000D01*
G36*
X58342500Y-81210000D02*
G01*
X58102500Y-80880000D01*
X58582500Y-80880000D01*
X58342500Y-81210000D01*
G37*
%TO.C,R27*%
X66452500Y-96132258D02*
X66452500Y-95657742D01*
X67497500Y-96132258D02*
X67497500Y-95657742D01*
%TO.C,C31*%
X69428080Y-95685000D02*
X69146920Y-95685000D01*
X69428080Y-96705000D02*
X69146920Y-96705000D01*
%TO.C,C33*%
X63403080Y-93110000D02*
X63121920Y-93110000D01*
X63403080Y-94130000D02*
X63121920Y-94130000D01*
%TO.C,C26*%
X63503080Y-86710000D02*
X63221920Y-86710000D01*
X63503080Y-87730000D02*
X63221920Y-87730000D01*
%TO.C,U4*%
X70987500Y-80035000D02*
X69487500Y-80035000D01*
X70987500Y-80035000D02*
X72487500Y-80035000D01*
X70987500Y-83255000D02*
X69487500Y-83255000D01*
X70987500Y-83255000D02*
X72487500Y-83255000D01*
X73200000Y-80160000D02*
X72960000Y-79830000D01*
X73440000Y-79830000D01*
X73200000Y-80160000D01*
G36*
X73200000Y-80160000D02*
G01*
X72960000Y-79830000D01*
X73440000Y-79830000D01*
X73200000Y-80160000D01*
G37*
%TO.C,C34*%
X57121920Y-91610000D02*
X57403080Y-91610000D01*
X57121920Y-92630000D02*
X57403080Y-92630000D01*
%TO.C,C13*%
X60221920Y-81110000D02*
X60503080Y-81110000D01*
X60221920Y-82130000D02*
X60503080Y-82130000D01*
%TO.C,R25*%
X77199758Y-92897500D02*
X76725242Y-92897500D01*
X77199758Y-93942500D02*
X76725242Y-93942500D01*
%TO.C,R23*%
X62024758Y-84722500D02*
X61550242Y-84722500D01*
X62024758Y-85767500D02*
X61550242Y-85767500D01*
%TO.C,J7*%
X79262500Y-86220000D02*
X79262500Y-88620000D01*
X79262500Y-88620000D02*
X81662500Y-88620000D01*
X81662500Y-86220000D02*
X79262500Y-86220000D01*
X81662500Y-88620000D02*
X81662500Y-86220000D01*
%TO.C,J9*%
X79262500Y-92220000D02*
X79262500Y-94620000D01*
X79262500Y-94620000D02*
X81662500Y-94620000D01*
X81662500Y-92220000D02*
X79262500Y-92220000D01*
X81662500Y-94620000D02*
X81662500Y-92220000D01*
%TO.C,C15*%
X55940580Y-65590000D02*
X55659420Y-65590000D01*
X55940580Y-66610000D02*
X55659420Y-66610000D01*
%TO.C,C24*%
X67965000Y-90454420D02*
X67965000Y-90735580D01*
X68985000Y-90454420D02*
X68985000Y-90735580D01*
%TO.C,R18*%
X77199758Y-86897500D02*
X76725242Y-86897500D01*
X77199758Y-87942500D02*
X76725242Y-87942500D01*
%TO.C,C27*%
X57221920Y-84635000D02*
X57503080Y-84635000D01*
X57221920Y-85655000D02*
X57503080Y-85655000D01*
%TO.C,R28*%
X64425242Y-94597500D02*
X64899758Y-94597500D01*
X64425242Y-95642500D02*
X64899758Y-95642500D01*
%TO.C,C12*%
X57221920Y-79610000D02*
X57503080Y-79610000D01*
X57221920Y-80630000D02*
X57503080Y-80630000D01*
%TO.C,C6*%
X73065000Y-84479420D02*
X73065000Y-84760580D01*
X74085000Y-84479420D02*
X74085000Y-84760580D01*
%TO.C,R2*%
X76974758Y-80377500D02*
X76500242Y-80377500D01*
X76974758Y-81422500D02*
X76500242Y-81422500D01*
%TO.C,U6*%
X70975000Y-74010000D02*
X69475000Y-74010000D01*
X70975000Y-74010000D02*
X72475000Y-74010000D01*
X70975000Y-77230000D02*
X69475000Y-77230000D01*
X70975000Y-77230000D02*
X72475000Y-77230000D01*
X73187500Y-74135000D02*
X72947500Y-73805000D01*
X73427500Y-73805000D01*
X73187500Y-74135000D01*
G36*
X73187500Y-74135000D02*
G01*
X72947500Y-73805000D01*
X73427500Y-73805000D01*
X73187500Y-74135000D01*
G37*
%TO.C,EMG1+*%
X79262500Y-73745000D02*
X79262500Y-76145000D01*
X79262500Y-76145000D02*
X81662500Y-76145000D01*
X81662500Y-73745000D02*
X79262500Y-73745000D01*
X81662500Y-76145000D02*
X81662500Y-73745000D01*
%TO.C,R3*%
X77199758Y-77477500D02*
X76725242Y-77477500D01*
X77199758Y-78522500D02*
X76725242Y-78522500D01*
%TO.C,U9*%
X57862500Y-77305000D02*
X56462500Y-77305000D01*
X57872500Y-74985000D02*
X56462500Y-74985000D01*
X58242500Y-75035000D02*
X58002500Y-74705000D01*
X58482500Y-74705000D01*
X58242500Y-75035000D01*
G36*
X58242500Y-75035000D02*
G01*
X58002500Y-74705000D01*
X58482500Y-74705000D01*
X58242500Y-75035000D01*
G37*
%TO.C,C21*%
X60121920Y-75535000D02*
X60403080Y-75535000D01*
X60121920Y-76555000D02*
X60403080Y-76555000D01*
%TO.C,R15*%
X64899758Y-74022500D02*
X64425242Y-74022500D01*
X64899758Y-75067500D02*
X64425242Y-75067500D01*
%TO.C,J4*%
X79262500Y-95220000D02*
X79262500Y-97620000D01*
X79262500Y-97620000D02*
X81662500Y-97620000D01*
X81662500Y-95220000D02*
X79262500Y-95220000D01*
X81662500Y-97620000D02*
X81662500Y-95220000D01*
%TO.C,R7*%
X61999758Y-79597500D02*
X61525242Y-79597500D01*
X61999758Y-80642500D02*
X61525242Y-80642500D01*
%TO.C,R20*%
X66452500Y-89737258D02*
X66452500Y-89262742D01*
X67497500Y-89737258D02*
X67497500Y-89262742D01*
%TO.C,R11*%
X77099758Y-74422500D02*
X76625242Y-74422500D01*
X77099758Y-75467500D02*
X76625242Y-75467500D01*
%TO.C,C35*%
X60121920Y-93110000D02*
X60403080Y-93110000D01*
X60121920Y-94130000D02*
X60403080Y-94130000D01*
%TO.C,C17*%
X72965000Y-78479420D02*
X72965000Y-78760580D01*
X73985000Y-78479420D02*
X73985000Y-78760580D01*
%TO.C,C19*%
X57221920Y-73435000D02*
X57503080Y-73435000D01*
X57221920Y-74455000D02*
X57503080Y-74455000D01*
%TO.C,R19*%
X77199758Y-83422500D02*
X76725242Y-83422500D01*
X77199758Y-84467500D02*
X76725242Y-84467500D01*
%TO.C,C23*%
X73065000Y-90454420D02*
X73065000Y-90735580D01*
X74085000Y-90454420D02*
X74085000Y-90735580D01*
%TO.C,C9*%
X67159420Y-65990000D02*
X67440580Y-65990000D01*
X67159420Y-67010000D02*
X67440580Y-67010000D01*
%TO.C,U8*%
X57775000Y-67160000D02*
X55825000Y-67160000D01*
X57775000Y-67160000D02*
X59725000Y-67160000D01*
X57775000Y-72280000D02*
X55825000Y-72280000D01*
X57775000Y-72280000D02*
X59725000Y-72280000D01*
X55315000Y-72515000D02*
X54835000Y-72515000D01*
X55075000Y-72185000D01*
X55315000Y-72515000D01*
G36*
X55315000Y-72515000D02*
G01*
X54835000Y-72515000D01*
X55075000Y-72185000D01*
X55315000Y-72515000D01*
G37*
%TO.C,C29*%
X54365000Y-86460580D02*
X54365000Y-86179420D01*
X55385000Y-86460580D02*
X55385000Y-86179420D01*
%TO.C,C10*%
X64665000Y-66060580D02*
X64665000Y-65779420D01*
X65685000Y-66060580D02*
X65685000Y-65779420D01*
%TO.C,C8*%
X66390580Y-81110000D02*
X66109420Y-81110000D01*
X66390580Y-82130000D02*
X66109420Y-82130000D01*
%TO.C,R24*%
X70837742Y-90572500D02*
X71312258Y-90572500D01*
X70837742Y-91617500D02*
X71312258Y-91617500D01*
%TO.C,EMG4+*%
X79237500Y-79700000D02*
X79237500Y-82100000D01*
X79237500Y-82100000D02*
X81637500Y-82100000D01*
X81637500Y-79700000D02*
X79237500Y-79700000D01*
X81637500Y-82100000D02*
X81637500Y-79700000D01*
%TO.C,U10*%
X71062500Y-85985000D02*
X69562500Y-85985000D01*
X71062500Y-85985000D02*
X72562500Y-85985000D01*
X71062500Y-89205000D02*
X69562500Y-89205000D01*
X71062500Y-89205000D02*
X72562500Y-89205000D01*
X73275000Y-86110000D02*
X73035000Y-85780000D01*
X73515000Y-85780000D01*
X73275000Y-86110000D01*
G36*
X73275000Y-86110000D02*
G01*
X73035000Y-85780000D01*
X73515000Y-85780000D01*
X73275000Y-86110000D01*
G37*
%TO.C,C36*%
X54265000Y-92960580D02*
X54265000Y-92679420D01*
X55285000Y-92960580D02*
X55285000Y-92679420D01*
%TO.C,R30*%
X61874758Y-91597500D02*
X61400242Y-91597500D01*
X61874758Y-92642500D02*
X61400242Y-92642500D01*
%TO.C,...*%
X79262500Y-76800000D02*
X79262500Y-79200000D01*
X79262500Y-79200000D02*
X81662500Y-79200000D01*
X81662500Y-76800000D02*
X79262500Y-76800000D01*
X81662500Y-79200000D02*
X81662500Y-76800000D01*
%TO.C,R13*%
X66452500Y-78557258D02*
X66452500Y-78082742D01*
X67497500Y-78557258D02*
X67497500Y-78082742D01*
%TO.C,C16*%
X66403080Y-75535000D02*
X66121920Y-75535000D01*
X66403080Y-76555000D02*
X66121920Y-76555000D01*
%TO.C,C7*%
X68065000Y-84479420D02*
X68065000Y-84760580D01*
X69085000Y-84479420D02*
X69085000Y-84760580D01*
%TO.C,REF*%
X79262500Y-82745000D02*
X79262500Y-85145000D01*
X79262500Y-85145000D02*
X81662500Y-85145000D01*
X81662500Y-82745000D02*
X79262500Y-82745000D01*
X81662500Y-85145000D02*
X81662500Y-82745000D01*
%TO.C,C28*%
X60221920Y-86710000D02*
X60503080Y-86710000D01*
X60221920Y-87730000D02*
X60503080Y-87730000D01*
%TO.C,U13*%
X57812500Y-95530000D02*
X56412500Y-95530000D01*
X57822500Y-93210000D02*
X56412500Y-93210000D01*
X58192500Y-93260000D02*
X57952500Y-92930000D01*
X58432500Y-92930000D01*
X58192500Y-93260000D01*
G36*
X58192500Y-93260000D02*
G01*
X57952500Y-92930000D01*
X58432500Y-92930000D01*
X58192500Y-93260000D01*
G37*
%TO.C,C20*%
X63403080Y-75535000D02*
X63121920Y-75535000D01*
X63403080Y-76555000D02*
X63121920Y-76555000D01*
%TO.C,C30*%
X72415580Y-95685000D02*
X72134420Y-95685000D01*
X72415580Y-96705000D02*
X72134420Y-96705000D01*
%TO.C,R21*%
X64462742Y-88177500D02*
X64937258Y-88177500D01*
X64462742Y-89222500D02*
X64937258Y-89222500D01*
%TO.C,J10*%
X79262500Y-89220000D02*
X79262500Y-91620000D01*
X79262500Y-91620000D02*
X81662500Y-91620000D01*
X81662500Y-89220000D02*
X79262500Y-89220000D01*
X81662500Y-91620000D02*
X81662500Y-89220000D01*
%TO.C,C11*%
X63503080Y-81110000D02*
X63221920Y-81110000D01*
X63503080Y-82130000D02*
X63221920Y-82130000D01*
%TO.C,R6*%
X64999758Y-79597500D02*
X64525242Y-79597500D01*
X64999758Y-80642500D02*
X64525242Y-80642500D01*
%TO.C,R12*%
X76799758Y-71322500D02*
X76325242Y-71322500D01*
X76799758Y-72367500D02*
X76325242Y-72367500D01*
%TO.C,C22*%
X54265000Y-74760580D02*
X54265000Y-74479420D01*
X55285000Y-74760580D02*
X55285000Y-74479420D01*
%TO.C,C18*%
X67965000Y-78479420D02*
X67965000Y-78760580D01*
X68985000Y-78479420D02*
X68985000Y-78760580D01*
%TO.C,R5*%
X64537742Y-82697500D02*
X65012258Y-82697500D01*
X64537742Y-83742500D02*
X65012258Y-83742500D01*
%TO.C,R10*%
X70737742Y-72497500D02*
X71212258Y-72497500D01*
X70737742Y-73542500D02*
X71212258Y-73542500D01*
%TO.C,U12*%
X70975000Y-91985000D02*
X69475000Y-91985000D01*
X70975000Y-91985000D02*
X72475000Y-91985000D01*
X70975000Y-95205000D02*
X69475000Y-95205000D01*
X70975000Y-95205000D02*
X72475000Y-95205000D01*
X73187500Y-92110000D02*
X72947500Y-91780000D01*
X73427500Y-91780000D01*
X73187500Y-92110000D01*
G36*
X73187500Y-92110000D02*
G01*
X72947500Y-91780000D01*
X73427500Y-91780000D01*
X73187500Y-92110000D01*
G37*
%TO.C,R22*%
X64999758Y-84722500D02*
X64525242Y-84722500D01*
X64999758Y-85767500D02*
X64525242Y-85767500D01*
D13*
%TO.C,U7*%
X63096389Y-67716199D02*
X63702260Y-67716199D01*
X63096389Y-68322258D02*
X63096389Y-67716199D01*
X63096389Y-71373799D02*
X63096389Y-70767740D01*
X63702260Y-71373799D02*
X63096389Y-71373799D01*
X66148118Y-67716199D02*
X66753989Y-67716199D01*
X66753989Y-67716199D02*
X66753989Y-68322258D01*
X66753989Y-70767740D02*
X66753989Y-71373799D01*
X66753989Y-71373799D02*
X66148118Y-71373799D01*
D14*
G36*
X62771190Y-69985499D02*
G01*
X62517190Y-69985499D01*
X62517190Y-69604498D01*
X62771190Y-69604498D01*
X62771190Y-69985499D01*
G37*
D12*
%TO.C,R29*%
X64899758Y-91597500D02*
X64425242Y-91597500D01*
X64899758Y-92642500D02*
X64425242Y-92642500D01*
%TO.C,R4*%
X66552500Y-84157258D02*
X66552500Y-83682742D01*
X67597500Y-84157258D02*
X67597500Y-83682742D01*
%TO.C,C25*%
X66503080Y-86710000D02*
X66221920Y-86710000D01*
X66503080Y-87730000D02*
X66221920Y-87730000D01*
%TO.C,C32*%
X66403080Y-93110000D02*
X66121920Y-93110000D01*
X66403080Y-94130000D02*
X66121920Y-94130000D01*
%TO.C,C14*%
X54265000Y-80960580D02*
X54265000Y-80679420D01*
X55285000Y-80960580D02*
X55285000Y-80679420D01*
%TO.C,EMG1-*%
X79262500Y-70745000D02*
X79262500Y-73145000D01*
X79262500Y-73145000D02*
X81662500Y-73145000D01*
X81662500Y-70745000D02*
X79262500Y-70745000D01*
X81662500Y-73145000D02*
X81662500Y-70745000D01*
%TO.C,U11*%
X57962500Y-88980000D02*
X56562500Y-88980000D01*
X57972500Y-86660000D02*
X56562500Y-86660000D01*
X58342500Y-86710000D02*
X58102500Y-86380000D01*
X58582500Y-86380000D01*
X58342500Y-86710000D01*
G36*
X58342500Y-86710000D02*
G01*
X58102500Y-86380000D01*
X58582500Y-86380000D01*
X58342500Y-86710000D01*
G37*
%TO.C,R16*%
X61899758Y-74022500D02*
X61425242Y-74022500D01*
X61899758Y-75067500D02*
X61425242Y-75067500D01*
%TO.C,R14*%
X64525242Y-77022500D02*
X64999758Y-77022500D01*
X64525242Y-78067500D02*
X64999758Y-78067500D01*
%TD*%
M02*
