%TF.GenerationSoftware,KiCad,Pcbnew,9.0.4*%
%TF.CreationDate,2025-11-03T10:18:42-05:00*%
%TF.ProjectId,Perpetuality,50657270-6574-4756-916c-6974792e6b69,rev?*%
%TF.SameCoordinates,Original*%
%TF.FileFunction,Copper,L5,Inr*%
%TF.FilePolarity,Positive*%
%FSLAX46Y46*%
G04 Gerber Fmt 4.6, Leading zero omitted, Abs format (unit mm)*
G04 Created by KiCad (PCBNEW 9.0.4) date 2025-11-03 10:18:42*
%MOMM*%
%LPD*%
G01*
G04 APERTURE LIST*
%TA.AperFunction,ComponentPad*%
%ADD10C,0.508000*%
%TD*%
%TA.AperFunction,ViaPad*%
%ADD11C,0.600000*%
%TD*%
G04 APERTURE END LIST*
D10*
%TO.N,*%
%TO.C,U7*%
X65318889Y-69938699D03*
X64531489Y-69938699D03*
X64531489Y-69151299D03*
%TO.N,N/C*%
X65318889Y-69151299D03*
%TD*%
D11*
%TO.N,A0*%
X58200000Y-65100000D03*
%TO.N,3V3*%
X56450000Y-89800000D03*
X73000000Y-72050000D03*
%TO.N,GND*%
X56587500Y-80120000D03*
X56587500Y-85145000D03*
X63937500Y-77545000D03*
X54250000Y-80050000D03*
X63837500Y-95120000D03*
X71500000Y-96195000D03*
X56587500Y-73945000D03*
X63950000Y-83220000D03*
X73475000Y-79395000D03*
X61037500Y-93620000D03*
X61500000Y-72900000D03*
X74800000Y-85500000D03*
X54775000Y-73845000D03*
X56487500Y-92120000D03*
X54775000Y-92045000D03*
X61137500Y-81620000D03*
X68475000Y-91370000D03*
X54250000Y-85545000D03*
X73575000Y-91370000D03*
X63875000Y-88700000D03*
X68575000Y-85395000D03*
X61137500Y-87220000D03*
X68475000Y-79395000D03*
X68512500Y-96195000D03*
%TO.N,1V8*%
X72000000Y-86300000D03*
X62412500Y-88812500D03*
X67600000Y-67575000D03*
%TO.N,/EMG2/EMG_OUT*%
X54800000Y-83550000D03*
X62300000Y-69500000D03*
%TO.N,FSYNC*%
X74900000Y-91500000D03*
X62150000Y-83850000D03*
%TO.N,SCL*%
X64200000Y-78700000D03*
X61700000Y-78700000D03*
X68150000Y-70200000D03*
%TO.N,EN*%
X73600000Y-73500000D03*
X59500000Y-89900000D03*
%TO.N,SDA*%
X67800000Y-71200000D03*
%TO.N,5V*%
X76300000Y-67200000D03*
%TO.N,/EMG1/EMG_OUT*%
X54300000Y-78500000D03*
X62300000Y-68794998D03*
%TO.N,/EMG3/EMG_OUT*%
X55400000Y-88200000D03*
X62400000Y-70200000D03*
%TO.N,/EMG4/EMG_OUT*%
X55220000Y-95020000D03*
X62500000Y-71000000D03*
%TO.N,REF*%
X67075000Y-84745000D03*
X66975000Y-79145000D03*
X66975000Y-90325000D03*
X80462500Y-96420000D03*
X66975000Y-96720000D03*
%TO.N,\u002ARESET*%
X67750000Y-68500000D03*
%TO.N,\u002AINT*%
X67794999Y-69294999D03*
%TO.N,A0*%
X66600000Y-72400000D03*
%TO.N,GNDD*%
X76163500Y-69520000D03*
X55300000Y-67815000D03*
X65500000Y-96400000D03*
X61800000Y-66300000D03*
X55300000Y-70355000D03*
X62400000Y-90375000D03*
X54725000Y-89800000D03*
X57000000Y-87800000D03*
X65175000Y-65145000D03*
X65175252Y-72724748D03*
X58162500Y-89800000D03*
X71600000Y-94375000D03*
X71900000Y-87500000D03*
%TD*%
%TA.AperFunction,Conductor*%
%TO.N,GND*%
G36*
X82342539Y-63770185D02*
G01*
X82388294Y-63822989D01*
X82399500Y-63874500D01*
X82399500Y-97625500D01*
X82379815Y-97692539D01*
X82327011Y-97738294D01*
X82275500Y-97749500D01*
X67161575Y-97749500D01*
X67094536Y-97729815D01*
X67048781Y-97677011D01*
X67038837Y-97607853D01*
X67067862Y-97544297D01*
X67126640Y-97506523D01*
X67137383Y-97503883D01*
X67187121Y-97493988D01*
X67208497Y-97489737D01*
X67354179Y-97429394D01*
X67485289Y-97341789D01*
X67596789Y-97230289D01*
X67684394Y-97099179D01*
X67744737Y-96953497D01*
X67775500Y-96798842D01*
X67775500Y-96641158D01*
X67775500Y-96641155D01*
X67775499Y-96641153D01*
X67747192Y-96498846D01*
X67744737Y-96486503D01*
X67744735Y-96486498D01*
X67701666Y-96382518D01*
X67684532Y-96341153D01*
X79662000Y-96341153D01*
X79662000Y-96498846D01*
X79692761Y-96653489D01*
X79692764Y-96653501D01*
X79753102Y-96799172D01*
X79753109Y-96799185D01*
X79840710Y-96930288D01*
X79840713Y-96930292D01*
X79952207Y-97041786D01*
X79952211Y-97041789D01*
X80083314Y-97129390D01*
X80083327Y-97129397D01*
X80228998Y-97189735D01*
X80229003Y-97189737D01*
X80383653Y-97220499D01*
X80383656Y-97220500D01*
X80383658Y-97220500D01*
X80541344Y-97220500D01*
X80541345Y-97220499D01*
X80695997Y-97189737D01*
X80841679Y-97129394D01*
X80972789Y-97041789D01*
X81084289Y-96930289D01*
X81171894Y-96799179D01*
X81232237Y-96653497D01*
X81263000Y-96498842D01*
X81263000Y-96341158D01*
X81263000Y-96341155D01*
X81262999Y-96341153D01*
X81236853Y-96209711D01*
X81232237Y-96186503D01*
X81201163Y-96111483D01*
X81171897Y-96040827D01*
X81171890Y-96040814D01*
X81084289Y-95909711D01*
X81084286Y-95909707D01*
X80972792Y-95798213D01*
X80972788Y-95798210D01*
X80841685Y-95710609D01*
X80841672Y-95710602D01*
X80696001Y-95650264D01*
X80695989Y-95650261D01*
X80541345Y-95619500D01*
X80541342Y-95619500D01*
X80383658Y-95619500D01*
X80383655Y-95619500D01*
X80229010Y-95650261D01*
X80228998Y-95650264D01*
X80083327Y-95710602D01*
X80083314Y-95710609D01*
X79952211Y-95798210D01*
X79952207Y-95798213D01*
X79840713Y-95909707D01*
X79840710Y-95909711D01*
X79753109Y-96040814D01*
X79753102Y-96040827D01*
X79692764Y-96186498D01*
X79692761Y-96186510D01*
X79662000Y-96341153D01*
X67684532Y-96341153D01*
X67684395Y-96340823D01*
X67684390Y-96340814D01*
X67596789Y-96209711D01*
X67596786Y-96209707D01*
X67485292Y-96098213D01*
X67485288Y-96098210D01*
X67354185Y-96010609D01*
X67354172Y-96010602D01*
X67208501Y-95950264D01*
X67208489Y-95950261D01*
X67053845Y-95919500D01*
X67053842Y-95919500D01*
X66896158Y-95919500D01*
X66896155Y-95919500D01*
X66741510Y-95950261D01*
X66741498Y-95950264D01*
X66595827Y-96010602D01*
X66595814Y-96010609D01*
X66464711Y-96098210D01*
X66438064Y-96124857D01*
X66376740Y-96158341D01*
X66307049Y-96153355D01*
X66251116Y-96111483D01*
X66235823Y-96084626D01*
X66209397Y-96020827D01*
X66209390Y-96020814D01*
X66121789Y-95889711D01*
X66121786Y-95889707D01*
X66010292Y-95778213D01*
X66010288Y-95778210D01*
X65879185Y-95690609D01*
X65879172Y-95690602D01*
X65733501Y-95630264D01*
X65733489Y-95630261D01*
X65578845Y-95599500D01*
X65578842Y-95599500D01*
X65421158Y-95599500D01*
X65421155Y-95599500D01*
X65266510Y-95630261D01*
X65266498Y-95630264D01*
X65120827Y-95690602D01*
X65120814Y-95690609D01*
X64989711Y-95778210D01*
X64989707Y-95778213D01*
X64878213Y-95889707D01*
X64878210Y-95889711D01*
X64790609Y-96020814D01*
X64790602Y-96020827D01*
X64730264Y-96166498D01*
X64730261Y-96166510D01*
X64699500Y-96321153D01*
X64699500Y-96478846D01*
X64730261Y-96633489D01*
X64730264Y-96633501D01*
X64790602Y-96779172D01*
X64790609Y-96779185D01*
X64878210Y-96910288D01*
X64878213Y-96910292D01*
X64989707Y-97021786D01*
X64989711Y-97021789D01*
X65120814Y-97109390D01*
X65120827Y-97109397D01*
X65266498Y-97169735D01*
X65266503Y-97169737D01*
X65421153Y-97200499D01*
X65421156Y-97200500D01*
X65421158Y-97200500D01*
X65578844Y-97200500D01*
X65578845Y-97200499D01*
X65733497Y-97169737D01*
X65879179Y-97109394D01*
X66010289Y-97021789D01*
X66036934Y-96995143D01*
X66098255Y-96961659D01*
X66167947Y-96966643D01*
X66223881Y-97008513D01*
X66239176Y-97035372D01*
X66265604Y-97099175D01*
X66265609Y-97099185D01*
X66353210Y-97230288D01*
X66353213Y-97230292D01*
X66464707Y-97341786D01*
X66464711Y-97341789D01*
X66595814Y-97429390D01*
X66595827Y-97429397D01*
X66741498Y-97489735D01*
X66741503Y-97489737D01*
X66741507Y-97489737D01*
X66741508Y-97489738D01*
X66812617Y-97503883D01*
X66874528Y-97536268D01*
X66909102Y-97596984D01*
X66905362Y-97666753D01*
X66864495Y-97723425D01*
X66799477Y-97749006D01*
X66788425Y-97749500D01*
X53724500Y-97749500D01*
X53657461Y-97729815D01*
X53611706Y-97677011D01*
X53600500Y-97625500D01*
X53600500Y-94941153D01*
X54419500Y-94941153D01*
X54419500Y-95098846D01*
X54450261Y-95253489D01*
X54450264Y-95253501D01*
X54510602Y-95399172D01*
X54510609Y-95399185D01*
X54598210Y-95530288D01*
X54598213Y-95530292D01*
X54709707Y-95641786D01*
X54709711Y-95641789D01*
X54840814Y-95729390D01*
X54840827Y-95729397D01*
X54958681Y-95778213D01*
X54986503Y-95789737D01*
X55141153Y-95820499D01*
X55141156Y-95820500D01*
X55141158Y-95820500D01*
X55298844Y-95820500D01*
X55298845Y-95820499D01*
X55453497Y-95789737D01*
X55599179Y-95729394D01*
X55730289Y-95641789D01*
X55841789Y-95530289D01*
X55929394Y-95399179D01*
X55989737Y-95253497D01*
X56020500Y-95098842D01*
X56020500Y-94941158D01*
X56020500Y-94941155D01*
X56020499Y-94941153D01*
X55989738Y-94786510D01*
X55989737Y-94786503D01*
X55976345Y-94754172D01*
X55929397Y-94640827D01*
X55929390Y-94640814D01*
X55841789Y-94509711D01*
X55841786Y-94509707D01*
X55730292Y-94398213D01*
X55730284Y-94398207D01*
X55722792Y-94393201D01*
X55722742Y-94393168D01*
X55599185Y-94310609D01*
X55599172Y-94310602D01*
X55564289Y-94296153D01*
X70799500Y-94296153D01*
X70799500Y-94453846D01*
X70830261Y-94608489D01*
X70830264Y-94608501D01*
X70890602Y-94754172D01*
X70890609Y-94754185D01*
X70978210Y-94885288D01*
X70978213Y-94885292D01*
X71089707Y-94996786D01*
X71089711Y-94996789D01*
X71220814Y-95084390D01*
X71220827Y-95084397D01*
X71366498Y-95144735D01*
X71366503Y-95144737D01*
X71521153Y-95175499D01*
X71521156Y-95175500D01*
X71521158Y-95175500D01*
X71678844Y-95175500D01*
X71678845Y-95175499D01*
X71833497Y-95144737D01*
X71979179Y-95084394D01*
X72110289Y-94996789D01*
X72221789Y-94885289D01*
X72309394Y-94754179D01*
X72369737Y-94608497D01*
X72400500Y-94453842D01*
X72400500Y-94296158D01*
X72400500Y-94296155D01*
X72400499Y-94296153D01*
X72391370Y-94250261D01*
X72369737Y-94141503D01*
X72369735Y-94141498D01*
X72309397Y-93995827D01*
X72309390Y-93995814D01*
X72221789Y-93864711D01*
X72221786Y-93864707D01*
X72110292Y-93753213D01*
X72110288Y-93753210D01*
X71979185Y-93665609D01*
X71979172Y-93665602D01*
X71833501Y-93605264D01*
X71833489Y-93605261D01*
X71678845Y-93574500D01*
X71678842Y-93574500D01*
X71521158Y-93574500D01*
X71521155Y-93574500D01*
X71366510Y-93605261D01*
X71366498Y-93605264D01*
X71220827Y-93665602D01*
X71220814Y-93665609D01*
X71089711Y-93753210D01*
X71089707Y-93753213D01*
X70978213Y-93864707D01*
X70978210Y-93864711D01*
X70890609Y-93995814D01*
X70890602Y-93995827D01*
X70830264Y-94141498D01*
X70830261Y-94141510D01*
X70799500Y-94296153D01*
X55564289Y-94296153D01*
X55453501Y-94250264D01*
X55453489Y-94250261D01*
X55298845Y-94219500D01*
X55298842Y-94219500D01*
X55141158Y-94219500D01*
X55141155Y-94219500D01*
X54986510Y-94250261D01*
X54986498Y-94250264D01*
X54840827Y-94310602D01*
X54840814Y-94310609D01*
X54709711Y-94398210D01*
X54709707Y-94398213D01*
X54598213Y-94509707D01*
X54598210Y-94509711D01*
X54510609Y-94640814D01*
X54510602Y-94640827D01*
X54450264Y-94786498D01*
X54450261Y-94786510D01*
X54419500Y-94941153D01*
X53600500Y-94941153D01*
X53600500Y-91421153D01*
X74099500Y-91421153D01*
X74099500Y-91578846D01*
X74130261Y-91733489D01*
X74130264Y-91733501D01*
X74190602Y-91879172D01*
X74190609Y-91879185D01*
X74278210Y-92010288D01*
X74278213Y-92010292D01*
X74389707Y-92121786D01*
X74389711Y-92121789D01*
X74520814Y-92209390D01*
X74520827Y-92209397D01*
X74666498Y-92269735D01*
X74666503Y-92269737D01*
X74821153Y-92300499D01*
X74821156Y-92300500D01*
X74821158Y-92300500D01*
X74978844Y-92300500D01*
X74978845Y-92300499D01*
X75133497Y-92269737D01*
X75279179Y-92209394D01*
X75410289Y-92121789D01*
X75521789Y-92010289D01*
X75609394Y-91879179D01*
X75669737Y-91733497D01*
X75700500Y-91578842D01*
X75700500Y-91421158D01*
X75700500Y-91421155D01*
X75700499Y-91421153D01*
X75669738Y-91266510D01*
X75669737Y-91266503D01*
X75632043Y-91175500D01*
X75609397Y-91120827D01*
X75609390Y-91120814D01*
X75521789Y-90989711D01*
X75521786Y-90989707D01*
X75410292Y-90878213D01*
X75410288Y-90878210D01*
X75279185Y-90790609D01*
X75279172Y-90790602D01*
X75133501Y-90730264D01*
X75133489Y-90730261D01*
X74978845Y-90699500D01*
X74978842Y-90699500D01*
X74821158Y-90699500D01*
X74821155Y-90699500D01*
X74666510Y-90730261D01*
X74666498Y-90730264D01*
X74520827Y-90790602D01*
X74520814Y-90790609D01*
X74389711Y-90878210D01*
X74389707Y-90878213D01*
X74278213Y-90989707D01*
X74278210Y-90989711D01*
X74190609Y-91120814D01*
X74190602Y-91120827D01*
X74130264Y-91266498D01*
X74130261Y-91266510D01*
X74099500Y-91421153D01*
X53600500Y-91421153D01*
X53600500Y-89721153D01*
X53924500Y-89721153D01*
X53924500Y-89878846D01*
X53955261Y-90033489D01*
X53955264Y-90033501D01*
X54015602Y-90179172D01*
X54015609Y-90179185D01*
X54103210Y-90310288D01*
X54103213Y-90310292D01*
X54214707Y-90421786D01*
X54214711Y-90421789D01*
X54345814Y-90509390D01*
X54345827Y-90509397D01*
X54491498Y-90569735D01*
X54491503Y-90569737D01*
X54646153Y-90600499D01*
X54646156Y-90600500D01*
X54646158Y-90600500D01*
X54803844Y-90600500D01*
X54803845Y-90600499D01*
X54958497Y-90569737D01*
X55104179Y-90509394D01*
X55235289Y-90421789D01*
X55346789Y-90310289D01*
X55434394Y-90179179D01*
X55466689Y-90101212D01*
X55472939Y-90086123D01*
X55516779Y-90031719D01*
X55583073Y-90009654D01*
X55650773Y-90026933D01*
X55698384Y-90078070D01*
X55702061Y-90086123D01*
X55740602Y-90179172D01*
X55740609Y-90179185D01*
X55828210Y-90310288D01*
X55828213Y-90310292D01*
X55939707Y-90421786D01*
X55939711Y-90421789D01*
X56070814Y-90509390D01*
X56070827Y-90509397D01*
X56216498Y-90569735D01*
X56216503Y-90569737D01*
X56371153Y-90600499D01*
X56371156Y-90600500D01*
X56371158Y-90600500D01*
X56528844Y-90600500D01*
X56528845Y-90600499D01*
X56683497Y-90569737D01*
X56829179Y-90509394D01*
X56960289Y-90421789D01*
X57071789Y-90310289D01*
X57159394Y-90179179D01*
X57191689Y-90101212D01*
X57235529Y-90046808D01*
X57301823Y-90024743D01*
X57369523Y-90042022D01*
X57417134Y-90093159D01*
X57420811Y-90101212D01*
X57453102Y-90179172D01*
X57453109Y-90179185D01*
X57540710Y-90310288D01*
X57540713Y-90310292D01*
X57652207Y-90421786D01*
X57652211Y-90421789D01*
X57783314Y-90509390D01*
X57783327Y-90509397D01*
X57928998Y-90569735D01*
X57929003Y-90569737D01*
X58083653Y-90600499D01*
X58083656Y-90600500D01*
X58083658Y-90600500D01*
X58241344Y-90600500D01*
X58241345Y-90600499D01*
X58395997Y-90569737D01*
X58541679Y-90509394D01*
X58672789Y-90421789D01*
X58694058Y-90400519D01*
X58755379Y-90367035D01*
X58825070Y-90372018D01*
X58873368Y-90406516D01*
X58873903Y-90405982D01*
X58877111Y-90409190D01*
X58877588Y-90409531D01*
X58878210Y-90410289D01*
X58989707Y-90521786D01*
X58989711Y-90521789D01*
X59120814Y-90609390D01*
X59120827Y-90609397D01*
X59266498Y-90669735D01*
X59266503Y-90669737D01*
X59416131Y-90699500D01*
X59421153Y-90700499D01*
X59421156Y-90700500D01*
X59421158Y-90700500D01*
X59578844Y-90700500D01*
X59578845Y-90700499D01*
X59733497Y-90669737D01*
X59879179Y-90609394D01*
X60010289Y-90521789D01*
X60121789Y-90410289D01*
X60198052Y-90296153D01*
X61599500Y-90296153D01*
X61599500Y-90453846D01*
X61630261Y-90608489D01*
X61630264Y-90608501D01*
X61690602Y-90754172D01*
X61690609Y-90754185D01*
X61778210Y-90885288D01*
X61778213Y-90885292D01*
X61889707Y-90996786D01*
X61889711Y-90996789D01*
X62020814Y-91084390D01*
X62020827Y-91084397D01*
X62120060Y-91125500D01*
X62166503Y-91144737D01*
X62321153Y-91175499D01*
X62321156Y-91175500D01*
X62321158Y-91175500D01*
X62478844Y-91175500D01*
X62478845Y-91175499D01*
X62633497Y-91144737D01*
X62779179Y-91084394D01*
X62910289Y-90996789D01*
X63021789Y-90885289D01*
X63109394Y-90754179D01*
X63169737Y-90608497D01*
X63200500Y-90453842D01*
X63200500Y-90296158D01*
X63200500Y-90296155D01*
X63194155Y-90264258D01*
X63194155Y-90264257D01*
X63190554Y-90246153D01*
X66174500Y-90246153D01*
X66174500Y-90403846D01*
X66205261Y-90558489D01*
X66205264Y-90558501D01*
X66265602Y-90704172D01*
X66265609Y-90704185D01*
X66353210Y-90835288D01*
X66353213Y-90835292D01*
X66464707Y-90946786D01*
X66464711Y-90946789D01*
X66595814Y-91034390D01*
X66595827Y-91034397D01*
X66741498Y-91094735D01*
X66741503Y-91094737D01*
X66896153Y-91125499D01*
X66896156Y-91125500D01*
X66896158Y-91125500D01*
X67053844Y-91125500D01*
X67053845Y-91125499D01*
X67208497Y-91094737D01*
X67354179Y-91034394D01*
X67485289Y-90946789D01*
X67596789Y-90835289D01*
X67684394Y-90704179D01*
X67744737Y-90558497D01*
X67775500Y-90403842D01*
X67775500Y-90246158D01*
X67775500Y-90246155D01*
X67775499Y-90246153D01*
X67762177Y-90179179D01*
X67744737Y-90091503D01*
X67726224Y-90046808D01*
X67684397Y-89945827D01*
X67684390Y-89945814D01*
X67596789Y-89814711D01*
X67596786Y-89814707D01*
X67485292Y-89703213D01*
X67485288Y-89703210D01*
X67354185Y-89615609D01*
X67354172Y-89615602D01*
X67208501Y-89555264D01*
X67208489Y-89555261D01*
X67053845Y-89524500D01*
X67053842Y-89524500D01*
X66896158Y-89524500D01*
X66896155Y-89524500D01*
X66741510Y-89555261D01*
X66741498Y-89555264D01*
X66595827Y-89615602D01*
X66595814Y-89615609D01*
X66464711Y-89703210D01*
X66464707Y-89703213D01*
X66353213Y-89814707D01*
X66353210Y-89814711D01*
X66265609Y-89945814D01*
X66265602Y-89945827D01*
X66205264Y-90091498D01*
X66205261Y-90091510D01*
X66174500Y-90246153D01*
X63190554Y-90246153D01*
X63169738Y-90141510D01*
X63169737Y-90141503D01*
X63169735Y-90141498D01*
X63109397Y-89995827D01*
X63109390Y-89995814D01*
X63021789Y-89864711D01*
X63021786Y-89864707D01*
X62910289Y-89753210D01*
X62832192Y-89701028D01*
X62787387Y-89647416D01*
X62778680Y-89578091D01*
X62808834Y-89515064D01*
X62832193Y-89494824D01*
X62890640Y-89455770D01*
X62922789Y-89434289D01*
X63034289Y-89322789D01*
X63121894Y-89191679D01*
X63122339Y-89190606D01*
X63147334Y-89130261D01*
X63182237Y-89045997D01*
X63213000Y-88891342D01*
X63213000Y-88733658D01*
X63213000Y-88733655D01*
X63212999Y-88733653D01*
X63182272Y-88579179D01*
X63182237Y-88579003D01*
X63178398Y-88569735D01*
X63121897Y-88433327D01*
X63121890Y-88433314D01*
X63034289Y-88302211D01*
X63034286Y-88302207D01*
X62922792Y-88190713D01*
X62922788Y-88190710D01*
X62791685Y-88103109D01*
X62791672Y-88103102D01*
X62646001Y-88042764D01*
X62645989Y-88042761D01*
X62491345Y-88012000D01*
X62491342Y-88012000D01*
X62333658Y-88012000D01*
X62333655Y-88012000D01*
X62179010Y-88042761D01*
X62178998Y-88042764D01*
X62033327Y-88103102D01*
X62033314Y-88103109D01*
X61902211Y-88190710D01*
X61902207Y-88190713D01*
X61790713Y-88302207D01*
X61790710Y-88302211D01*
X61703109Y-88433314D01*
X61703102Y-88433327D01*
X61642764Y-88578998D01*
X61642761Y-88579010D01*
X61612000Y-88733653D01*
X61612000Y-88891346D01*
X61642761Y-89045989D01*
X61642764Y-89046001D01*
X61703102Y-89191672D01*
X61703109Y-89191685D01*
X61790710Y-89322788D01*
X61790713Y-89322792D01*
X61902207Y-89434286D01*
X61902215Y-89434292D01*
X61980306Y-89486471D01*
X62025112Y-89540083D01*
X62033819Y-89609408D01*
X62003665Y-89672435D01*
X61980308Y-89692675D01*
X61889707Y-89753213D01*
X61778213Y-89864707D01*
X61778210Y-89864711D01*
X61690609Y-89995814D01*
X61690602Y-89995827D01*
X61630264Y-90141498D01*
X61630261Y-90141510D01*
X61599500Y-90296153D01*
X60198052Y-90296153D01*
X60209394Y-90279179D01*
X60209397Y-90279172D01*
X60224540Y-90242614D01*
X60269735Y-90133501D01*
X60269737Y-90133497D01*
X60300500Y-89978842D01*
X60300500Y-89821158D01*
X60300500Y-89821155D01*
X60300499Y-89821153D01*
X60286984Y-89753210D01*
X60269737Y-89666503D01*
X60269735Y-89666498D01*
X60209397Y-89520827D01*
X60209390Y-89520814D01*
X60121789Y-89389711D01*
X60121786Y-89389707D01*
X60010292Y-89278213D01*
X60010288Y-89278210D01*
X59879185Y-89190609D01*
X59879172Y-89190602D01*
X59733501Y-89130264D01*
X59733489Y-89130261D01*
X59578845Y-89099500D01*
X59578842Y-89099500D01*
X59421158Y-89099500D01*
X59421155Y-89099500D01*
X59266510Y-89130261D01*
X59266498Y-89130264D01*
X59120827Y-89190602D01*
X59120814Y-89190609D01*
X58989711Y-89278210D01*
X58989707Y-89278213D01*
X58968441Y-89299480D01*
X58907118Y-89332965D01*
X58837426Y-89327981D01*
X58789133Y-89293481D01*
X58788597Y-89294018D01*
X58785374Y-89290795D01*
X58784902Y-89290458D01*
X58784284Y-89289705D01*
X58672792Y-89178213D01*
X58672788Y-89178210D01*
X58541685Y-89090609D01*
X58541672Y-89090602D01*
X58396001Y-89030264D01*
X58395989Y-89030261D01*
X58241345Y-88999500D01*
X58241342Y-88999500D01*
X58083658Y-88999500D01*
X58083655Y-88999500D01*
X57929010Y-89030261D01*
X57928998Y-89030264D01*
X57783327Y-89090602D01*
X57783314Y-89090609D01*
X57652211Y-89178210D01*
X57652207Y-89178213D01*
X57540713Y-89289707D01*
X57540710Y-89289711D01*
X57453109Y-89420814D01*
X57453104Y-89420823D01*
X57420811Y-89498788D01*
X57376970Y-89553191D01*
X57310676Y-89575256D01*
X57242977Y-89557977D01*
X57195366Y-89506840D01*
X57191689Y-89498788D01*
X57159395Y-89420823D01*
X57159390Y-89420814D01*
X57071789Y-89289711D01*
X57071786Y-89289707D01*
X56960292Y-89178213D01*
X56960288Y-89178210D01*
X56829185Y-89090609D01*
X56829172Y-89090602D01*
X56683501Y-89030264D01*
X56683489Y-89030261D01*
X56528845Y-88999500D01*
X56528842Y-88999500D01*
X56371158Y-88999500D01*
X56371155Y-88999500D01*
X56216510Y-89030261D01*
X56216498Y-89030264D01*
X56070827Y-89090602D01*
X56070814Y-89090609D01*
X55939711Y-89178210D01*
X55939707Y-89178213D01*
X55828213Y-89289707D01*
X55828210Y-89289711D01*
X55740609Y-89420814D01*
X55740602Y-89420827D01*
X55702061Y-89513876D01*
X55658220Y-89568280D01*
X55591926Y-89590345D01*
X55524227Y-89573066D01*
X55476616Y-89521929D01*
X55472939Y-89513876D01*
X55434397Y-89420827D01*
X55434390Y-89420814D01*
X55346789Y-89289711D01*
X55346786Y-89289707D01*
X55269260Y-89212181D01*
X55235775Y-89150858D01*
X55240759Y-89081166D01*
X55282631Y-89025233D01*
X55348095Y-89000816D01*
X55356941Y-89000500D01*
X55478844Y-89000500D01*
X55478845Y-89000499D01*
X55633497Y-88969737D01*
X55779179Y-88909394D01*
X55910289Y-88821789D01*
X56021789Y-88710289D01*
X56109394Y-88579179D01*
X56169737Y-88433497D01*
X56179508Y-88384373D01*
X56211892Y-88322464D01*
X56272607Y-88287890D01*
X56342377Y-88291629D01*
X56388806Y-88320885D01*
X56489707Y-88421786D01*
X56489711Y-88421789D01*
X56620814Y-88509390D01*
X56620827Y-88509397D01*
X56766498Y-88569735D01*
X56766503Y-88569737D01*
X56921153Y-88600499D01*
X56921156Y-88600500D01*
X56921158Y-88600500D01*
X57078844Y-88600500D01*
X57078845Y-88600499D01*
X57233497Y-88569737D01*
X57379179Y-88509394D01*
X57510289Y-88421789D01*
X57621789Y-88310289D01*
X57709394Y-88179179D01*
X57769737Y-88033497D01*
X57800500Y-87878842D01*
X57800500Y-87721158D01*
X57800500Y-87721155D01*
X57800499Y-87721153D01*
X57772192Y-87578846D01*
X57769737Y-87566503D01*
X57738300Y-87490606D01*
X57726666Y-87462518D01*
X57709532Y-87421153D01*
X71099500Y-87421153D01*
X71099500Y-87578846D01*
X71130261Y-87733489D01*
X71130264Y-87733501D01*
X71190602Y-87879172D01*
X71190609Y-87879185D01*
X71278210Y-88010288D01*
X71278213Y-88010292D01*
X71389707Y-88121786D01*
X71389711Y-88121789D01*
X71520814Y-88209390D01*
X71520827Y-88209397D01*
X71666498Y-88269735D01*
X71666503Y-88269737D01*
X71776561Y-88291629D01*
X71821153Y-88300499D01*
X71821156Y-88300500D01*
X71821158Y-88300500D01*
X71978844Y-88300500D01*
X71978845Y-88300499D01*
X72133497Y-88269737D01*
X72279179Y-88209394D01*
X72410289Y-88121789D01*
X72521789Y-88010289D01*
X72609394Y-87879179D01*
X72669737Y-87733497D01*
X72700500Y-87578842D01*
X72700500Y-87421158D01*
X72700500Y-87421155D01*
X72700499Y-87421153D01*
X72674353Y-87289711D01*
X72669737Y-87266503D01*
X72669735Y-87266498D01*
X72609397Y-87120827D01*
X72609390Y-87120814D01*
X72546514Y-87026714D01*
X72525636Y-86960037D01*
X72544120Y-86892656D01*
X72561928Y-86870149D01*
X72621789Y-86810289D01*
X72709394Y-86679179D01*
X72769737Y-86533497D01*
X72800500Y-86378842D01*
X72800500Y-86221158D01*
X72800500Y-86221155D01*
X72800499Y-86221153D01*
X72769738Y-86066510D01*
X72769737Y-86066503D01*
X72769735Y-86066498D01*
X72709397Y-85920827D01*
X72709390Y-85920814D01*
X72621789Y-85789711D01*
X72621786Y-85789707D01*
X72510292Y-85678213D01*
X72510288Y-85678210D01*
X72379185Y-85590609D01*
X72379172Y-85590602D01*
X72233501Y-85530264D01*
X72233489Y-85530261D01*
X72078845Y-85499500D01*
X72078842Y-85499500D01*
X71921158Y-85499500D01*
X71921155Y-85499500D01*
X71766510Y-85530261D01*
X71766498Y-85530264D01*
X71620827Y-85590602D01*
X71620814Y-85590609D01*
X71489711Y-85678210D01*
X71489707Y-85678213D01*
X71378213Y-85789707D01*
X71378210Y-85789711D01*
X71290609Y-85920814D01*
X71290602Y-85920827D01*
X71230264Y-86066498D01*
X71230261Y-86066510D01*
X71199500Y-86221153D01*
X71199500Y-86378846D01*
X71230261Y-86533489D01*
X71230264Y-86533501D01*
X71290602Y-86679172D01*
X71290609Y-86679185D01*
X71353485Y-86773285D01*
X71374363Y-86839963D01*
X71355878Y-86907343D01*
X71338064Y-86929857D01*
X71278213Y-86989707D01*
X71278210Y-86989711D01*
X71190609Y-87120814D01*
X71190602Y-87120827D01*
X71130264Y-87266498D01*
X71130261Y-87266510D01*
X71099500Y-87421153D01*
X57709532Y-87421153D01*
X57709395Y-87420823D01*
X57709390Y-87420814D01*
X57621789Y-87289711D01*
X57621786Y-87289707D01*
X57510292Y-87178213D01*
X57510288Y-87178210D01*
X57379185Y-87090609D01*
X57379172Y-87090602D01*
X57233501Y-87030264D01*
X57233489Y-87030261D01*
X57078845Y-86999500D01*
X57078842Y-86999500D01*
X56921158Y-86999500D01*
X56921155Y-86999500D01*
X56766510Y-87030261D01*
X56766498Y-87030264D01*
X56620827Y-87090602D01*
X56620814Y-87090609D01*
X56489711Y-87178210D01*
X56489707Y-87178213D01*
X56378213Y-87289707D01*
X56378210Y-87289711D01*
X56290609Y-87420814D01*
X56290602Y-87420827D01*
X56230264Y-87566498D01*
X56230261Y-87566507D01*
X56220491Y-87615626D01*
X56188105Y-87677536D01*
X56127389Y-87712110D01*
X56057620Y-87708369D01*
X56011193Y-87679114D01*
X55910292Y-87578213D01*
X55910288Y-87578210D01*
X55779185Y-87490609D01*
X55779172Y-87490602D01*
X55633501Y-87430264D01*
X55633489Y-87430261D01*
X55478845Y-87399500D01*
X55478842Y-87399500D01*
X55321158Y-87399500D01*
X55321155Y-87399500D01*
X55166510Y-87430261D01*
X55166498Y-87430264D01*
X55020827Y-87490602D01*
X55020814Y-87490609D01*
X54889711Y-87578210D01*
X54889707Y-87578213D01*
X54778213Y-87689707D01*
X54778210Y-87689711D01*
X54690609Y-87820814D01*
X54690602Y-87820827D01*
X54630264Y-87966498D01*
X54630261Y-87966510D01*
X54599500Y-88121153D01*
X54599500Y-88278846D01*
X54630261Y-88433489D01*
X54630264Y-88433501D01*
X54690602Y-88579172D01*
X54690609Y-88579185D01*
X54778210Y-88710288D01*
X54778213Y-88710292D01*
X54855740Y-88787819D01*
X54889225Y-88849142D01*
X54884241Y-88918834D01*
X54842369Y-88974767D01*
X54776905Y-88999184D01*
X54768059Y-88999500D01*
X54646155Y-88999500D01*
X54491510Y-89030261D01*
X54491498Y-89030264D01*
X54345827Y-89090602D01*
X54345814Y-89090609D01*
X54214711Y-89178210D01*
X54214707Y-89178213D01*
X54103213Y-89289707D01*
X54103210Y-89289711D01*
X54015609Y-89420814D01*
X54015602Y-89420827D01*
X53955264Y-89566498D01*
X53955261Y-89566510D01*
X53924500Y-89721153D01*
X53600500Y-89721153D01*
X53600500Y-84666153D01*
X66274500Y-84666153D01*
X66274500Y-84823846D01*
X66305261Y-84978489D01*
X66305264Y-84978501D01*
X66365602Y-85124172D01*
X66365609Y-85124185D01*
X66453210Y-85255288D01*
X66453213Y-85255292D01*
X66564707Y-85366786D01*
X66564711Y-85366789D01*
X66695814Y-85454390D01*
X66695827Y-85454397D01*
X66804717Y-85499500D01*
X66841503Y-85514737D01*
X66996153Y-85545499D01*
X66996156Y-85545500D01*
X66996158Y-85545500D01*
X67153844Y-85545500D01*
X67153845Y-85545499D01*
X67308497Y-85514737D01*
X67454179Y-85454394D01*
X67585289Y-85366789D01*
X67696789Y-85255289D01*
X67784394Y-85124179D01*
X67844737Y-84978497D01*
X67875500Y-84823842D01*
X67875500Y-84666158D01*
X67875500Y-84666155D01*
X67875499Y-84666153D01*
X67844738Y-84511510D01*
X67844737Y-84511503D01*
X67828286Y-84471786D01*
X67784397Y-84365827D01*
X67784390Y-84365814D01*
X67696789Y-84234711D01*
X67696786Y-84234707D01*
X67585292Y-84123213D01*
X67585288Y-84123210D01*
X67454185Y-84035609D01*
X67454172Y-84035602D01*
X67308501Y-83975264D01*
X67308489Y-83975261D01*
X67153845Y-83944500D01*
X67153842Y-83944500D01*
X66996158Y-83944500D01*
X66996155Y-83944500D01*
X66841510Y-83975261D01*
X66841498Y-83975264D01*
X66695827Y-84035602D01*
X66695814Y-84035609D01*
X66564711Y-84123210D01*
X66564707Y-84123213D01*
X66453213Y-84234707D01*
X66453210Y-84234711D01*
X66365609Y-84365814D01*
X66365602Y-84365827D01*
X66305264Y-84511498D01*
X66305261Y-84511510D01*
X66274500Y-84666153D01*
X53600500Y-84666153D01*
X53600500Y-83471153D01*
X53999500Y-83471153D01*
X53999500Y-83628846D01*
X54030261Y-83783489D01*
X54030264Y-83783501D01*
X54090602Y-83929172D01*
X54090609Y-83929185D01*
X54178210Y-84060288D01*
X54178213Y-84060292D01*
X54289707Y-84171786D01*
X54289711Y-84171789D01*
X54420814Y-84259390D01*
X54420827Y-84259397D01*
X54566498Y-84319735D01*
X54566503Y-84319737D01*
X54721153Y-84350499D01*
X54721156Y-84350500D01*
X54721158Y-84350500D01*
X54878844Y-84350500D01*
X54878845Y-84350499D01*
X55033497Y-84319737D01*
X55179179Y-84259394D01*
X55310289Y-84171789D01*
X55421789Y-84060289D01*
X55509394Y-83929179D01*
X55569737Y-83783497D01*
X55572192Y-83771153D01*
X61349500Y-83771153D01*
X61349500Y-83928846D01*
X61380261Y-84083489D01*
X61380264Y-84083501D01*
X61440602Y-84229172D01*
X61440609Y-84229185D01*
X61528210Y-84360288D01*
X61528213Y-84360292D01*
X61639707Y-84471786D01*
X61639711Y-84471789D01*
X61770814Y-84559390D01*
X61770827Y-84559397D01*
X61916498Y-84619735D01*
X61916503Y-84619737D01*
X62071153Y-84650499D01*
X62071156Y-84650500D01*
X62071158Y-84650500D01*
X62228844Y-84650500D01*
X62228845Y-84650499D01*
X62383497Y-84619737D01*
X62529179Y-84559394D01*
X62529188Y-84559388D01*
X62532815Y-84556965D01*
X62532817Y-84556964D01*
X62603686Y-84509609D01*
X62660289Y-84471789D01*
X62771789Y-84360289D01*
X62859394Y-84229179D01*
X62919737Y-84083497D01*
X62950500Y-83928842D01*
X62950500Y-83771158D01*
X62950500Y-83771155D01*
X62950499Y-83771153D01*
X62922192Y-83628846D01*
X62919737Y-83616503D01*
X62859534Y-83471158D01*
X62859397Y-83470827D01*
X62859390Y-83470814D01*
X62771789Y-83339711D01*
X62771786Y-83339707D01*
X62660292Y-83228213D01*
X62660288Y-83228210D01*
X62529185Y-83140609D01*
X62529172Y-83140602D01*
X62383501Y-83080264D01*
X62383489Y-83080261D01*
X62228845Y-83049500D01*
X62228842Y-83049500D01*
X62071158Y-83049500D01*
X62071155Y-83049500D01*
X61916510Y-83080261D01*
X61916498Y-83080264D01*
X61770827Y-83140602D01*
X61770814Y-83140609D01*
X61639711Y-83228210D01*
X61639707Y-83228213D01*
X61528213Y-83339707D01*
X61528210Y-83339711D01*
X61440609Y-83470814D01*
X61440602Y-83470827D01*
X61380264Y-83616498D01*
X61380261Y-83616510D01*
X61349500Y-83771153D01*
X55572192Y-83771153D01*
X55578216Y-83740874D01*
X55578216Y-83740873D01*
X55600499Y-83628846D01*
X55600500Y-83628844D01*
X55600500Y-83471155D01*
X55600499Y-83471153D01*
X55574353Y-83339711D01*
X55569737Y-83316503D01*
X55569735Y-83316498D01*
X55509397Y-83170827D01*
X55509390Y-83170814D01*
X55421789Y-83039711D01*
X55421786Y-83039707D01*
X55310292Y-82928213D01*
X55310288Y-82928210D01*
X55179185Y-82840609D01*
X55179172Y-82840602D01*
X55033501Y-82780264D01*
X55033489Y-82780261D01*
X54878845Y-82749500D01*
X54878842Y-82749500D01*
X54721158Y-82749500D01*
X54721155Y-82749500D01*
X54566510Y-82780261D01*
X54566498Y-82780264D01*
X54420827Y-82840602D01*
X54420814Y-82840609D01*
X54289711Y-82928210D01*
X54289707Y-82928213D01*
X54178213Y-83039707D01*
X54178210Y-83039711D01*
X54090609Y-83170814D01*
X54090602Y-83170827D01*
X54030264Y-83316498D01*
X54030261Y-83316510D01*
X53999500Y-83471153D01*
X53600500Y-83471153D01*
X53600500Y-79227350D01*
X53620185Y-79160311D01*
X53672989Y-79114556D01*
X53742147Y-79104612D01*
X53793391Y-79124248D01*
X53920814Y-79209390D01*
X53920827Y-79209397D01*
X54066498Y-79269735D01*
X54066503Y-79269737D01*
X54221153Y-79300499D01*
X54221156Y-79300500D01*
X54221158Y-79300500D01*
X54378844Y-79300500D01*
X54378845Y-79300499D01*
X54533497Y-79269737D01*
X54679179Y-79209394D01*
X54810289Y-79121789D01*
X54921789Y-79010289D01*
X55009394Y-78879179D01*
X55069737Y-78733497D01*
X55092083Y-78621158D01*
X55092084Y-78621153D01*
X60899500Y-78621153D01*
X60899500Y-78778846D01*
X60930261Y-78933489D01*
X60930264Y-78933501D01*
X60990602Y-79079172D01*
X60990609Y-79079185D01*
X61078210Y-79210288D01*
X61078213Y-79210292D01*
X61189707Y-79321786D01*
X61189711Y-79321789D01*
X61320814Y-79409390D01*
X61320827Y-79409397D01*
X61466498Y-79469735D01*
X61466503Y-79469737D01*
X61621153Y-79500499D01*
X61621156Y-79500500D01*
X61621158Y-79500500D01*
X61778844Y-79500500D01*
X61778845Y-79500499D01*
X61933497Y-79469737D01*
X62079179Y-79409394D01*
X62210289Y-79321789D01*
X62321789Y-79210289D01*
X62409394Y-79079179D01*
X62469737Y-78933497D01*
X62500500Y-78778842D01*
X62500500Y-78621158D01*
X62500500Y-78621155D01*
X62500499Y-78621153D01*
X63399500Y-78621153D01*
X63399500Y-78778846D01*
X63430261Y-78933489D01*
X63430264Y-78933501D01*
X63490602Y-79079172D01*
X63490609Y-79079185D01*
X63578210Y-79210288D01*
X63578213Y-79210292D01*
X63689707Y-79321786D01*
X63689711Y-79321789D01*
X63820814Y-79409390D01*
X63820827Y-79409397D01*
X63966498Y-79469735D01*
X63966503Y-79469737D01*
X64121153Y-79500499D01*
X64121156Y-79500500D01*
X64121158Y-79500500D01*
X64278844Y-79500500D01*
X64278845Y-79500499D01*
X64433497Y-79469737D01*
X64579179Y-79409394D01*
X64710289Y-79321789D01*
X64821789Y-79210289D01*
X64909394Y-79079179D01*
X64909395Y-79079176D01*
X64909397Y-79079173D01*
X64914790Y-79066153D01*
X66174500Y-79066153D01*
X66174500Y-79223846D01*
X66205261Y-79378489D01*
X66205264Y-79378501D01*
X66265602Y-79524172D01*
X66265609Y-79524185D01*
X66353210Y-79655288D01*
X66353213Y-79655292D01*
X66464707Y-79766786D01*
X66464711Y-79766789D01*
X66595814Y-79854390D01*
X66595827Y-79854397D01*
X66741498Y-79914735D01*
X66741503Y-79914737D01*
X66896153Y-79945499D01*
X66896156Y-79945500D01*
X66896158Y-79945500D01*
X67053844Y-79945500D01*
X67053845Y-79945499D01*
X67208497Y-79914737D01*
X67354179Y-79854394D01*
X67485289Y-79766789D01*
X67596789Y-79655289D01*
X67684394Y-79524179D01*
X67744737Y-79378497D01*
X67775500Y-79223842D01*
X67775500Y-79066158D01*
X67775500Y-79066155D01*
X67775499Y-79066153D01*
X67764387Y-79010288D01*
X67744737Y-78911503D01*
X67731345Y-78879172D01*
X67684397Y-78765827D01*
X67684390Y-78765814D01*
X67596789Y-78634711D01*
X67596786Y-78634707D01*
X67485292Y-78523213D01*
X67485288Y-78523210D01*
X67354185Y-78435609D01*
X67354172Y-78435602D01*
X67208501Y-78375264D01*
X67208489Y-78375261D01*
X67053845Y-78344500D01*
X67053842Y-78344500D01*
X66896158Y-78344500D01*
X66896155Y-78344500D01*
X66741510Y-78375261D01*
X66741498Y-78375264D01*
X66595827Y-78435602D01*
X66595814Y-78435609D01*
X66464711Y-78523210D01*
X66464707Y-78523213D01*
X66353213Y-78634707D01*
X66353210Y-78634711D01*
X66265609Y-78765814D01*
X66265602Y-78765827D01*
X66205264Y-78911498D01*
X66205261Y-78911510D01*
X66174500Y-79066153D01*
X64914790Y-79066153D01*
X64936966Y-79012614D01*
X64936966Y-79012613D01*
X64969737Y-78933497D01*
X65000500Y-78778842D01*
X65000500Y-78621158D01*
X65000500Y-78621155D01*
X65000499Y-78621153D01*
X64969738Y-78466510D01*
X64969737Y-78466503D01*
X64969735Y-78466498D01*
X64909397Y-78320827D01*
X64909390Y-78320814D01*
X64821789Y-78189711D01*
X64821786Y-78189707D01*
X64710292Y-78078213D01*
X64710288Y-78078210D01*
X64579185Y-77990609D01*
X64579172Y-77990602D01*
X64433501Y-77930264D01*
X64433489Y-77930261D01*
X64278845Y-77899500D01*
X64278842Y-77899500D01*
X64121158Y-77899500D01*
X64121155Y-77899500D01*
X63966510Y-77930261D01*
X63966498Y-77930264D01*
X63820827Y-77990602D01*
X63820814Y-77990609D01*
X63689711Y-78078210D01*
X63689707Y-78078213D01*
X63578213Y-78189707D01*
X63578210Y-78189711D01*
X63490609Y-78320814D01*
X63490602Y-78320827D01*
X63430264Y-78466498D01*
X63430261Y-78466510D01*
X63399500Y-78621153D01*
X62500499Y-78621153D01*
X62469738Y-78466510D01*
X62469737Y-78466503D01*
X62469735Y-78466498D01*
X62409397Y-78320827D01*
X62409390Y-78320814D01*
X62321789Y-78189711D01*
X62321786Y-78189707D01*
X62210292Y-78078213D01*
X62210288Y-78078210D01*
X62079185Y-77990609D01*
X62079172Y-77990602D01*
X61933501Y-77930264D01*
X61933489Y-77930261D01*
X61778845Y-77899500D01*
X61778842Y-77899500D01*
X61621158Y-77899500D01*
X61621155Y-77899500D01*
X61466510Y-77930261D01*
X61466498Y-77930264D01*
X61320827Y-77990602D01*
X61320814Y-77990609D01*
X61189711Y-78078210D01*
X61189707Y-78078213D01*
X61078213Y-78189707D01*
X61078210Y-78189711D01*
X60990609Y-78320814D01*
X60990602Y-78320827D01*
X60930264Y-78466498D01*
X60930261Y-78466510D01*
X60899500Y-78621153D01*
X55092084Y-78621153D01*
X55098107Y-78590875D01*
X55098107Y-78590874D01*
X55100500Y-78578844D01*
X55100500Y-78421155D01*
X55100499Y-78421153D01*
X55091370Y-78375261D01*
X55069737Y-78266503D01*
X55037929Y-78189711D01*
X55009397Y-78120827D01*
X55009390Y-78120814D01*
X54921789Y-77989711D01*
X54921786Y-77989707D01*
X54810292Y-77878213D01*
X54810288Y-77878210D01*
X54679185Y-77790609D01*
X54679172Y-77790602D01*
X54533501Y-77730264D01*
X54533489Y-77730261D01*
X54378845Y-77699500D01*
X54378842Y-77699500D01*
X54221158Y-77699500D01*
X54221155Y-77699500D01*
X54066510Y-77730261D01*
X54066498Y-77730264D01*
X53920827Y-77790602D01*
X53920814Y-77790609D01*
X53793391Y-77875751D01*
X53726713Y-77896629D01*
X53659333Y-77878144D01*
X53612643Y-77826165D01*
X53600500Y-77772649D01*
X53600500Y-72645901D01*
X64374752Y-72645901D01*
X64374752Y-72803594D01*
X64405513Y-72958237D01*
X64405516Y-72958249D01*
X64465854Y-73103920D01*
X64465861Y-73103933D01*
X64553462Y-73235036D01*
X64553465Y-73235040D01*
X64664959Y-73346534D01*
X64664963Y-73346537D01*
X64796066Y-73434138D01*
X64796079Y-73434145D01*
X64941750Y-73494483D01*
X64941755Y-73494485D01*
X65096405Y-73525247D01*
X65096408Y-73525248D01*
X65096410Y-73525248D01*
X65254096Y-73525248D01*
X65254097Y-73525247D01*
X65408749Y-73494485D01*
X65554431Y-73434142D01*
X65685541Y-73346537D01*
X65797041Y-73235037D01*
X65884646Y-73103927D01*
X65898078Y-73071498D01*
X65941916Y-73017096D01*
X66008210Y-72995029D01*
X66075910Y-73012307D01*
X66084634Y-73018422D01*
X66084646Y-73018405D01*
X66220814Y-73109390D01*
X66220827Y-73109397D01*
X66366498Y-73169735D01*
X66366503Y-73169737D01*
X66521153Y-73200499D01*
X66521156Y-73200500D01*
X66521158Y-73200500D01*
X66678844Y-73200500D01*
X66678845Y-73200499D01*
X66833497Y-73169737D01*
X66951592Y-73120821D01*
X66979172Y-73109397D01*
X66979172Y-73109396D01*
X66979179Y-73109394D01*
X67110289Y-73021789D01*
X67221789Y-72910289D01*
X67309394Y-72779179D01*
X67369737Y-72633497D01*
X67400500Y-72478842D01*
X67400500Y-72321158D01*
X67400500Y-72321155D01*
X67400499Y-72321153D01*
X67369737Y-72166503D01*
X67345162Y-72107175D01*
X67337694Y-72037708D01*
X67368969Y-71975228D01*
X67429058Y-71939576D01*
X67498883Y-71942069D01*
X67507163Y-71945157D01*
X67566503Y-71969737D01*
X67721153Y-72000499D01*
X67721156Y-72000500D01*
X67721158Y-72000500D01*
X67878844Y-72000500D01*
X67878845Y-72000499D01*
X68026378Y-71971153D01*
X72199500Y-71971153D01*
X72199500Y-72128846D01*
X72230261Y-72283489D01*
X72230264Y-72283501D01*
X72290602Y-72429172D01*
X72290609Y-72429185D01*
X72378210Y-72560288D01*
X72378213Y-72560292D01*
X72489707Y-72671786D01*
X72489711Y-72671789D01*
X72620814Y-72759390D01*
X72620827Y-72759397D01*
X72696181Y-72790609D01*
X72766503Y-72819737D01*
X72871609Y-72840644D01*
X72933520Y-72873028D01*
X72968094Y-72933744D01*
X72964355Y-73003514D01*
X72950520Y-73031152D01*
X72890609Y-73120814D01*
X72890602Y-73120827D01*
X72830264Y-73266498D01*
X72830261Y-73266510D01*
X72799500Y-73421153D01*
X72799500Y-73578846D01*
X72830261Y-73733489D01*
X72830264Y-73733501D01*
X72890602Y-73879172D01*
X72890609Y-73879185D01*
X72978210Y-74010288D01*
X72978213Y-74010292D01*
X73089707Y-74121786D01*
X73089711Y-74121789D01*
X73220814Y-74209390D01*
X73220827Y-74209397D01*
X73366498Y-74269735D01*
X73366503Y-74269737D01*
X73521153Y-74300499D01*
X73521156Y-74300500D01*
X73521158Y-74300500D01*
X73678844Y-74300500D01*
X73678845Y-74300499D01*
X73833497Y-74269737D01*
X73979179Y-74209394D01*
X74110289Y-74121789D01*
X74221789Y-74010289D01*
X74309394Y-73879179D01*
X74369737Y-73733497D01*
X74400500Y-73578842D01*
X74400500Y-73421158D01*
X74400500Y-73421155D01*
X74400499Y-73421153D01*
X74369738Y-73266510D01*
X74369737Y-73266503D01*
X74356705Y-73235040D01*
X74309397Y-73120827D01*
X74309390Y-73120814D01*
X74221789Y-72989711D01*
X74221786Y-72989707D01*
X74110292Y-72878213D01*
X74110288Y-72878210D01*
X73979185Y-72790609D01*
X73979172Y-72790602D01*
X73833501Y-72730264D01*
X73833491Y-72730261D01*
X73728389Y-72709355D01*
X73666478Y-72676970D01*
X73631904Y-72616254D01*
X73635644Y-72546485D01*
X73649474Y-72518854D01*
X73709394Y-72429179D01*
X73769737Y-72283497D01*
X73800500Y-72128842D01*
X73800500Y-71971158D01*
X73800500Y-71971155D01*
X73800499Y-71971153D01*
X73770788Y-71821789D01*
X73769737Y-71816503D01*
X73769735Y-71816498D01*
X73709397Y-71670827D01*
X73709390Y-71670814D01*
X73621789Y-71539711D01*
X73621786Y-71539707D01*
X73510292Y-71428213D01*
X73510288Y-71428210D01*
X73379185Y-71340609D01*
X73379172Y-71340602D01*
X73233501Y-71280264D01*
X73233489Y-71280261D01*
X73078845Y-71249500D01*
X73078842Y-71249500D01*
X72921158Y-71249500D01*
X72921155Y-71249500D01*
X72766510Y-71280261D01*
X72766498Y-71280264D01*
X72620827Y-71340602D01*
X72620814Y-71340609D01*
X72489711Y-71428210D01*
X72489707Y-71428213D01*
X72378213Y-71539707D01*
X72378210Y-71539711D01*
X72290609Y-71670814D01*
X72290602Y-71670827D01*
X72230264Y-71816498D01*
X72230261Y-71816510D01*
X72199500Y-71971153D01*
X68026378Y-71971153D01*
X68033497Y-71969737D01*
X68179179Y-71909394D01*
X68208643Y-71889707D01*
X68250164Y-71861964D01*
X68281224Y-71841209D01*
X68310289Y-71821789D01*
X68421789Y-71710289D01*
X68509394Y-71579179D01*
X68569737Y-71433497D01*
X68600500Y-71278842D01*
X68600500Y-71121158D01*
X68600500Y-71121155D01*
X68571116Y-70973435D01*
X68577343Y-70903843D01*
X68620206Y-70848666D01*
X68623809Y-70846163D01*
X68660289Y-70821789D01*
X68771789Y-70710289D01*
X68859394Y-70579179D01*
X68859793Y-70578217D01*
X68892418Y-70499451D01*
X68919737Y-70433497D01*
X68950500Y-70278842D01*
X68950500Y-70121158D01*
X68950500Y-70121155D01*
X68950499Y-70121153D01*
X68937515Y-70055880D01*
X68919737Y-69966503D01*
X68899145Y-69916788D01*
X68859397Y-69820827D01*
X68859390Y-69820814D01*
X68771789Y-69689711D01*
X68771786Y-69689707D01*
X68660291Y-69578212D01*
X68647504Y-69569668D01*
X68636107Y-69562053D01*
X68623286Y-69546713D01*
X68607073Y-69535021D01*
X68601342Y-69520455D01*
X68591302Y-69508442D01*
X68588810Y-69488603D01*
X68581492Y-69470003D01*
X68582982Y-69442200D01*
X68582851Y-69441153D01*
X75363000Y-69441153D01*
X75363000Y-69598846D01*
X75393761Y-69753489D01*
X75393764Y-69753501D01*
X75454102Y-69899172D01*
X75454109Y-69899185D01*
X75541710Y-70030288D01*
X75541713Y-70030292D01*
X75653207Y-70141786D01*
X75653211Y-70141789D01*
X75784314Y-70229390D01*
X75784327Y-70229397D01*
X75929998Y-70289735D01*
X75930003Y-70289737D01*
X76084653Y-70320499D01*
X76084656Y-70320500D01*
X76084658Y-70320500D01*
X76242344Y-70320500D01*
X76242345Y-70320499D01*
X76396997Y-70289737D01*
X76542679Y-70229394D01*
X76673789Y-70141789D01*
X76785289Y-70030289D01*
X76872894Y-69899179D01*
X76933237Y-69753497D01*
X76964000Y-69598842D01*
X76964000Y-69441158D01*
X76964000Y-69441155D01*
X76963999Y-69441153D01*
X76957976Y-69410872D01*
X76933237Y-69286503D01*
X76924953Y-69266503D01*
X76872897Y-69140827D01*
X76872890Y-69140814D01*
X76785289Y-69009711D01*
X76785286Y-69009707D01*
X76673792Y-68898213D01*
X76673788Y-68898210D01*
X76542685Y-68810609D01*
X76542672Y-68810602D01*
X76397001Y-68750264D01*
X76396989Y-68750261D01*
X76242345Y-68719500D01*
X76242342Y-68719500D01*
X76084658Y-68719500D01*
X76084655Y-68719500D01*
X75930010Y-68750261D01*
X75929998Y-68750264D01*
X75784327Y-68810602D01*
X75784314Y-68810609D01*
X75653211Y-68898210D01*
X75653207Y-68898213D01*
X75541713Y-69009707D01*
X75541710Y-69009711D01*
X75454109Y-69140814D01*
X75454102Y-69140827D01*
X75393764Y-69286498D01*
X75393761Y-69286510D01*
X75363000Y-69441153D01*
X68582851Y-69441153D01*
X68582595Y-69439117D01*
X68583381Y-69434760D01*
X68595499Y-69373841D01*
X68595499Y-69216157D01*
X68595499Y-69216154D01*
X68595498Y-69216152D01*
X68580515Y-69140827D01*
X68564736Y-69061502D01*
X68504393Y-68915820D01*
X68504063Y-68915327D01*
X68503970Y-68915028D01*
X68501523Y-68910450D01*
X68502391Y-68909985D01*
X68483190Y-68848649D01*
X68492609Y-68798989D01*
X68519737Y-68733497D01*
X68550500Y-68578842D01*
X68550500Y-68421158D01*
X68550500Y-68421155D01*
X68550499Y-68421153D01*
X68523358Y-68284709D01*
X68519737Y-68266503D01*
X68489777Y-68194172D01*
X68459397Y-68120827D01*
X68459390Y-68120814D01*
X68371789Y-67989711D01*
X68367924Y-67985001D01*
X68370089Y-67983223D01*
X68342363Y-67932446D01*
X68347347Y-67862754D01*
X68348969Y-67858634D01*
X68369735Y-67808501D01*
X68369737Y-67808497D01*
X68400500Y-67653842D01*
X68400500Y-67496158D01*
X68400500Y-67496155D01*
X68400499Y-67496153D01*
X68369738Y-67341510D01*
X68369737Y-67341503D01*
X68369735Y-67341498D01*
X68309397Y-67195827D01*
X68309389Y-67195813D01*
X68301468Y-67183958D01*
X68301467Y-67183957D01*
X68259503Y-67121153D01*
X75499500Y-67121153D01*
X75499500Y-67278846D01*
X75530261Y-67433489D01*
X75530264Y-67433501D01*
X75590602Y-67579172D01*
X75590609Y-67579185D01*
X75678210Y-67710288D01*
X75678213Y-67710292D01*
X75789707Y-67821786D01*
X75789711Y-67821789D01*
X75920814Y-67909390D01*
X75920827Y-67909397D01*
X76066498Y-67969735D01*
X76066503Y-67969737D01*
X76221153Y-68000499D01*
X76221156Y-68000500D01*
X76221158Y-68000500D01*
X76378844Y-68000500D01*
X76378845Y-68000499D01*
X76533497Y-67969737D01*
X76679179Y-67909394D01*
X76810289Y-67821789D01*
X76921789Y-67710289D01*
X77009394Y-67579179D01*
X77069737Y-67433497D01*
X77100500Y-67278842D01*
X77100500Y-67121158D01*
X77100500Y-67121155D01*
X77100499Y-67121153D01*
X77089271Y-67064707D01*
X77069737Y-66966503D01*
X77027946Y-66865609D01*
X77009397Y-66820827D01*
X77009390Y-66820814D01*
X76921789Y-66689711D01*
X76921786Y-66689707D01*
X76810292Y-66578213D01*
X76810288Y-66578210D01*
X76679185Y-66490609D01*
X76679172Y-66490602D01*
X76533501Y-66430264D01*
X76533489Y-66430261D01*
X76378845Y-66399500D01*
X76378842Y-66399500D01*
X76221158Y-66399500D01*
X76221155Y-66399500D01*
X76066510Y-66430261D01*
X76066498Y-66430264D01*
X75920827Y-66490602D01*
X75920814Y-66490609D01*
X75789711Y-66578210D01*
X75789707Y-66578213D01*
X75678213Y-66689707D01*
X75678210Y-66689711D01*
X75590609Y-66820814D01*
X75590602Y-66820827D01*
X75530264Y-66966498D01*
X75530261Y-66966510D01*
X75499500Y-67121153D01*
X68259503Y-67121153D01*
X68221789Y-67064711D01*
X68221786Y-67064707D01*
X68110292Y-66953213D01*
X68110288Y-66953210D01*
X67979185Y-66865609D01*
X67979172Y-66865602D01*
X67833501Y-66805264D01*
X67833489Y-66805261D01*
X67678845Y-66774500D01*
X67678842Y-66774500D01*
X67521158Y-66774500D01*
X67521155Y-66774500D01*
X67366510Y-66805261D01*
X67366498Y-66805264D01*
X67220827Y-66865602D01*
X67220814Y-66865609D01*
X67089711Y-66953210D01*
X67089707Y-66953213D01*
X66978213Y-67064707D01*
X66978210Y-67064711D01*
X66890609Y-67195814D01*
X66890602Y-67195827D01*
X66830264Y-67341498D01*
X66830261Y-67341510D01*
X66799500Y-67496153D01*
X66799500Y-67653846D01*
X66830261Y-67808489D01*
X66830264Y-67808501D01*
X66890602Y-67954172D01*
X66890609Y-67954185D01*
X66978210Y-68085288D01*
X66982076Y-68089999D01*
X66979909Y-68091776D01*
X67007636Y-68142553D01*
X67002652Y-68212245D01*
X67001032Y-68216362D01*
X66980262Y-68266506D01*
X66980260Y-68266511D01*
X66949500Y-68421153D01*
X66949500Y-68578846D01*
X66980261Y-68733489D01*
X66980264Y-68733501D01*
X67040602Y-68879171D01*
X67040608Y-68879182D01*
X67040931Y-68879665D01*
X67041022Y-68879956D01*
X67043479Y-68884553D01*
X67042607Y-68885018D01*
X67061808Y-68946343D01*
X67052390Y-68996006D01*
X67025262Y-69061501D01*
X67025260Y-69061504D01*
X66994499Y-69216152D01*
X66994499Y-69373845D01*
X67025260Y-69528488D01*
X67025263Y-69528500D01*
X67085601Y-69674171D01*
X67085608Y-69674184D01*
X67173209Y-69805287D01*
X67173212Y-69805291D01*
X67284706Y-69916785D01*
X67284711Y-69916789D01*
X67308889Y-69932944D01*
X67353695Y-69986556D01*
X67362404Y-70055880D01*
X67361617Y-70060238D01*
X67349500Y-70121153D01*
X67349500Y-70278846D01*
X67378883Y-70426565D01*
X67372656Y-70496157D01*
X67329793Y-70551334D01*
X67326163Y-70553853D01*
X67305583Y-70567606D01*
X67289707Y-70578214D01*
X67289704Y-70578217D01*
X67178213Y-70689707D01*
X67178210Y-70689711D01*
X67090609Y-70820814D01*
X67090602Y-70820827D01*
X67030264Y-70966498D01*
X67030261Y-70966510D01*
X66999500Y-71121153D01*
X66999500Y-71278846D01*
X67030261Y-71433489D01*
X67030264Y-71433501D01*
X67054836Y-71492823D01*
X67062305Y-71562292D01*
X67031029Y-71624771D01*
X66970940Y-71660423D01*
X66901115Y-71657929D01*
X66892823Y-71654836D01*
X66833501Y-71630264D01*
X66833489Y-71630261D01*
X66678845Y-71599500D01*
X66678842Y-71599500D01*
X66521158Y-71599500D01*
X66521155Y-71599500D01*
X66366510Y-71630261D01*
X66366498Y-71630264D01*
X66220827Y-71690602D01*
X66220814Y-71690609D01*
X66089711Y-71778210D01*
X66089707Y-71778213D01*
X65978213Y-71889707D01*
X65978210Y-71889711D01*
X65890609Y-72020814D01*
X65890604Y-72020824D01*
X65877173Y-72053250D01*
X65833331Y-72107654D01*
X65767037Y-72129718D01*
X65699338Y-72112438D01*
X65690617Y-72106326D01*
X65690606Y-72106343D01*
X65554437Y-72015357D01*
X65554424Y-72015350D01*
X65408753Y-71955012D01*
X65408741Y-71955009D01*
X65254097Y-71924248D01*
X65254094Y-71924248D01*
X65096410Y-71924248D01*
X65096407Y-71924248D01*
X64941762Y-71955009D01*
X64941750Y-71955012D01*
X64796079Y-72015350D01*
X64796066Y-72015357D01*
X64664963Y-72102958D01*
X64664959Y-72102961D01*
X64553465Y-72214455D01*
X64553462Y-72214459D01*
X64465861Y-72345562D01*
X64465854Y-72345575D01*
X64405516Y-72491246D01*
X64405513Y-72491258D01*
X64374752Y-72645901D01*
X53600500Y-72645901D01*
X53600500Y-70276153D01*
X54499500Y-70276153D01*
X54499500Y-70433846D01*
X54530261Y-70588489D01*
X54530264Y-70588501D01*
X54590602Y-70734172D01*
X54590609Y-70734185D01*
X54678210Y-70865288D01*
X54678213Y-70865292D01*
X54789707Y-70976786D01*
X54789711Y-70976789D01*
X54920814Y-71064390D01*
X54920827Y-71064397D01*
X55057850Y-71121153D01*
X55066503Y-71124737D01*
X55221153Y-71155499D01*
X55221156Y-71155500D01*
X55221158Y-71155500D01*
X55378844Y-71155500D01*
X55378845Y-71155499D01*
X55533497Y-71124737D01*
X55679179Y-71064394D01*
X55810289Y-70976789D01*
X55921789Y-70865289D01*
X56009394Y-70734179D01*
X56019290Y-70710289D01*
X56051555Y-70632392D01*
X56069737Y-70588497D01*
X56100500Y-70433842D01*
X56100500Y-70276158D01*
X56100500Y-70276155D01*
X56100499Y-70276153D01*
X56069737Y-70121503D01*
X56069592Y-70121153D01*
X56009397Y-69975827D01*
X56009390Y-69975814D01*
X55921789Y-69844711D01*
X55921786Y-69844707D01*
X55810292Y-69733213D01*
X55810288Y-69733210D01*
X55679185Y-69645609D01*
X55679172Y-69645602D01*
X55533501Y-69585264D01*
X55533489Y-69585261D01*
X55378845Y-69554500D01*
X55378842Y-69554500D01*
X55221158Y-69554500D01*
X55221155Y-69554500D01*
X55066510Y-69585261D01*
X55066498Y-69585264D01*
X54920827Y-69645602D01*
X54920814Y-69645609D01*
X54789711Y-69733210D01*
X54789707Y-69733213D01*
X54678213Y-69844707D01*
X54678210Y-69844711D01*
X54590609Y-69975814D01*
X54590602Y-69975827D01*
X54530264Y-70121498D01*
X54530261Y-70121510D01*
X54499500Y-70276153D01*
X53600500Y-70276153D01*
X53600500Y-68716151D01*
X61499500Y-68716151D01*
X61499500Y-68873844D01*
X61530260Y-69028486D01*
X61530262Y-69028491D01*
X61530263Y-69028495D01*
X61550349Y-69076987D01*
X61559901Y-69100048D01*
X61567369Y-69169517D01*
X61559902Y-69194946D01*
X61530263Y-69266503D01*
X61530262Y-69266506D01*
X61530260Y-69266511D01*
X61499500Y-69421153D01*
X61499500Y-69578846D01*
X61530261Y-69733489D01*
X61530264Y-69733501D01*
X61590602Y-69879171D01*
X61590609Y-69879184D01*
X61606015Y-69902240D01*
X61626893Y-69968917D01*
X61624530Y-69995323D01*
X61599500Y-70121155D01*
X61599500Y-70278846D01*
X61630261Y-70433489D01*
X61630264Y-70433501D01*
X61690604Y-70579176D01*
X61726162Y-70632392D01*
X61747040Y-70699069D01*
X61737623Y-70748732D01*
X61730262Y-70766502D01*
X61730261Y-70766505D01*
X61699500Y-70921153D01*
X61699500Y-71078846D01*
X61730261Y-71233489D01*
X61730264Y-71233501D01*
X61790602Y-71379172D01*
X61790609Y-71379185D01*
X61878210Y-71510288D01*
X61878213Y-71510292D01*
X61989707Y-71621786D01*
X61989711Y-71621789D01*
X62120814Y-71709390D01*
X62120827Y-71709397D01*
X62266498Y-71769735D01*
X62266503Y-71769737D01*
X62421153Y-71800499D01*
X62421156Y-71800500D01*
X62421158Y-71800500D01*
X62578844Y-71800500D01*
X62578845Y-71800499D01*
X62733497Y-71769737D01*
X62879179Y-71709394D01*
X63010289Y-71621789D01*
X63121789Y-71510289D01*
X63209394Y-71379179D01*
X63269737Y-71233497D01*
X63300500Y-71078842D01*
X63300500Y-70921158D01*
X63300500Y-70921155D01*
X63300499Y-70921153D01*
X63286080Y-70848666D01*
X63269737Y-70766503D01*
X63239374Y-70693199D01*
X63209397Y-70620827D01*
X63209395Y-70620823D01*
X63209394Y-70620821D01*
X63198471Y-70604474D01*
X63173837Y-70567606D01*
X63152959Y-70500929D01*
X63162377Y-70451264D01*
X63169737Y-70433497D01*
X63200500Y-70278842D01*
X63200500Y-70121158D01*
X63200500Y-70121155D01*
X63200499Y-70121153D01*
X63187515Y-70055880D01*
X63169737Y-69966503D01*
X63149145Y-69916788D01*
X63109397Y-69820827D01*
X63109390Y-69820814D01*
X63093985Y-69797759D01*
X63073107Y-69731082D01*
X63075470Y-69704676D01*
X63100500Y-69578844D01*
X63100500Y-69421155D01*
X63100499Y-69421153D01*
X63090597Y-69371371D01*
X63069737Y-69266503D01*
X63040098Y-69194949D01*
X63036817Y-69164435D01*
X63031371Y-69134243D01*
X63032919Y-69128175D01*
X63032630Y-69125483D01*
X63040097Y-69100051D01*
X63049653Y-69076982D01*
X63776989Y-69076982D01*
X63776989Y-69225615D01*
X63805982Y-69371371D01*
X63805984Y-69371379D01*
X63858244Y-69497546D01*
X63865713Y-69567016D01*
X63858244Y-69592452D01*
X63805984Y-69718618D01*
X63805982Y-69718626D01*
X63776989Y-69864382D01*
X63776989Y-70013015D01*
X63805982Y-70158771D01*
X63805984Y-70158779D01*
X63862860Y-70296090D01*
X63945428Y-70419663D01*
X63945434Y-70419670D01*
X64050517Y-70524753D01*
X64050524Y-70524759D01*
X64174097Y-70607327D01*
X64174098Y-70607327D01*
X64174099Y-70607328D01*
X64311409Y-70664204D01*
X64439642Y-70689711D01*
X64457172Y-70693198D01*
X64457176Y-70693199D01*
X64457177Y-70693199D01*
X64605802Y-70693199D01*
X64605803Y-70693198D01*
X64751569Y-70664204D01*
X64877737Y-70611942D01*
X64947205Y-70604474D01*
X64972636Y-70611941D01*
X65098809Y-70664204D01*
X65227042Y-70689711D01*
X65244572Y-70693198D01*
X65244576Y-70693199D01*
X65244577Y-70693199D01*
X65393202Y-70693199D01*
X65393203Y-70693198D01*
X65538969Y-70664204D01*
X65676279Y-70607328D01*
X65799855Y-70524758D01*
X65904948Y-70419665D01*
X65987518Y-70296089D01*
X66044394Y-70158779D01*
X66073389Y-70013011D01*
X66073389Y-69864387D01*
X66044394Y-69718619D01*
X65992132Y-69592450D01*
X65984664Y-69522983D01*
X65992131Y-69497551D01*
X66044394Y-69371379D01*
X66073389Y-69225611D01*
X66073389Y-69076987D01*
X66044394Y-68931219D01*
X65987518Y-68793909D01*
X65947152Y-68733497D01*
X65904949Y-68670334D01*
X65904943Y-68670327D01*
X65799860Y-68565244D01*
X65799853Y-68565238D01*
X65676280Y-68482670D01*
X65538969Y-68425794D01*
X65538961Y-68425792D01*
X65393205Y-68396799D01*
X65393201Y-68396799D01*
X65244577Y-68396799D01*
X65244572Y-68396799D01*
X65098816Y-68425792D01*
X65098808Y-68425794D01*
X64972642Y-68478054D01*
X64903172Y-68485523D01*
X64877736Y-68478054D01*
X64751569Y-68425794D01*
X64751561Y-68425792D01*
X64605805Y-68396799D01*
X64605801Y-68396799D01*
X64457177Y-68396799D01*
X64457172Y-68396799D01*
X64311416Y-68425792D01*
X64311408Y-68425794D01*
X64174097Y-68482670D01*
X64050524Y-68565238D01*
X64050517Y-68565244D01*
X63945434Y-68670327D01*
X63945428Y-68670334D01*
X63862860Y-68793907D01*
X63805984Y-68931218D01*
X63805982Y-68931226D01*
X63776989Y-69076982D01*
X63049653Y-69076982D01*
X63069737Y-69028495D01*
X63100500Y-68873840D01*
X63100500Y-68716156D01*
X63100500Y-68716153D01*
X63100499Y-68716151D01*
X63075097Y-68588447D01*
X63069737Y-68561501D01*
X63038266Y-68485523D01*
X63009397Y-68415825D01*
X63009390Y-68415812D01*
X62921789Y-68284709D01*
X62921786Y-68284705D01*
X62810292Y-68173211D01*
X62810288Y-68173208D01*
X62679185Y-68085607D01*
X62679172Y-68085600D01*
X62533501Y-68025262D01*
X62533489Y-68025259D01*
X62378845Y-67994498D01*
X62378842Y-67994498D01*
X62221158Y-67994498D01*
X62221155Y-67994498D01*
X62066510Y-68025259D01*
X62066498Y-68025262D01*
X61920827Y-68085600D01*
X61920814Y-68085607D01*
X61789711Y-68173208D01*
X61789707Y-68173211D01*
X61678213Y-68284705D01*
X61678210Y-68284709D01*
X61590609Y-68415812D01*
X61590602Y-68415825D01*
X61530264Y-68561496D01*
X61530261Y-68561508D01*
X61499500Y-68716151D01*
X53600500Y-68716151D01*
X53600500Y-67736153D01*
X54499500Y-67736153D01*
X54499500Y-67893846D01*
X54530261Y-68048489D01*
X54530264Y-68048501D01*
X54590602Y-68194172D01*
X54590609Y-68194185D01*
X54678210Y-68325288D01*
X54678213Y-68325292D01*
X54789707Y-68436786D01*
X54789711Y-68436789D01*
X54920814Y-68524390D01*
X54920827Y-68524397D01*
X55066498Y-68584735D01*
X55066503Y-68584737D01*
X55221153Y-68615499D01*
X55221156Y-68615500D01*
X55221158Y-68615500D01*
X55378844Y-68615500D01*
X55514847Y-68588447D01*
X55514847Y-68588446D01*
X55533497Y-68584737D01*
X55679179Y-68524394D01*
X55810289Y-68436789D01*
X55921789Y-68325289D01*
X56009394Y-68194179D01*
X56069737Y-68048497D01*
X56100500Y-67893842D01*
X56100500Y-67736158D01*
X56100500Y-67736155D01*
X56100499Y-67736153D01*
X56084127Y-67653846D01*
X56069737Y-67581503D01*
X56068774Y-67579179D01*
X56009397Y-67435827D01*
X56009390Y-67435814D01*
X55921789Y-67304711D01*
X55921786Y-67304707D01*
X55810292Y-67193213D01*
X55810288Y-67193210D01*
X55679185Y-67105609D01*
X55679172Y-67105602D01*
X55533501Y-67045264D01*
X55533489Y-67045261D01*
X55378845Y-67014500D01*
X55378842Y-67014500D01*
X55221158Y-67014500D01*
X55221155Y-67014500D01*
X55066510Y-67045261D01*
X55066498Y-67045264D01*
X54920827Y-67105602D01*
X54920814Y-67105609D01*
X54789711Y-67193210D01*
X54789707Y-67193213D01*
X54678213Y-67304707D01*
X54678210Y-67304711D01*
X54590609Y-67435814D01*
X54590602Y-67435827D01*
X54530264Y-67581498D01*
X54530261Y-67581510D01*
X54499500Y-67736153D01*
X53600500Y-67736153D01*
X53600500Y-66221153D01*
X60999500Y-66221153D01*
X60999500Y-66378846D01*
X61030261Y-66533489D01*
X61030264Y-66533501D01*
X61090602Y-66679172D01*
X61090609Y-66679185D01*
X61178210Y-66810288D01*
X61178213Y-66810292D01*
X61289707Y-66921786D01*
X61289711Y-66921789D01*
X61420814Y-67009390D01*
X61420827Y-67009397D01*
X61554359Y-67064707D01*
X61566503Y-67069737D01*
X61721153Y-67100499D01*
X61721156Y-67100500D01*
X61721158Y-67100500D01*
X61878844Y-67100500D01*
X61878845Y-67100499D01*
X62033497Y-67069737D01*
X62179179Y-67009394D01*
X62310289Y-66921789D01*
X62421789Y-66810289D01*
X62509394Y-66679179D01*
X62569737Y-66533497D01*
X62600500Y-66378842D01*
X62600500Y-66221158D01*
X62600500Y-66221155D01*
X62600499Y-66221153D01*
X62569738Y-66066510D01*
X62569737Y-66066503D01*
X62569735Y-66066498D01*
X62509397Y-65920827D01*
X62509390Y-65920814D01*
X62421789Y-65789711D01*
X62421786Y-65789707D01*
X62310292Y-65678213D01*
X62310288Y-65678210D01*
X62179185Y-65590609D01*
X62179172Y-65590602D01*
X62033501Y-65530264D01*
X62033489Y-65530261D01*
X61878845Y-65499500D01*
X61878842Y-65499500D01*
X61721158Y-65499500D01*
X61721155Y-65499500D01*
X61566510Y-65530261D01*
X61566498Y-65530264D01*
X61420827Y-65590602D01*
X61420814Y-65590609D01*
X61289711Y-65678210D01*
X61289707Y-65678213D01*
X61178213Y-65789707D01*
X61178210Y-65789711D01*
X61090609Y-65920814D01*
X61090602Y-65920827D01*
X61030264Y-66066498D01*
X61030261Y-66066510D01*
X60999500Y-66221153D01*
X53600500Y-66221153D01*
X53600500Y-65021153D01*
X57399500Y-65021153D01*
X57399500Y-65178846D01*
X57430261Y-65333489D01*
X57430264Y-65333501D01*
X57490602Y-65479172D01*
X57490609Y-65479185D01*
X57578210Y-65610288D01*
X57578213Y-65610292D01*
X57689707Y-65721786D01*
X57689711Y-65721789D01*
X57820814Y-65809390D01*
X57820827Y-65809397D01*
X57966498Y-65869735D01*
X57966503Y-65869737D01*
X58121153Y-65900499D01*
X58121156Y-65900500D01*
X58121158Y-65900500D01*
X58278844Y-65900500D01*
X58278845Y-65900499D01*
X58433497Y-65869737D01*
X58579179Y-65809394D01*
X58710289Y-65721789D01*
X58821789Y-65610289D01*
X58909394Y-65479179D01*
X58969737Y-65333497D01*
X59000500Y-65178842D01*
X59000500Y-65066153D01*
X64374500Y-65066153D01*
X64374500Y-65223846D01*
X64405261Y-65378489D01*
X64405264Y-65378501D01*
X64465602Y-65524172D01*
X64465609Y-65524185D01*
X64553210Y-65655288D01*
X64553213Y-65655292D01*
X64664707Y-65766786D01*
X64664711Y-65766789D01*
X64795814Y-65854390D01*
X64795827Y-65854397D01*
X64941498Y-65914735D01*
X64941503Y-65914737D01*
X65096153Y-65945499D01*
X65096156Y-65945500D01*
X65096158Y-65945500D01*
X65253844Y-65945500D01*
X65253845Y-65945499D01*
X65408497Y-65914737D01*
X65554179Y-65854394D01*
X65685289Y-65766789D01*
X65796789Y-65655289D01*
X65884394Y-65524179D01*
X65944737Y-65378497D01*
X65975500Y-65223842D01*
X65975500Y-65066158D01*
X65975500Y-65066155D01*
X65975499Y-65066153D01*
X65944738Y-64911510D01*
X65944737Y-64911503D01*
X65944735Y-64911498D01*
X65884397Y-64765827D01*
X65884390Y-64765814D01*
X65796789Y-64634711D01*
X65796786Y-64634707D01*
X65685292Y-64523213D01*
X65685288Y-64523210D01*
X65554185Y-64435609D01*
X65554172Y-64435602D01*
X65408501Y-64375264D01*
X65408489Y-64375261D01*
X65253845Y-64344500D01*
X65253842Y-64344500D01*
X65096158Y-64344500D01*
X65096155Y-64344500D01*
X64941510Y-64375261D01*
X64941498Y-64375264D01*
X64795827Y-64435602D01*
X64795814Y-64435609D01*
X64664711Y-64523210D01*
X64664707Y-64523213D01*
X64553213Y-64634707D01*
X64553210Y-64634711D01*
X64465609Y-64765814D01*
X64465602Y-64765827D01*
X64405264Y-64911498D01*
X64405261Y-64911510D01*
X64374500Y-65066153D01*
X59000500Y-65066153D01*
X59000500Y-65021158D01*
X59000500Y-65021155D01*
X59000499Y-65021153D01*
X58969737Y-64866503D01*
X58928036Y-64765827D01*
X58909397Y-64720827D01*
X58909390Y-64720814D01*
X58821789Y-64589711D01*
X58821786Y-64589707D01*
X58710292Y-64478213D01*
X58710288Y-64478210D01*
X58579185Y-64390609D01*
X58579172Y-64390602D01*
X58433501Y-64330264D01*
X58433489Y-64330261D01*
X58278845Y-64299500D01*
X58278842Y-64299500D01*
X58121158Y-64299500D01*
X58121155Y-64299500D01*
X57966510Y-64330261D01*
X57966498Y-64330264D01*
X57820827Y-64390602D01*
X57820814Y-64390609D01*
X57689711Y-64478210D01*
X57689707Y-64478213D01*
X57578213Y-64589707D01*
X57578210Y-64589711D01*
X57490609Y-64720814D01*
X57490602Y-64720827D01*
X57430264Y-64866498D01*
X57430261Y-64866510D01*
X57399500Y-65021153D01*
X53600500Y-65021153D01*
X53600500Y-63874500D01*
X53620185Y-63807461D01*
X53672989Y-63761706D01*
X53724500Y-63750500D01*
X82275500Y-63750500D01*
X82342539Y-63770185D01*
G37*
%TD.AperFunction*%
%TD*%
M02*
